<?xml version="1.0" standalone="no"?>
<!DOCTYPE svg PUBLIC "-//W3C//DTD SVG 1.1//EN" "http://www.w3.org/Graphics/SVG/1.1/DTD/svg11.dtd" >
<svg xmlns="http://www.w3.org/2000/svg" xmlns:xlink="http://www.w3.org/1999/xlink" version="1.1">
<metadata>
Created by FontForge 20170731 at Sun Jun 12 06:48:43 2022
 By Aleksey,,,
(c) 2014 Adobe Systems Incorporated. All Rights Reserved.
</metadata>
<defs>
<font id="AcuminProExtraCond-UltraBlack" horiz-adv-x="819" >
  <font-face 
    font-family="Acumin Pro ExtraCondensed"
    font-weight="950"
    font-stretch="extra-condensed"
    units-per-em="2048"
    panose-1="2 11 10 8 2 2 2 2 2 4"
    ascent="1505"
    descent="-543"
    x-height="1104"
    cap-height="1364"
    bbox="-354 -539 1657 1931"
    underline-thickness="102"
    underline-position="-307"
    unicode-range="U+0020-FB02"
  />
<missing-glyph horiz-adv-x="1024" 
d="M0 0v1434h1024v-1434h-1024zM512 809l348 522h-696zM573 717l349 -522v1044zM164 102h696l-348 523zM102 1239v-1044l349 522z" />
    <glyph glyph-name="f_f" unicode="ff" horiz-adv-x="1009" 
d="M428 0h-328v813h-88v291h88v29q0 71 11.5 122t41 96t88 68t146.5 23q81 0 127 -12v-238q-12 2 -29 2q-31 0 -44 -12.5t-13 -46.5v-31h139v29q0 71 11.5 122t41 96t88 68t146.5 23t135 -12v-238q-12 2 -37 2q-31 0 -44 -12.5t-13 -46.5v-31h102v-291h-102v-813h-328v813
h-139v-813z" />
    <glyph glyph-name=".notdef" horiz-adv-x="1024" 
d="M0 0v1434h1024v-1434h-1024zM512 809l348 522h-696zM573 717l349 -522v1044zM164 102h696l-348 523zM102 1239v-1044l349 522z" />
    <glyph glyph-name=".null" horiz-adv-x="0" 
 />
    <glyph glyph-name="nonmarkingreturn" horiz-adv-x="682" 
 />
    <glyph glyph-name="space" unicode=" " horiz-adv-x="256" 
 />
    <glyph glyph-name="exclam" unicode="!" horiz-adv-x="520" 
d="M430 510h-297l-29 645l-4 209h359v-201zM444 0h-319v412h319v-412z" />
    <glyph glyph-name="quotedbl" unicode="&#x22;" horiz-adv-x="595" 
d="M256 905h-207l-14 340v180h239v-180zM543 905h-207l-14 340v180h239v-180z" />
    <glyph glyph-name="numbersign" unicode="#" horiz-adv-x="802" 
d="M367 0l43 340h-105l-43 -340h-184l43 340h-92v264h125l16 125h-113v262h146l41 332h184l-41 -332h105l40 332h185l-41 -332h88v-262h-121l-14 -125h98v-264h-131l-43 -340h-186zM442 604l17 125h-105l-16 -125h104z" />
    <glyph glyph-name="dollar" unicode="$" horiz-adv-x="770" 
d="M483 -135h-221v143q-70 13 -117 43t-71 78t-33.5 102t-9.5 129v25h284v-51q0 -94 50 -94q45 0 45 75q0 62 -25.5 104.5t-85.5 88.5q-55 44 -88 73t-69.5 71t-55 82.5t-31 96.5t-12.5 123q0 149 50.5 240t168.5 117v106h221v-106q125 -23 170 -105t45 -233v-23h-272v35
q0 51 -11 71.5t-36 20.5q-24 0 -33.5 -20t-9.5 -62q0 -52 18 -88.5t62 -68.5q119 -86 152 -116q109 -98 135 -228q10 -51 10 -111q0 -74 -10 -130.5t-34 -108t-71 -85.5t-115 -49v-145z" />
    <glyph glyph-name="percent" unicode="%" horiz-adv-x="1175" 
d="M291 1346q121 0 181 -70.5t60 -173.5v-207q0 -126 -59.5 -194t-181.5 -68q-236 0 -242 256v211q0 50 11.5 91.5t37.5 77.5t75.5 56.5t117.5 20.5zM291 1165q-33 0 -33 -51v-237q0 -56 33 -56q31 0 31 58v235q0 51 -31 51zM356 0h-145l602 1323h141zM885 696
q121 0 181 -70t60 -173v-207q0 -126 -59.5 -194t-181.5 -68q-236 0 -242 256v211q0 48 11.5 89t37.5 77.5t75.5 57.5t117.5 21zM885 516q-33 0 -33 -51v-238q0 -55 33 -55q16 0 23 12.5t7 44.5v236q0 51 -30 51z" />
    <glyph glyph-name="ampersand" unicode="&#x26;" horiz-adv-x="1021" 
d="M399 1065q0 -53 7 -87t32 -81q28 31 36.5 67t8.5 105q0 80 -41 80q-23 0 -33 -19t-10 -65zM442 242q39 0 64 43l-144 219q-12 -41 -12 -92q0 -94 22 -132t70 -38zM731 823h277l-213 -481l219 -342h-322l-51 80q-54 -56 -113.5 -76t-144.5 -20q-165 0 -251.5 94.5
t-86.5 279.5q0 132 34 206t140 161q-57 92 -74.5 153t-17.5 162q0 52 7.5 97.5t28.5 92.5t54.5 79.5t90 53.5t130.5 21q301 0 301 -313q0 -98 -15 -155.5t-52 -102t-115 -102.5l80 -123z" />
    <glyph glyph-name="quotesingle" unicode="'" horiz-adv-x="325" 
d="M272 905h-223l-14 363v157h256v-157z" />
    <glyph glyph-name="parenleft" unicode="(" horiz-adv-x="565" 
d="M262 1442h285q-205 -350 -205 -799q0 -430 205 -813h-285q-213 371 -213 815q0 429 213 797z" />
    <glyph glyph-name="parenright" unicode=")" horiz-adv-x="565" 
d="M303 -170h-285q205 350 205 799q0 430 -205 813h285q213 -371 213 -815q0 -429 -213 -797z" />
    <glyph glyph-name="asterisk" unicode="*" horiz-adv-x="735" 
d="M260 1323h215l-45 -250l166 160l111 -178l-207 -78l207 -62l-111 -174l-166 150l45 -246h-215l47 250l-168 -154l-110 174l202 56l-202 84l110 178l168 -156z" />
    <glyph glyph-name="plus" unicode="+" horiz-adv-x="1011" 
d="M377 926h254v-318h311v-252h-311v-323h-254v323h-307v252h307v318z" />
    <glyph glyph-name="comma" unicode="," horiz-adv-x="464" 
d="M231 -176h-235q52 136 78 294t28 253h314q-8 -123 -63.5 -290t-121.5 -257z" />
    <glyph glyph-name="hyphen" unicode="-" horiz-adv-x="509" 
d="M53 672h404v-250h-404v250z" />
    <glyph glyph-name="period" unicode="." horiz-adv-x="428" 
d="M375 0h-322v371h322v-371z" />
    <glyph glyph-name="slash" unicode="/" horiz-adv-x="567" 
d="M279 -61h-230l240 1425h229z" />
    <glyph glyph-name="zero" unicode="0" horiz-adv-x="823" 
d="M408 1346q167 0 268.5 -91.5t101.5 -273.5v-635q0 -366 -372 -366q-361 0 -361 366v633q0 97 28 169t78.5 114.5t114.5 63t142 20.5zM410 1096q-50 0 -50 -78v-705q0 -84 50 -84q49 0 49 84v705q0 78 -49 78z" />
    <glyph glyph-name="one" unicode="1" horiz-adv-x="509" 
d="M438 0h-325v1012q-54 5 -86 16v219q109 11 159 84h252v-1331z" />
    <glyph glyph-name="two" unicode="2" horiz-adv-x="780" 
d="M692 0h-672v41q-1 90 13 168t46.5 153t63 128.5t84.5 138.5q104 163 132 227t28 164q0 38 -8.5 57t-34.5 19q-27 0 -37 -25.5t-10 -77.5v-92h-285v62q0 383 348 383q96 0 165 -29t106.5 -81t54 -113t16.5 -136q0 -29 -3 -56.5t-5 -48.5t-12 -49t-13.5 -42.5t-20.5 -46.5
t-22 -43t-30 -49.5t-31.5 -49t-38.5 -58.5t-41 -61q-99 -140 -110 -211h350z" />
    <glyph glyph-name="three" unicode="3" horiz-adv-x="813" 
d="M350 934h-284v80q0 332 337 332q168 0 256.5 -76.5t88.5 -231.5v-67q0 -191 -146 -250v-4q166 -66 166 -266v-109q0 -181 -89.5 -268.5t-279.5 -87.5q-346 0 -346 356v61h295v-81q0 -48 12 -70.5t39 -22.5q47 0 47 84v148q0 74 -23 100.5t-91 26.5h-99v246h113
q53 0 75.5 19t22.5 85v96q0 41 -9.5 61.5t-35.5 20.5q-29 0 -39 -21.5t-10 -64.5v-96z" />
    <glyph glyph-name="four" unicode="4" horiz-adv-x="790" 
d="M690 0h-305v276h-348v256l180 791h473v-788h68l-19 -259h-49v-276zM305 535h80v36q0 99 9 284t9 194h-14q-7 -49 -41 -250.5t-43 -263.5z" />
    <glyph glyph-name="five" unicode="5" horiz-adv-x="796" 
d="M733 1323l-33 -272h-313q-3 -83 -12 -205q19 31 66 48t94 17q225 0 225 -297v-219q0 -65 -8 -118.5t-31.5 -109t-62 -93.5t-104 -62t-153.5 -24q-94 0 -163 24t-106.5 59t-59 88t-27.5 97.5t-6 101.5v50h303v-99q0 -80 45 -80t45 80v266q0 42 -10 57t-31 15
q-24 0 -36 -24.5t-11 -94.5l-295 17q26 246 53 778h631z" />
    <glyph glyph-name="six" unicode="6" 
d="M758 981h-299v27q0 49 -11.5 68.5t-39.5 19.5q-27 0 -37.5 -21t-10.5 -63v-195q63 84 185 84q66 0 113 -24.5t72 -68t36.5 -94t11.5 -112.5v-262q0 -165 -91.5 -260.5t-276.5 -95.5q-182 0 -273.5 92.5t-91.5 261.5v620q0 87 19.5 156t61 122t113 81.5t169.5 28.5
q350 0 350 -347v-18zM410 227q22 0 35.5 19t13.5 57v260q0 42 -12 59t-37 17q-50 0 -50 -80v-256q0 -76 50 -76z" />
    <glyph glyph-name="seven" unicode="7" horiz-adv-x="692" 
d="M10 1323h654v-254q-214 -405 -265 -1069h-333q10 270 90.5 555.5t199.5 495.5h-346v272z" />
    <glyph glyph-name="eight" unicode="8" horiz-adv-x="823" 
d="M401 -20q-177 0 -266.5 94t-89.5 256v98q0 110 36.5 174t104.5 103q-40 24 -65.5 52.5t-43.5 84t-18 135.5v59q0 139 86 224.5t258 85.5q173 0 261 -87.5t88 -224.5v-65q0 -82 -16 -135t-39 -78t-64 -51q145 -73 145 -271v-92q0 -180 -89 -271t-288 -91zM410 1096
q-48 0 -48 -72v-119q0 -71 48 -71q47 0 47 73v121q0 68 -47 68zM410 229q49 0 49 72v197q0 75 -49 75q-50 0 -50 -75v-197q0 -72 50 -72z" />
    <glyph glyph-name="nine" unicode="9" 
d="M47 344h307v-25q0 -46 12 -67t40 -21q49 0 49 88v244q-55 -71 -179 -71q-116 0 -175.5 76.5t-59.5 209.5v232q0 150 94.5 243t259.5 93q176 0 277.5 -84.5t101.5 -255.5v-639q0 -189 -89.5 -288t-283.5 -99q-64 0 -116.5 11t-89 30t-63.5 46.5t-43 57t-25.5 66.5t-13 69
t-3.5 70v14zM406 1098q-52 0 -52 -76v-201q0 -80 49 -80q52 0 52 82v201q0 74 -49 74z" />
    <glyph glyph-name="colon" unicode=":" horiz-adv-x="589" 
d="M457 631h-324v350h324v-350zM457 0h-324v350h324v-350z" />
    <glyph glyph-name="semicolon" unicode=";" horiz-adv-x="610" 
d="M477 631h-323v350h323v-350zM291 -176h-238q39 114 69.5 264.5t37.5 282.5h313q-11 -125 -63 -285.5t-119 -261.5z" />
    <glyph glyph-name="less" unicode="&#x3c;" horiz-adv-x="827" 
d="M70 338v278l688 302v-281l-428 -154l428 -164v-282z" />
    <glyph glyph-name="equal" unicode="=" horiz-adv-x="1011" 
d="M70 801h872v-252h-872v252zM70 420h872v-252h-872v252z" />
    <glyph glyph-name="greater" unicode="&#x3e;" horiz-adv-x="827" 
d="M758 616v-278l-688 -301v280l428 154l-428 164v283z" />
    <glyph glyph-name="question" unicode="?" horiz-adv-x="821" 
d="M582 457h-326v63q0 97 28.5 171t96.5 183q38 62 50.5 100t12.5 111q0 30 -6 43t-24 13q-23 0 -30 -24t-7 -95v-59h-301v69q0 57 5.5 100t26.5 93t57 82.5t102 54.5t157 22q354 0 354 -329q0 -103 -20 -160.5t-84 -157.5q-53 -81 -72.5 -136.5t-19.5 -113.5v-30zM582 0
h-326v387h326v-387z" />
    <glyph glyph-name="at" unicode="@" horiz-adv-x="1347" 
d="M983 -59l57 -181q-138 -98 -391 -98q-100 0 -186.5 24t-163 80t-130.5 141t-85 213.5t-31 291.5v8q0 258 77.5 456t229.5 311t359 113q124 0 229 -42.5t182 -122.5t120.5 -204t43.5 -280v-8q0 -304 -100.5 -460t-278.5 -156q-38 0 -71.5 10.5t-61.5 41t-32 77.5
q-23 -47 -61 -78t-71 -41t-65 -10q-103 0 -145 69.5t-27 218.5l27 248q13 117 35 195t53.5 116t63.5 52t75 14q53 0 81.5 -22.5t37.5 -53.5l12 56h240l-76 -576q-9 -57 -3.5 -80.5t31.5 -23.5q66 0 104 117t38 282v6q0 247 -97.5 355t-283.5 108q-451 0 -451 -690v-10
q0 -258 98.5 -401.5t299.5 -143.5q176 0 317 78zM702 678q-24 0 -36 -37t-21 -129l-16 -129q-6 -58 0.5 -75t27.5 -17q36 0 50 115l24 210q6 62 -29 62z" />
    <glyph glyph-name="A" unicode="A" horiz-adv-x="851" 
d="M477 287h-106l-17 -287h-331l145 1364h518l143 -1364h-335zM383 557h80q-16 273 -37 535h-14q-1 -28 -13.5 -247t-15.5 -288z" />
    <glyph glyph-name="B" unicode="B" horiz-adv-x="866" 
d="M66 0v1364h378q357 0 357 -305v-68q0 -209 -146 -256q33 -13 58 -29.5t51 -45t40.5 -74t14.5 -105.5v-116q0 -194 -83.5 -279.5t-282.5 -85.5h-387zM383 850h39q59 0 59 80v106q0 41 -13.5 63.5t-53.5 22.5h-31v-272zM383 614v-374h29q39 0 52 22t13 72v190q0 48 -17 69
t-59 21h-18z" />
    <glyph glyph-name="C" unicode="C" horiz-adv-x="835" 
d="M471 506h330v-109q0 -71 -7 -125t-30.5 -112t-64 -95t-111.5 -61t-168 -24q-60 0 -108.5 9t-97.5 34.5t-82 67.5t-54 113t-21 165v637q0 106 27.5 181.5t79.5 117.5t116.5 60.5t147.5 18.5q96 0 166.5 -25t109.5 -62t61.5 -91t29 -99t6.5 -99v-127h-330v161q0 47 -8 67.5
t-35 20.5t-36 -20t-9 -68v-714q0 -52 8.5 -72t32.5 -20q27 0 37 21t10 77v172z" />
    <glyph glyph-name="D" unicode="D" horiz-adv-x="876" 
d="M66 0v1364h356q207 0 302 -95t95 -327v-502q0 -112 -16 -190t-55 -136t-108 -86t-171 -28h-403zM391 1120v-876h29q37 0 53 21.5t16 68.5v698q0 51 -17 69.5t-54 18.5h-27z" />
    <glyph glyph-name="E" unicode="E" horiz-adv-x="708" 
d="M641 852v-268h-250v-316h301l-37 -268h-589v1364h587v-268h-262v-244h250z" />
    <glyph glyph-name="F" unicode="F" horiz-adv-x="694" 
d="M66 0v1364h600v-268h-275v-267h252v-268h-252v-561h-325z" />
    <glyph glyph-name="G" unicode="G" horiz-adv-x="868" 
d="M811 801v-801h-233q-8 30 -13 106q-58 -126 -231 -126q-66 0 -116 20.5t-80 54t-48.5 84t-25.5 102.5t-7 117v666q0 58 11 108.5t38.5 97.5t69 80.5t106.5 53.5t148 20q97 0 169.5 -26.5t112 -65.5t63 -93t30 -97.5t6.5 -91.5v-88h-330v104q0 57 -9 79.5t-40 22.5
q-28 0 -38.5 -23.5t-10.5 -82.5v-705q0 -27 4.5 -44.5t13 -25t15 -9.5t16.5 -2q25 0 38 21.5t13 76.5v198h-53v269h381z" />
    <glyph glyph-name="H" unicode="H" horiz-adv-x="884" 
d="M66 0v1364h325v-514h98v514h330v-1364h-330v580h-98v-580h-325z" />
    <glyph glyph-name="I" unicode="I" horiz-adv-x="458" 
d="M68 1364h323v-1364h-323v1364z" />
    <glyph glyph-name="J" unicode="J" horiz-adv-x="520" 
d="M461 1364v-993q0 -57 -2 -96.5t-9.5 -83.5t-21 -73.5t-36.5 -57.5t-56 -44t-80.5 -26t-108.5 -10q-81 0 -129 6v262q2 0 23.5 -1t28.5 -1q41 0 53 20.5t12 71.5v1026h326z" />
    <glyph glyph-name="K" unicode="K" horiz-adv-x="884" 
d="M66 0v1364h309v-576h8q13 50 34.5 147.5t49 228t43.5 200.5h352l-198 -530l200 -834h-348l-78 532l-63 -159v-373h-309z" />
    <glyph glyph-name="L" unicode="L" horiz-adv-x="727" 
d="M66 0v1364h325v-1088h305l-32 -276h-598z" />
    <glyph glyph-name="M" unicode="M" horiz-adv-x="1157" 
d="M772 0v332q0 310 4 674h-16q-9 -124 -28.5 -374t-32.5 -421t-15 -211h-238q-8 147 -33.5 483t-43.5 529h-17q0 -18 5 -274t5 -396v-342h-296v1364h442q41 -374 55 -600h12q56 596 56 600h461v-1364h-320z" />
    <glyph glyph-name="N" unicode="N" horiz-adv-x="884" 
d="M354 0h-288v1364h340l98 -492q38 -202 45 -251h14q-18 167 -33.5 384t-15.5 310v49h305v-1364h-366l-82 545q-4 27 -19 125t-18 121h-17q37 -562 37 -758v-33z" />
    <glyph glyph-name="O" unicode="O" horiz-adv-x="868" 
d="M430 1384q173 0 277 -93t104 -283v-652q0 -199 -100.5 -287.5t-288.5 -88.5q-365 0 -365 376v668q0 181 101 270.5t272 89.5zM430 1128q-24 0 -35.5 -18.5t-11.5 -62.5v-730q0 -81 49 -81t49 81v732q0 45 -11.5 62t-39.5 17z" />
    <glyph glyph-name="P" unicode="P" horiz-adv-x="868" 
d="M66 0v1364h407q174 0 260 -97.5t86 -275.5v-90q0 -196 -83 -292.5t-269 -96.5h-76v-512h-325zM391 1122v-348h27q40 0 55.5 24t15.5 85v147q0 52 -18 72t-55 20h-25z" />
    <glyph glyph-name="Q" unicode="Q" horiz-adv-x="868" 
d="M430 1384q173 0 277 -93t104 -283v-652q0 -147 -57 -235l147 -107l-141 -184l-228 158q-47 -8 -110 -8q-365 0 -365 376v668q0 181 101 270.5t272 89.5zM430 1128q-24 0 -35.5 -18.5t-11.5 -62.5v-730q0 -81 49 -81t49 81v732q0 45 -11.5 62t-39.5 17z" />
    <glyph glyph-name="R" unicode="R" horiz-adv-x="864" 
d="M66 0v1364h403q190 0 270 -89t80 -261v-49q0 -206 -131 -273q73 -33 99 -100.5t26 -218.5q0 -338 4 -373h-315q-19 34 -19 430q0 70 -6 99t-20.5 37.5t-50.5 8.5h-17v-575h-323zM391 1122v-305h25q42 0 59 21.5t17 83.5v108q0 56 -17 74t-65 18h-19z" />
    <glyph glyph-name="S" unicode="S" horiz-adv-x="815" 
d="M51 446h309v-110q0 -59 11 -81t35 -22q38 0 38 80q0 79 -22.5 121.5t-114.5 128.5q-60 56 -90.5 87t-66 74.5t-51 80t-26 85t-10.5 107.5q0 387 347 387q84 0 147 -20.5t99.5 -53.5t58.5 -82t29.5 -97t7.5 -109v-84h-287v104q0 51 -9.5 69.5t-33.5 18.5q-39 0 -39 -81
q0 -56 20 -91t95 -102q67 -59 101.5 -92.5t74 -80.5t57 -86.5t29.5 -92.5t12 -117q0 -99 -16.5 -170t-56.5 -126.5t-112.5 -83t-178.5 -27.5q-188 0 -272.5 97.5t-84.5 287.5v81z" />
    <glyph glyph-name="T" unicode="T" horiz-adv-x="700" 
d="M188 0v1096h-161v268h647v-268h-162v-1096h-324z" />
    <glyph glyph-name="U" unicode="U" horiz-adv-x="876" 
d="M61 1364h330v-1053q0 -75 43 -75q27 0 37 17.5t10 57.5v1053h334v-1012q0 -107 -24.5 -179t-75 -113.5t-119 -58.5t-166.5 -17q-196 0 -282.5 87t-86.5 287v1006z" />
    <glyph glyph-name="V" unicode="V" horiz-adv-x="798" 
d="M25 1364h337l15 -442q2 -54 7 -171.5t9 -223.5t6 -193h23q1 124 8 328.5t8 261.5l8 440h328l-147 -1364h-461z" />
    <glyph glyph-name="W" unicode="W" horiz-adv-x="1085" 
d="M487 0h-358l-96 1364h338q1 -75 8.5 -420t7.5 -407h19q8 103 18 406.5t16 420.5h236q2 -47 9.5 -375.5t16.5 -458.5h23q1 69 6 278.5t8 364t2 191.5h312l-121 -1364h-348q-2 31 -9.5 129t-14 202t-11.5 218h-19q-8 -129 -23.5 -301t-19.5 -248z" />
    <glyph glyph-name="X" unicode="X" horiz-adv-x="763" 
d="M754 0h-332q-5 67 -19 221t-20 240h-16q-3 -57 -10 -141.5t-16.5 -185.5t-12.5 -134h-316l140 662l-138 702h330q15 -220 23 -424h18q4 53 23 216t22 208h309l-141 -641z" />
    <glyph glyph-name="Y" unicode="Y" horiz-adv-x="780" 
d="M551 0h-324v365q0 48 -12 110l-211 889h346q3 -49 17 -246.5t20 -314.5h21q6 85 24 289.5t23 271.5h321l-215 -913q-10 -48 -10 -66v-385z" />
    <glyph glyph-name="Z" unicode="Z" horiz-adv-x="743" 
d="M23 0v219l323 873h-291v272h625v-236l-299 -856h309l-35 -272h-632z" />
    <glyph glyph-name="bracketleft" unicode="[" horiz-adv-x="491" 
d="M442 -170h-389v1612h389v-244h-125v-1128h125v-240z" />
    <glyph glyph-name="backslash" unicode="\" horiz-adv-x="555" 
d="M272 1364l240 -1425h-229l-240 1425h229z" />
    <glyph glyph-name="bracketright" unicode="]" horiz-adv-x="491" 
d="M45 1442h389v-1612h-389v244h125v1128h-125v240z" />
    <glyph glyph-name="asciicircum" unicode="^" horiz-adv-x="798" 
d="M780 655h-256q-8 27 -32.5 108.5t-39 131.5t-32 116.5t-25.5 110.5q-14 -96 -119 -467h-258l215 668h330z" />
    <glyph glyph-name="underscore" unicode="_" horiz-adv-x="1011" 
d="M8 -162h996v-106h-996v106z" />
    <glyph glyph-name="grave" unicode="`" 
d="M27 1454h340l180 -268h-266z" />
    <glyph glyph-name="a" unicode="a" horiz-adv-x="843" 
d="M786 829v-546q0 -182 11 -283h-312q-11 18 -18 86q-63 -100 -199 -100q-81 0 -135.5 46t-77 116.5t-22.5 162.5v23q0 85 22 149t58.5 103t90.5 63.5t110.5 33.5t125.5 9h17v123q0 43 -10 58.5t-33 15.5t-33 -18t-10 -66v-45h-305v28q0 178 91.5 255t272.5 77
q356 0 356 -291zM457 334v151h-15q-84 0 -84 -123v-8q0 -59 13.5 -82.5t38.5 -23.5q47 0 47 86z" />
    <glyph glyph-name="b" unicode="b" horiz-adv-x="856" 
d="M57 262v1163h326v-411q66 106 197 106q121 0 174 -77t53 -234v-457q0 -66 -5 -116.5t-21 -100t-42.5 -81.5t-72 -52t-107.5 -20q-72 0 -117 33.5t-63 78.5q0 -25 -6 -94h-318q2 45 2 262zM481 346v406q0 50 -9 74t-40 24q-30 0 -39.5 -22t-9.5 -70v-408q0 -59 13 -78.5
t38 -19.5q47 0 47 94z" />
    <glyph glyph-name="c" unicode="c" horiz-adv-x="796" 
d="M457 426h297v-82q0 -89 -16 -152t-55 -112.5t-110.5 -73.5t-177.5 -24q-185 0 -265.5 88t-80.5 286v404q0 169 86.5 264.5t274.5 95.5q85 0 148 -19.5t101 -51t61.5 -78.5t31.5 -94.5t8 -106.5v-80h-303v98q0 47 -8.5 66.5t-32.5 19.5q-26 0 -33.5 -19t-7.5 -62v-482
q0 -42 8.5 -61t32.5 -19q25 0 33 22t8 77v96z" />
    <glyph glyph-name="d" unicode="d" horiz-adv-x="856" 
d="M473 1425h326v-1122q0 -193 4 -303h-305q-9 62 -11 94q-40 -63 -89 -87.5t-122 -24.5q-103 0 -165 76.5t-62 234.5v504q0 68 12 123t39.5 101.5t78 72.5t120.5 26q59 0 106 -21t68 -61v387zM375 768v-438q0 -78 49 -78t49 80v436q0 46 -10.5 64t-38.5 18q-49 0 -49 -82z
" />
    <glyph glyph-name="e" unicode="e" horiz-adv-x="829" 
d="M791 477h-412v-168q0 -43 10 -61.5t35 -18.5q27 0 39 18.5t12 67.5v62h313v-35q0 -83 -18 -146t-59 -112.5t-115 -75.5t-180 -26q-193 0 -280 90t-87 270v420q0 177 101 267.5t272 90.5t270 -87t99 -271v-285zM379 680h94v113q0 46 -9 67t-38 21q-47 0 -47 -88v-113z" />
    <glyph glyph-name="f" unicode="f" horiz-adv-x="542" 
d="M428 0h-328v813h-88v291h88v29q0 71 11.5 122t41 96t88 68t146.5 23q89 0 135 -12v-238q-12 2 -37 2q-31 0 -44 -12.5t-13 -46.5v-31h102v-291h-102v-813z" />
    <glyph glyph-name="g" unicode="g" horiz-adv-x="856" 
d="M799 739v-616q0 -70 -2.5 -118t-11.5 -102.5t-25.5 -89.5t-45.5 -69.5t-70.5 -54t-101 -31.5t-136.5 -12q-174 0 -263.5 79.5t-89.5 223.5v8h326v-4q0 -64 47 -64q35 0 45 27t10 102v140q-52 -123 -194 -123q-238 0 -238 325v445q0 315 242 315q147 0 188 -108
q4 67 10 92h314q-4 -140 -4 -365zM375 772v-383q0 -44 10.5 -62t34.5 -18q53 0 53 82v385q0 72 -47 72q-51 0 -51 -76z" />
    <glyph glyph-name="h" unicode="h" horiz-adv-x="868" 
d="M57 0v1425h326v-401q72 96 203 96q122 0 173.5 -73t51.5 -205v-842h-330v770q0 39 -9 59.5t-36 20.5t-40 -21.5t-13 -80.5v-748h-326z" />
    <glyph glyph-name="i" unicode="i" horiz-adv-x="440" 
d="M57 0v1104h326v-1104h-326zM57 1171v254h326v-254h-326z" />
    <glyph glyph-name="j" unicode="j" horiz-adv-x="446" 
d="M61 1171v254h326v-254h-326zM61 1104h326v-985v-34q0 -66 -0.5 -99t-6.5 -88.5t-17.5 -84t-34 -66.5t-56 -56t-84.5 -31.5t-118 -13.5q-51 0 -109 10v270h39q32 0 46.5 13t14.5 47v1118z" />
    <glyph glyph-name="k" unicode="k" horiz-adv-x="841" 
d="M375 1425v-766h10q19 68 61 232.5t56 212.5h329q-30 -84 -90 -231t-69 -171q23 -109 83 -347t85 -355h-344q-7 56 -28.5 201.5t-27.5 201.5q-9 -24 -23 -55t-27.5 -59t-14.5 -31v-258h-318v1425h318z" />
    <glyph glyph-name="l" unicode="l" horiz-adv-x="440" 
d="M383 0h-326v1425h326v-1425z" />
    <glyph glyph-name="m" unicode="m" horiz-adv-x="1243" 
d="M57 0v737q0 317 -4 367h307q7 -30 11 -80q65 96 190 96q42 0 74 -8.5t52.5 -25t31.5 -31t22 -35.5q85 100 213 100q52 0 93 -16.5t66.5 -43.5t42.5 -65.5t23.5 -79t6.5 -86.5v-829h-318v776q0 74 -43 74q-47 0 -47 -78v-772h-317v780q0 39 -10.5 54.5t-32.5 15.5
q-43 0 -43 -76v-774h-318z" />
    <glyph glyph-name="n" unicode="n" horiz-adv-x="864" 
d="M57 0v793q0 257 -4 311h314q6 -34 10 -86q77 102 211 102q118 0 168.5 -71.5t50.5 -200.5v-848h-326v770q0 80 -45 80q-28 0 -40.5 -19.5t-12.5 -68.5v-762h-326z" />
    <glyph glyph-name="o" unicode="o" horiz-adv-x="847" 
d="M418 1120q381 0 381 -362v-416q0 -186 -100.5 -273t-280.5 -87q-369 0 -369 360v426q0 177 102 264.5t267 87.5zM424 874q-49 0 -49 -77v-482q0 -82 49 -82q28 0 38.5 21t10.5 61v484q0 75 -49 75z" />
    <glyph glyph-name="p" unicode="p" horiz-adv-x="856" 
d="M57 -340v1126q0 244 -4 318h316q0 -2 4.5 -41t5.5 -62q27 50 80 84.5t131 34.5q113 0 165 -69t52 -215v-535q0 -69 -11 -122.5t-37.5 -100t-78.5 -71.5t-127 -25q-17 0 -36 3t-44.5 11.5t-49.5 28.5t-40 49v-414h-326zM383 754v-402q0 -49 10.5 -73.5t36.5 -24.5
q51 0 51 84v434q0 80 -47 80q-28 0 -39.5 -23.5t-11.5 -74.5z" />
    <glyph glyph-name="q" unicode="q" horiz-adv-x="856" 
d="M479 -340v432q-27 -52 -76 -81t-114 -29q-70 0 -118.5 25.5t-74 72.5t-36.5 102.5t-11 128.5v484q0 68 12.5 124t40.5 102.5t78.5 72.5t120.5 26q142 0 182 -104q3 48 13 88h307q-4 -126 -4 -320v-1124h-320zM375 770v-438q0 -80 49 -80t49 82v434q0 82 -47 82
q-51 0 -51 -80z" />
    <glyph glyph-name="r" unicode="r" horiz-adv-x="602" 
d="M580 1120v-379q-107 0 -152 -30t-45 -107v-604h-326v727q0 263 -4 377h314q10 -72 10 -137q24 67 77.5 109.5t125.5 43.5z" />
    <glyph glyph-name="s" unicode="s" horiz-adv-x="770" 
d="M35 371h291v-54q0 -53 10.5 -77.5t36.5 -24.5q37 0 37 64q0 46 -22.5 76.5t-108.5 84.5q-139 88 -188.5 162t-49.5 195q0 161 86.5 242t253.5 81q74 0 131.5 -13t93 -38t59.5 -54t35 -68t15 -71t4 -73v-55h-283v61q0 51 -8.5 69.5t-32.5 18.5q-41 0 -41 -68q0 -33 25 -58
t94 -66q149 -89 205.5 -174t56.5 -193q0 -87 -15.5 -149t-54 -110.5t-109.5 -72.5t-175 -24q-68 0 -122 12t-90 31t-62 49.5t-39.5 59t-21 69t-9.5 70.5t-2 71v27z" />
    <glyph glyph-name="t" unicode="t" horiz-adv-x="567" 
d="M4 813v291h100v227h320v-227h111v-291h-111v-477q0 -39 11.5 -52.5t51.5 -13.5q21 0 33 2v-262q-68 -20 -184 -20q-140 0 -190 61t-50 205v557h-92z" />
    <glyph glyph-name="u" unicode="u" horiz-adv-x="864" 
d="M807 1104v-717q0 -321 4 -387h-315q-6 29 -11 86q-76 -104 -211 -104q-46 0 -82 12t-68 41t-49.5 86t-17.5 139v844h326v-776q0 -76 47 -76q30 0 40.5 22t10.5 76v754h326z" />
    <glyph glyph-name="v" unicode="v" horiz-adv-x="808" 
d="M6 1104h350q19 -228 50 -772h12q25 359 63 772h324l-174 -1104h-447z" />
    <glyph glyph-name="w" unicode="w" horiz-adv-x="1214" 
d="M4 1104h356q4 -64 15.5 -231t20.5 -303.5t10 -157.5h14q27 307 45 692h309q5 -104 24.5 -360t24.5 -334h17q12 154 41 694h331l-184 -1104h-354q-41 411 -60 530h-14q-1 -12 -74 -530h-346z" />
    <glyph glyph-name="x" unicode="x" horiz-adv-x="786" 
d="M-20 1104h362q2 -19 12.5 -95t19.5 -147t13 -106h12q8 47 32.5 182t29.5 166h344l-199 -508l203 -596h-358q-47 308 -52 360h-14q-20 -173 -59 -360h-346l172 551z" />
    <glyph glyph-name="y" unicode="y" horiz-adv-x="782" 
d="M-23 1104h355q55 -554 59 -694h17q16 294 51 694h342q-19 -77 -91.5 -447.5t-129.5 -623.5q-34 -152 -45 -186q-38 -112 -118 -155q-72 -38 -194 -38q-83 0 -155 10v264q46 -4 55 -4q91 0 96 37z" />
    <glyph glyph-name="z" unicode="z" horiz-adv-x="698" 
d="M18 0v231q216 445 281 582h-264v291h637v-230q-7 -18 -55.5 -123t-116.5 -251.5t-97 -208.5h277l-25 -291h-637z" />
    <glyph glyph-name="braceleft" unicode="{" horiz-adv-x="557" 
d="M20 487v291h39q52 0 71.5 26t19.5 91v264q0 77 20 132t48 83.5t73 44.5t79 19.5t81 3.5h57v-244h-21q-36 -2 -51.5 -19.5t-15.5 -58.5v-250q0 -48 -9.5 -85.5t-23.5 -60.5t-36 -40.5t-42 -26t-47 -16.5q26 -5 50 -17.5t50.5 -37t42 -69t15.5 -103.5v-277q0 -37 13 -53
t48 -16h27v-238h-55q-30 0 -46 0.5t-45.5 3t-46.5 7t-42.5 14.5t-40.5 24t-32.5 35.5t-27 49.5t-16 66.5t-6.5 84.5v256q0 64 -19 90t-68 26h-43z" />
    <glyph glyph-name="bar" unicode="|" horiz-adv-x="407" 
d="M90 1614h227v-2153h-227v2153z" />
    <glyph glyph-name="braceright" unicode="}" horiz-adv-x="557" 
d="M537 784v-290h-39q-52 0 -71 -25.5t-19 -91.5v-264q0 -56 -10.5 -100t-26.5 -73.5t-42 -50.5t-50.5 -32t-57.5 -17.5t-57.5 -8t-57.5 -1.5h-57v244h21q36 2 51.5 19.5t15.5 58.5v249q0 59 13 102t37.5 67.5t49 37.5t58.5 23q-26 5 -50 17.5t-50.5 37t-42 69t-15.5 103.5
v277q0 37 -13 53t-48 16h-27v238h55q30 0 46 -0.5t45.5 -3t47 -7t42.5 -14.5t40.5 -24t33 -35.5t27 -49.5t16 -66.5t6.5 -84.5v-256q0 -64 18.5 -90.5t67.5 -26.5h43z" />
    <glyph glyph-name="asciitilde" unicode="~" horiz-adv-x="980" 
d="M334 324h-244v108q0 127 54.5 186.5t146.5 59.5q86 0 209 -53q104 -45 123 -45q15 0 20.5 8t5.5 35v45h242v-107q0 -252 -191 -252q-53 0 -95.5 14t-129.5 54q-80 39 -113 39q-25 0 -28 -35v-57z" />
    <glyph glyph-name="uni00A0" unicode="&#xa0;" horiz-adv-x="256" 
 />
    <glyph glyph-name="exclamdown" unicode="&#xa1;" horiz-adv-x="528" 
d="M82 592h297l29 -645l4 -209h-359v201zM68 1102h319v-412h-319v412z" />
    <glyph glyph-name="cent" unicode="&#xa2;" horiz-adv-x="772" 
d="M451 582h276v-80q0 -76 -8.5 -128.5t-31 -99t-66.5 -75t-111 -41.5v-142h-221v140q-131 24 -185.5 119t-54.5 262v327q0 307 240 359v120h221v-122q55 -11 95.5 -35t64 -53t37 -67.5t18 -72t4.5 -73.5v-99h-278v117q0 37 -9 52.5t-32 15.5q-48 0 -48 -62v-477
q0 -80 44 -80q28 0 36.5 19t8.5 65v111z" />
    <glyph glyph-name="sterling" unicode="&#xa3;" horiz-adv-x="808" 
d="M735 0h-684v250q41 20 64.5 73.5t23.5 129.5q0 33 -6 110h-102v199h88q-10 137 -10 227q1 101 26 172t71.5 110.5t104.5 57t133 17.5q63 0 113.5 -12.5t83.5 -31.5t57.5 -48.5t37 -57t20 -64t9 -62.5t1.5 -60v-74h-268v88q0 38 -8 55t-29 17q-35 0 -35 -66q0 -21 14 -268
h156v-199h-147q-2 -108 -13.5 -176.5t-44.5 -114.5h381z" />
    <glyph glyph-name="currency" unicode="&#xa4;" horiz-adv-x="864" 
d="M430 770q-22 0 -32.5 -15.5t-10.5 -62.5v-123q0 -43 10.5 -60t34.5 -17q22 0 31.5 17.5t9.5 61.5v123q0 40 -9.5 58t-33.5 18zM442 987q74 0 131 -31l103 99l168 -191l-107 -100q19 -55 19 -102v-37q0 -61 -21 -129l109 -103l-172 -194l-111 104q-69 -29 -135 -29
q-65 0 -123 25l-106 -100l-177 194l113 105q-18 58 -18 127v30q0 49 14 107l-109 102l164 191l107 -101q74 33 151 33z" />
    <glyph glyph-name="yen" unicode="&#xa5;" 
d="M723 266h-156v-266h-325v266h-152v162h152v49h-152v162h131l-225 684h356q51 -420 54 -449h14q2 33 17 197.5t20 251.5h350l-219 -684h135v-162h-156v-49h156v-162z" />
    <glyph glyph-name="brokenbar" unicode="&#xa6;" horiz-adv-x="407" 
d="M90 1452h227v-754h-227v754zM90 381h227v-754h-227v754z" />
    <glyph glyph-name="section" unicode="&#xa7;" horiz-adv-x="784" 
d="M408 479q10 -9 49 -33q16 43 16 80q0 54 -20.5 88.5t-81.5 81.5q-1 1 -8.5 5.5t-22 14t-27.5 17.5q-24 -41 -24 -90q0 -54 27.5 -88t91.5 -76zM371 -252q-82 0 -142.5 21.5t-94 54t-53.5 79.5t-26 87.5t-6 89.5v43h260v-60q0 -46 14 -66t46 -20q55 0 55 80q0 36 -16 63.5
t-64 57.5l-137 90q-92 61 -133 134t-41 200q0 92 27.5 157t80.5 122q-51 71 -51 196q0 158 81.5 232.5t227.5 74.5q61 0 110 -11.5t81 -29t55 -45t34.5 -52t18 -57.5t8 -54.5t1.5 -49.5v-53h-248v58q0 25 -2.5 40t-14 28t-32.5 13q-26 0 -39 -15t-13 -52q0 -33 17 -56.5
t57 -48.5q14 -9 46 -29.5t57.5 -37t46.5 -33.5q40 -31 64.5 -57t46.5 -64.5t32 -90t10 -120.5q0 -182 -96 -282q49 -81 49 -217q0 -320 -317 -320z" />
    <glyph glyph-name="dieresis" unicode="&#xa8;" 
d="M381 1171h-279v254h279v-254zM719 1171h-279v254h279v-254z" />
    <glyph glyph-name="copyright" unicode="&#xa9;" horiz-adv-x="1169" 
d="M584 1366q57 0 109.5 -9.5t106.5 -32t99.5 -57.5t85.5 -89.5t68.5 -124t44.5 -164t16 -207.5q0 -131 -22 -238t-61 -180t-89 -126.5t-111.5 -83.5t-121.5 -44t-125 -14q-83 0 -156.5 19t-144.5 68t-121.5 125t-81.5 197t-31 277q0 148 31.5 267t83.5 195.5t122.5 127.5
t144 72.5t153.5 21.5zM582 1210q-84 0 -148 -24t-116.5 -81t-80.5 -162.5t-28 -256.5q0 -126 22.5 -222.5t58 -154.5t86 -94.5t100 -49.5t106.5 -13q372 0 372 528q0 108 -13.5 192.5t-39.5 141.5t-59 96.5t-76.5 60.5t-87 30t-96.5 9zM614 623h230v-33q0 -143 -62.5 -212
t-199.5 -69q-133 0 -194.5 75.5t-61.5 233.5v162q0 149 66 218t194 69q64 0 112.5 -18t75 -44.5t43 -64.5t21 -70t4.5 -69v-43h-226v67q0 47 -24 47q-27 0 -27 -45v-266q0 -49 25 -49q24 0 24 49v62z" />
    <glyph glyph-name="ordfeminine" unicode="&#xaa;" horiz-adv-x="563" 
d="M283 1286q121 0 179 -46.5t58 -145.5v-265q0 -137 6 -192h-198q-6 26 -9 51q-57 -65 -145 -65q-72 0 -113 55.5t-41 142.5q0 115 69 164t196 49h16v58q0 16 -1 24t-8 16.5t-20 8.5q-28 0 -28 -47v-19h-201v2q0 209 240 209zM240 850q0 -53 30 -53q18 0 24.5 13t6.5 48v45
q-8 2 -20 2q-41 -3 -41 -55z" />
    <glyph glyph-name="guillemotleft" unicode="&#xab;" horiz-adv-x="806" 
d="M426 913l-135 -366l135 -367h-229l-140 367l140 366h229zM750 913l-136 -366l136 -367h-230l-139 367l139 366h230z" />
    <glyph glyph-name="logicalnot" unicode="&#xac;" horiz-adv-x="1017" 
d="M70 750h837v-580h-252v328h-585v252z" />
    <glyph glyph-name="uni00AD" unicode="&#xad;" horiz-adv-x="509" 
d="M53 672h404v-250h-404v250z" />
    <glyph glyph-name="registered" unicode="&#xae;" horiz-adv-x="530" 
d="M248 1024h-82v231h115q38 0 63 -16.5t25 -52.5q0 -39 -33 -53q29 -9 29 -64q0 -21 4 -45h-84q-4 10 -4 47q0 27 -23 27h-10v-74zM254 1198v-41h10q21 0 21 21q0 20 -21 20h-10zM262 1384q108 0 181 -69.5t73 -179.5q0 -115 -68 -183.5t-186 -68.5q-107 0 -178.5 73
t-71.5 179q0 107 69.5 178t180.5 71zM258 1317q-73 0 -121.5 -45.5t-48.5 -141.5q0 -75 49.5 -127.5t122.5 -52.5q88 0 134 48t46 137q0 83 -50 132.5t-132 49.5z" />
    <glyph glyph-name="macron" unicode="&#xaf;" 
d="M158 1405h504v-213h-504v213z" />
    <glyph glyph-name="degree" unicode="&#xb0;" horiz-adv-x="559" 
d="M279 1346q104 0 171.5 -61t67.5 -179t-71.5 -179t-165.5 -61q-103 0 -171.5 61.5t-68.5 176.5q0 60 20.5 107.5t55 76t76 43.5t86.5 15zM281 1198q-31 0 -53.5 -21.5t-22.5 -72.5q0 -42 22 -64t49 -22q31 0 52.5 22.5t21.5 63.5q0 94 -69 94z" />
    <glyph glyph-name="plusminus" unicode="&#xb1;" horiz-adv-x="1011" 
d="M377 1110h254v-270h311v-254h-311v-267h-254v267h-307v254h307v270zM942 0h-872v254h872v-254z" />
    <glyph glyph-name="two.sups" unicode="&#xb2;" horiz-adv-x="581" 
d="M526 897h-481v14q-1 51 4.5 87t23.5 81.5t59 92.5t106 100q50 42 62.5 60.5t12.5 58.5q0 29 -6.5 40t-21.5 11q-31 0 -31 -56v-47h-219v9q0 41 4.5 73t20.5 67.5t43.5 59t77 39t116.5 15.5q129 0 187.5 -61t58.5 -157q0 -62 -23.5 -105t-103.5 -103q-84 -64 -101 -97h234
z" />
    <glyph glyph-name="three.sups" unicode="&#xb3;" horiz-adv-x="565" 
d="M31 1116h215v-18q0 -45 30 -45q29 0 29 59q0 42 -13 59t-48 17h-60v151h64q35 0 46 14.5t11 47.5q0 24 -6 35.5t-23 11.5q-18 0 -24 -12t-6 -43v-4h-207v4q0 28 5 53.5t20.5 55t41 51t70.5 35.5t105 14q239 0 239 -191q0 -103 -96 -139q111 -36 111 -162q0 -119 -64 -171
t-192 -52q-66 0 -114.5 18t-73 42t-39.5 58t-18 57t-3 48v6z" />
    <glyph glyph-name="acute" unicode="&#xb4;" 
d="M444 1454h340l-266 -268h-254z" />
    <glyph glyph-name="uni00B5" unicode="&#xb5;" horiz-adv-x="851" 
d="M496 0q-8 38 -11 76q-33 -90 -104 -90h-10q4 -86 8 -326h-322v1444h326v-760q0 -53 12 -70.5t37 -17.5q22 0 35.5 18.5t13.5 73.5v756h326v-717q0 -321 4 -387h-315z" />
    <glyph glyph-name="paragraph" unicode="&#xb6;" horiz-adv-x="823" 
d="M512 221h-102q-189 0 -280 93.5t-91 308.5v272q0 203 97.5 291t285.5 88h88q8 88 12 110h217q-2 -41 -2 -137v-1526h-225v500zM512 471v573h-35q-55 0 -55 -75v-402q0 -96 57 -96h33z" />
    <glyph glyph-name="periodcentered" unicode="&#xb7;" horiz-adv-x="428" 
d="M375 410h-322v370h322v-370z" />
    <glyph glyph-name="cedilla" unicode="&#xb8;" 
d="M262 -100l66 116h194l-35 -57q136 -46 136 -166q0 -88 -60 -138t-160 -50q-121 0 -200 39l51 155q44 -22 90 -22q43 0 43 22q0 41 -125 54v47z" />
    <glyph glyph-name="one.sups" unicode="&#xb9;" horiz-adv-x="376" 
d="M326 897h-226v457q-51 7 -71 12v166q91 5 137 61h160v-696z" />
    <glyph glyph-name="ordmasculine" unicode="&#xba;" horiz-adv-x="571" 
d="M293 1286q118 0 181 -63t63 -179v-182q0 -109 -60 -176.5t-196 -67.5q-127 0 -186.5 65.5t-59.5 178.5v191q0 109 67 171t191 62zM287 1120q-31 0 -31 -45v-241q0 -48 31 -48q28 0 28 50v241q0 22 -5.5 32.5t-22.5 10.5z" />
    <glyph glyph-name="guillemotright" unicode="&#xbb;" horiz-adv-x="806" 
d="M373 180l135 367l-135 366h229l139 -366l-139 -367h-229zM49 180l135 367l-135 366h230l139 -366l-139 -367h-230z" />
    <glyph glyph-name="onequarter" unicode="&#xbc;" horiz-adv-x="1087" 
d="M270 0h-143l557 1323h143zM330 631h-226v456q-42 6 -71 13v166q91 5 137 61h160v-696zM989 0h-209v137h-260v182l158 377h311v-387h62l-17 -172h-45v-137zM715 309h65v51q0 21 1 81t1 73h-4q-33 -114 -63 -205z" />
    <glyph glyph-name="onehalf" unicode="&#xbd;" horiz-adv-x="1177" 
d="M305 0h-143l557 1323h143zM350 631h-225v456q-45 6 -72 13v166q91 5 137 61h160v-696zM1100 0h-482v14q-1 51 4.5 87t23.5 81.5t59 92.5t106 100q50 42 63 61t13 58q0 29 -7 40t-22 11q-31 0 -31 -56v-47h-219v9q0 41 4.5 73t20.5 67.5t43.5 59t77 39t116.5 15.5
q129 0 187.5 -61t58.5 -157q0 -62 -23.5 -105t-103.5 -103q-82 -63 -100 -97h233z" />
    <glyph glyph-name="threequarters" unicode="&#xbe;" horiz-adv-x="1263" 
d="M455 0h-144l557 1323h144zM1169 0h-208v137h-261v182l158 377h311v-387h62l-17 -172h-45v-137zM895 309h66v51q0 21 1 81t1 73h-5q-33 -114 -63 -205zM68 850h215v-19q0 -45 30 -45q29 0 29 60q0 42 -13 59t-48 17h-60v151h64q35 0 46 14.5t11 47.5q0 24 -6 35.5
t-23 11.5q-18 0 -24 -12.5t-6 -43.5v-4h-207v4q0 28 4.5 53.5t20 55t41 51t70.5 35.5t105 14q132 0 186 -53.5t54 -136.5q0 -103 -96 -139q110 -36 110 -162q0 -119 -64 -171t-192 -52q-66 0 -114 18t-73 42t-39.5 58t-17.5 57t-3 48v6z" />
    <glyph glyph-name="questiondown" unicode="&#xbf;" horiz-adv-x="786" 
d="M236 647h325v-63q0 -97 -28.5 -171.5t-96.5 -183.5q-34 -57 -48.5 -104t-14.5 -107q0 -30 6 -42.5t24 -12.5q25 0 31 22.5t6 96.5v59h301v-28q0 -46 -2.5 -82t-11.5 -78.5t-24 -74.5t-41 -63.5t-62 -51.5t-88.5 -32t-118.5 -12q-195 0 -274.5 84.5t-79.5 245.5
q0 100 21.5 159.5t82.5 158.5q54 87 73.5 140t19.5 109v31zM236 1104h325v-387h-325v387z" />
    <glyph glyph-name="Agrave" unicode="&#xc0;" horiz-adv-x="851" 
d="M477 287h-106l-17 -287h-331l145 1364h518l143 -1364h-335zM383 557h80q-16 273 -37 535h-14q-1 -28 -13.5 -247t-15.5 -288zM31 1640h379l180 -198h-287z" />
    <glyph glyph-name="Aacute" unicode="&#xc1;" horiz-adv-x="851" 
d="M477 287h-106l-17 -287h-331l145 1364h518l143 -1364h-335zM383 557h80q-16 273 -37 535h-14q-1 -28 -13.5 -247t-15.5 -288zM457 1640h360l-274 -198h-267z" />
    <glyph glyph-name="Acircumflex" unicode="&#xc2;" horiz-adv-x="851" 
d="M477 287h-106l-17 -287h-331l145 1364h518l143 -1364h-335zM383 557h80q-16 273 -37 535h-14q-1 -28 -13.5 -247t-15.5 -288zM287 1640h288l183 -213h-258l-74 91l-68 -91h-262z" />
    <glyph glyph-name="Atilde" unicode="&#xc3;" horiz-adv-x="851" 
d="M477 287h-106l-17 -287h-331l145 1364h518l143 -1364h-335zM383 557h80q-16 273 -37 535h-14q-1 -28 -13.5 -247t-15.5 -288zM319 1434h-192v49q-1 116 41.5 159.5t116.5 43.5q61 0 141 -25t94 -25q21 0 21 29v12h186v-53q0 -60 -11 -100.5t-33 -60.5t-46 -28t-57 -8
q-52 0 -134.5 27t-105.5 27q-21 0 -21 -29v-18z" />
    <glyph glyph-name="Adieresis" unicode="&#xc4;" horiz-adv-x="851" 
d="M477 287h-106l-17 -287h-331l145 1364h518l143 -1364h-335zM383 557h80q-16 273 -37 535h-14q-1 -28 -13.5 -247t-15.5 -288zM389 1440h-258v254h258v-254zM721 1440h-258v254h258v-254z" />
    <glyph glyph-name="Aring" unicode="&#xc5;" horiz-adv-x="851" 
d="M477 287h-106l-17 -287h-331l145 1364h518l143 -1364h-335zM383 557h80q-16 273 -37 535h-14q-1 -28 -13.5 -247t-15.5 -288zM426 1415q-86 0 -139.5 53.5t-53.5 137.5t51.5 140t137.5 56q88 0 143.5 -54.5t55.5 -139.5q0 -88 -55.5 -140.5t-139.5 -52.5zM428 1538
q28 0 44.5 19.5t16.5 48.5q0 31 -16 51t-45 20q-30 0 -45.5 -20t-15.5 -49t16.5 -49.5t44.5 -20.5z" />
    <glyph glyph-name="AE" unicode="&#xc6;" horiz-adv-x="1089" 
d="M221 1364h815v-268h-243v-275h231v-268h-231v-285h280l-37 -268h-557v246h-112l-25 -246h-336zM393 539h86v563h-16q-4 -42 -18 -153t-31 -244.5t-21 -165.5z" />
    <glyph glyph-name="Ccedilla" unicode="&#xc7;" horiz-adv-x="835" 
d="M471 506h330v-109q0 -64 -5.5 -113.5t-24 -102.5t-49.5 -90.5t-84.5 -66t-127.5 -38.5l-16 -27q135 -46 135 -166q0 -88 -59.5 -138t-159.5 -50q-122 0 -201 39l51 155q44 -22 90 -22q43 0 43 22q0 41 -125 54v47l49 88q-260 46 -260 381v637q0 106 27.5 181.5
t79.5 117.5t116.5 60.5t147.5 18.5q96 0 166.5 -25t109.5 -62t61.5 -91t29 -99t6.5 -99v-127h-330v161q0 47 -8 67.5t-35 20.5t-36 -20t-9 -68v-714q0 -52 8.5 -72t32.5 -20q27 0 37 21t10 77v172z" />
    <glyph glyph-name="Egrave" unicode="&#xc8;" horiz-adv-x="708" 
d="M641 852v-268h-250v-316h301l-37 -268h-589v1364h587v-268h-262v-244h250zM-41 1640h379l180 -198h-287z" />
    <glyph glyph-name="Eacute" unicode="&#xc9;" horiz-adv-x="708" 
d="M641 852v-268h-250v-316h301l-37 -268h-589v1364h587v-268h-262v-244h250zM393 1640h361l-275 -198h-266z" />
    <glyph glyph-name="Ecircumflex" unicode="&#xca;" horiz-adv-x="708" 
d="M641 852v-268h-250v-316h301l-37 -268h-589v1364h587v-268h-262v-244h250zM215 1640h289l182 -213h-258l-74 91l-67 -91h-262z" />
    <glyph glyph-name="Edieresis" unicode="&#xcb;" horiz-adv-x="708" 
d="M641 852v-268h-250v-316h301l-37 -268h-589v1364h587v-268h-262v-244h250zM317 1440h-258v254h258v-254zM649 1440h-258v254h258v-254z" />
    <glyph glyph-name="Igrave" unicode="&#xcc;" horiz-adv-x="458" 
d="M68 1364h323v-1364h-323v1364zM-182 1640h379l180 -198h-287z" />
    <glyph glyph-name="Iacute" unicode="&#xcd;" horiz-adv-x="458" 
d="M68 1364h323v-1364h-323v1364zM264 1640h361l-275 -198h-266z" />
    <glyph glyph-name="Icircumflex" unicode="&#xce;" horiz-adv-x="458" 
d="M68 1364h323v-1364h-323v1364zM90 1640h289l182 -213h-258l-74 91l-67 -91h-262z" />
    <glyph glyph-name="Idieresis" unicode="&#xcf;" horiz-adv-x="458" 
d="M68 1364h323v-1364h-323v1364zM193 1440h-259v254h259v-254zM524 1440h-258v254h258v-254z" />
    <glyph glyph-name="Eth" unicode="&#xd0;" horiz-adv-x="897" 
d="M31 825h55v539h356q207 0 302.5 -95t95.5 -327v-502q0 -112 -16.5 -190t-55.5 -136t-108 -86t-171 -28h-403v547h-55v278zM412 1120v-295h59v-278h-59v-303h28q38 0 54 21.5t16 68.5v698q0 51 -17.5 69.5t-54.5 18.5h-26z" />
    <glyph glyph-name="Ntilde" unicode="&#xd1;" horiz-adv-x="884" 
d="M354 0h-288v1364h340l98 -492q38 -202 45 -251h14q-18 167 -33.5 384t-15.5 310v49h305v-1364h-366l-82 545q-4 27 -19 125t-18 121h-17q37 -562 37 -758v-33zM336 1434h-193v49q-1 116 41.5 159.5t116.5 43.5q61 0 141.5 -25t94.5 -25q6 0 10 1.5t7 8t3 19.5v12h186v-53
q0 -60 -11 -100.5t-33 -60.5t-46 -28t-57 -8q-52 0 -134.5 27t-105.5 27q-20 0 -20 -29v-18z" />
    <glyph glyph-name="Ograve" unicode="&#xd2;" horiz-adv-x="868" 
d="M430 1384q173 0 277 -93t104 -283v-652q0 -199 -100.5 -287.5t-288.5 -88.5q-365 0 -365 376v668q0 181 101 270.5t272 89.5zM430 1128q-24 0 -35.5 -18.5t-11.5 -62.5v-730q0 -81 49 -81t49 81v732q0 45 -11.5 62t-39.5 17zM39 1640h379l180 -198h-287z" />
    <glyph glyph-name="Oacute" unicode="&#xd3;" horiz-adv-x="868" 
d="M430 1384q173 0 277 -93t104 -283v-652q0 -199 -100.5 -287.5t-288.5 -88.5q-365 0 -365 376v668q0 181 101 270.5t272 89.5zM430 1128q-24 0 -35.5 -18.5t-11.5 -62.5v-730q0 -81 49 -81t49 81v732q0 45 -11.5 62t-39.5 17zM455 1640h360l-274 -198h-267z" />
    <glyph glyph-name="Ocircumflex" unicode="&#xd4;" horiz-adv-x="868" 
d="M430 1384q173 0 277 -93t104 -283v-652q0 -199 -100.5 -287.5t-288.5 -88.5q-365 0 -365 376v668q0 181 101 270.5t272 89.5zM430 1128q-24 0 -35.5 -18.5t-11.5 -62.5v-730q0 -81 49 -81t49 81v732q0 45 -11.5 62t-39.5 17zM295 1640h289l182 -213h-258l-74 91l-67 -91
h-263z" />
    <glyph glyph-name="Otilde" unicode="&#xd5;" horiz-adv-x="868" 
d="M430 1384q173 0 277 -93t104 -283v-652q0 -199 -100.5 -287.5t-288.5 -88.5q-365 0 -365 376v668q0 181 101 270.5t272 89.5zM430 1128q-24 0 -35.5 -18.5t-11.5 -62.5v-730q0 -81 49 -81t49 81v732q0 45 -11.5 62t-39.5 17zM328 1434h-193v49q-1 116 41.5 159.5
t116.5 43.5q61 0 141 -25t94 -25q21 0 21 29v12h186v-53q0 -60 -11 -100.5t-33 -60.5t-46 -28t-57 -8q-52 0 -134.5 27t-105.5 27q-20 0 -20 -29v-18z" />
    <glyph glyph-name="Odieresis" unicode="&#xd6;" horiz-adv-x="868" 
d="M430 1384q173 0 277 -93t104 -283v-652q0 -199 -100.5 -287.5t-288.5 -88.5q-365 0 -365 376v668q0 181 101 270.5t272 89.5zM430 1128q-24 0 -35.5 -18.5t-11.5 -62.5v-730q0 -81 49 -81t49 81v732q0 45 -11.5 62t-39.5 17zM397 1440h-258v254h258v-254zM729 1440h-258
v254h258v-254z" />
    <glyph glyph-name="multiply" unicode="&#xd7;" horiz-adv-x="997" 
d="M928 750l-266 -273l266 -272l-158 -168l-270 274l-267 -274l-163 168l268 272l-268 273l163 163l267 -272l270 272z" />
    <glyph glyph-name="Oslash" unicode="&#xd8;" horiz-adv-x="868" 
d="M182 0h-84l35 86q-76 92 -76 270v668q0 360 373 360q132 0 219 -47l10 27h89l-31 -76q94 -97 94 -280v-652q0 -202 -100 -289t-289 -87q-143 0 -225 53zM430 1128q-31 0 -49.5 -22t-18.5 -66v-397l140 338v61q0 86 -72 86zM432 236q31 0 50.5 24.5t19.5 65.5v444
l-140 -336v-108q0 -39 19 -64.5t51 -25.5z" />
    <glyph glyph-name="Ugrave" unicode="&#xd9;" horiz-adv-x="876" 
d="M61 1364h330v-1053q0 -75 43 -75q27 0 37 17.5t10 57.5v1053h334v-1012q0 -107 -24.5 -179t-75 -113.5t-119 -58.5t-166.5 -17q-196 0 -282.5 87t-86.5 287v1006zM43 1628h379l180 -198h-287z" />
    <glyph glyph-name="Uacute" unicode="&#xda;" horiz-adv-x="876" 
d="M61 1364h330v-1053q0 -75 43 -75q27 0 37 17.5t10 57.5v1053h334v-1012q0 -107 -24.5 -179t-75 -113.5t-119 -58.5t-166.5 -17q-196 0 -282.5 87t-86.5 287v1006zM459 1640h360l-274 -198h-266z" />
    <glyph glyph-name="Ucircumflex" unicode="&#xdb;" horiz-adv-x="876" 
d="M61 1364h330v-1053q0 -75 43 -75q27 0 37 17.5t10 57.5v1053h334v-1012q0 -107 -24.5 -179t-75 -113.5t-119 -58.5t-166.5 -17q-196 0 -282.5 87t-86.5 287v1006zM299 1640h289l182 -213h-258l-74 91l-67 -91h-262z" />
    <glyph glyph-name="Udieresis" unicode="&#xdc;" horiz-adv-x="876" 
d="M61 1364h330v-1053q0 -75 43 -75q27 0 37 17.5t10 57.5v1053h334v-1012q0 -107 -24.5 -179t-75 -113.5t-119 -58.5t-166.5 -17q-196 0 -282.5 87t-86.5 287v1006zM401 1440h-258v254h258v-254zM733 1440h-258v254h258v-254z" />
    <glyph glyph-name="Yacute" unicode="&#xdd;" horiz-adv-x="780" 
d="M551 0h-324v365q0 48 -12 110l-211 889h346q3 -49 17 -246.5t20 -314.5h21q6 85 24 289.5t23 271.5h321l-215 -913q-10 -48 -10 -66v-385zM422 1634h360l-274 -198h-266z" />
    <glyph glyph-name="Thorn" unicode="&#xde;" horiz-adv-x="872" 
d="M66 0v1364h321v-221h105q171 0 249 -78.5t78 -255.5v-199q0 -195 -73.5 -279.5t-251.5 -84.5h-107v-246h-321zM391 901v-395h25q33 0 53 19.5t20 78.5v203q0 54 -14.5 74t-56.5 20h-27z" />
    <glyph glyph-name="germandbls" unicode="&#xdf;" horiz-adv-x="948" 
d="M381 1069v-1069h-326v1071q0 90 24.5 157.5t63 107.5t94.5 64.5t110.5 33t119.5 8.5q202 0 301.5 -95.5t99.5 -271.5v-55l-143 -229v-7l47 -69q63 -91 99 -178t36 -185q0 -183 -77.5 -274.5t-251.5 -91.5q-49 0 -98 9t-70 19v244q61 -16 98 -16t55.5 15t18.5 54
q0 51 -52 131l-86 136q-92 147 15 307l100 151v33q0 127 -88 127q-53 0 -71.5 -33.5t-18.5 -93.5z" />
    <glyph glyph-name="agrave" unicode="&#xe0;" horiz-adv-x="843" 
d="M786 829v-546q0 -182 11 -283h-312q-11 18 -18 86q-63 -100 -199 -100q-81 0 -135.5 46t-77 116.5t-22.5 162.5v23q0 85 22 149t58.5 103t90.5 63.5t110.5 33.5t125.5 9h17v123q0 43 -10 58.5t-33 15.5t-33 -18t-10 -66v-45h-305v28q0 178 91.5 255t272.5 77
q356 0 356 -291zM457 334v151h-15q-84 0 -84 -123v-8q0 -59 13.5 -82.5t38.5 -23.5q47 0 47 86zM68 1454h340l180 -268h-266z" />
    <glyph glyph-name="aacute" unicode="&#xe1;" horiz-adv-x="843" 
d="M786 829v-546q0 -182 11 -283h-312q-11 18 -18 86q-63 -100 -199 -100q-81 0 -135.5 46t-77 116.5t-22.5 162.5v23q0 85 22 149t58.5 103t90.5 63.5t110.5 33.5t125.5 9h17v123q0 43 -10 58.5t-33 15.5t-33 -18t-10 -66v-45h-305v28q0 178 91.5 255t272.5 77
q356 0 356 -291zM457 334v151h-15q-84 0 -84 -123v-8q0 -59 13.5 -82.5t38.5 -23.5q47 0 47 86zM457 1454h340l-267 -268h-254z" />
    <glyph glyph-name="acircumflex" unicode="&#xe2;" horiz-adv-x="843" 
d="M786 829v-546q0 -182 11 -283h-312q-11 18 -18 86q-63 -100 -199 -100q-81 0 -135.5 46t-77 116.5t-22.5 162.5v23q0 85 22 149t58.5 103t90.5 63.5t110.5 33.5t125.5 9h17v123q0 43 -10 58.5t-33 15.5t-33 -18t-10 -66v-45h-305v28q0 178 91.5 255t272.5 77
q356 0 356 -291zM457 334v151h-15q-84 0 -84 -123v-8q0 -59 13.5 -82.5t38.5 -23.5q47 0 47 86zM272 1438h318l168 -254h-258l-74 121l-68 -121h-262z" />
    <glyph glyph-name="atilde" unicode="&#xe3;" horiz-adv-x="843" 
d="M786 829v-546q0 -182 11 -283h-312q-11 18 -18 86q-63 -100 -199 -100q-81 0 -135.5 46t-77 116.5t-22.5 162.5v23q0 85 22 149t58.5 103t90.5 63.5t110.5 33.5t125.5 9h17v123q0 43 -10 58.5t-33 15.5t-33 -18t-10 -66v-45h-305v28q0 178 91.5 255t272.5 77
q356 0 356 -291zM457 334v151h-15q-84 0 -84 -123v-8q0 -59 13.5 -82.5t38.5 -23.5q47 0 47 86zM315 1178h-174v53q-1 116 40.5 162.5t113.5 46.5q43 0 89 -17.5t81 -35t51 -17.5q6 0 10 1.5t7.5 10.5t3.5 25v25h165v-43q0 -123 -35.5 -170.5t-101.5 -47.5q-52 0 -129 37
t-100 37q-21 0 -21 -49v-18z" />
    <glyph glyph-name="adieresis" unicode="&#xe4;" horiz-adv-x="843" 
d="M786 829v-546q0 -182 11 -283h-312q-11 18 -18 86q-63 -100 -199 -100q-81 0 -135.5 46t-77 116.5t-22.5 162.5v23q0 85 22 149t58.5 103t90.5 63.5t110.5 33.5t125.5 9h17v123q0 43 -10 58.5t-33 15.5t-33 -18t-10 -66v-45h-305v28q0 178 91.5 255t272.5 77
q356 0 356 -291zM457 334v151h-15q-84 0 -84 -123v-8q0 -59 13.5 -82.5t38.5 -23.5q47 0 47 86zM393 1178h-278v254h278v-254zM731 1178h-278v254h278v-254z" />
    <glyph glyph-name="aring" unicode="&#xe5;" horiz-adv-x="843" 
d="M786 829v-546q0 -182 11 -283h-312q-11 18 -18 86q-63 -100 -199 -100q-81 0 -135.5 46t-77 116.5t-22.5 162.5v23q0 85 22 149t58.5 103t90.5 63.5t110.5 33.5t125.5 9h17v123q0 43 -10 58.5t-33 15.5t-33 -18t-10 -66v-45h-305v28q0 178 91.5 255t272.5 77
q356 0 356 -291zM457 334v151h-15q-84 0 -84 -123v-8q0 -59 13.5 -82.5t38.5 -23.5q47 0 47 86zM422 1169q-86 0 -139.5 53.5t-53.5 137.5t51.5 140t137.5 56q87 0 142.5 -54.5t55.5 -139.5q0 -89 -55 -141t-139 -52zM424 1292q28 0 44.5 19.5t16.5 48.5q0 31 -16 51.5
t-45 20.5q-30 0 -46 -20.5t-16 -49.5t17 -49.5t45 -20.5z" />
    <glyph glyph-name="ae" unicode="&#xe6;" horiz-adv-x="1232" 
d="M287 -18q-127 0 -190.5 89.5t-63.5 241.5v4q0 98 29.5 170t83 113t119.5 60.5t147 19.5h45v135q0 43 -10 58.5t-33 15.5q-25 0 -36 -17.5t-11 -64.5v-59h-301v55q0 317 325 317q167 0 227 -67q92 67 216 67q191 0 275.5 -90.5t84.5 -279.5v-273h-412v-170q0 -78 45 -78
q28 0 40 19.5t12 66.5v62h313v-41q0 -80 -16 -140t-55.5 -110.5t-114.5 -77t-185 -26.5q-68 0 -121 11t-87 32.5t-49 35t-34 35.5q-62 -66 -118 -90t-125 -24zM457 319v158h-15q-84 0 -84 -115v-18q0 -92 52 -92q22 0 34.5 19.5t12.5 47.5zM782 680h95v57q0 83 -8.5 113.5
t-37.5 30.5q-32 0 -40.5 -28.5t-8.5 -121.5v-51z" />
    <glyph glyph-name="ccedilla" unicode="&#xe7;" horiz-adv-x="796" 
d="M457 426h297v-82q0 -159 -56 -246.5t-200 -109.5l-19 -29q135 -46 135 -166q0 -88 -59.5 -138t-159.5 -50q-121 0 -200 39l51 155q44 -22 90 -22q43 0 43 22q0 41 -125 54v47l49 88q-134 20 -194 108t-60 260v404q0 169 86.5 264.5t274.5 95.5q85 0 148 -19.5t101 -51
t61.5 -78.5t31.5 -94.5t8 -106.5v-80h-303v98q0 47 -8.5 66.5t-32.5 19.5q-26 0 -33.5 -19t-7.5 -62v-482q0 -42 8.5 -61t32.5 -19q25 0 33 22t8 77v96z" />
    <glyph glyph-name="egrave" unicode="&#xe8;" horiz-adv-x="829" 
d="M791 477h-412v-168q0 -43 10 -61.5t35 -18.5q27 0 39 18.5t12 67.5v62h313v-35q0 -83 -18 -146t-59 -112.5t-115 -75.5t-180 -26q-193 0 -280 90t-87 270v420q0 177 101 267.5t272 90.5t270 -87t99 -271v-285zM379 680h94v113q0 46 -9 67t-38 21q-47 0 -47 -88v-113z
M53 1454h340l180 -268h-266z" />
    <glyph glyph-name="eacute" unicode="&#xe9;" horiz-adv-x="829" 
d="M791 477h-412v-168q0 -43 10 -61.5t35 -18.5q27 0 39 18.5t12 67.5v62h313v-35q0 -83 -18 -146t-59 -112.5t-115 -75.5t-180 -26q-193 0 -280 90t-87 270v420q0 177 101 267.5t272 90.5t270 -87t99 -271v-285zM379 680h94v113q0 46 -9 67t-38 21q-47 0 -47 -88v-113z
M449 1454h339l-266 -268h-254z" />
    <glyph glyph-name="ecircumflex" unicode="&#xea;" horiz-adv-x="829" 
d="M791 477h-412v-168q0 -43 10 -61.5t35 -18.5q27 0 39 18.5t12 67.5v62h313v-35q0 -83 -18 -146t-59 -112.5t-115 -75.5t-180 -26q-193 0 -280 90t-87 270v420q0 177 101 267.5t272 90.5t270 -87t99 -271v-285zM379 680h94v113q0 46 -9 67t-38 21q-47 0 -47 -88v-113z
M260 1425h318l167 -254h-258l-73 121l-68 -121h-262z" />
    <glyph glyph-name="edieresis" unicode="&#xeb;" horiz-adv-x="829" 
d="M791 477h-412v-168q0 -43 10 -61.5t35 -18.5q27 0 39 18.5t12 67.5v62h313v-35q0 -83 -18 -146t-59 -112.5t-115 -75.5t-180 -26q-193 0 -280 90t-87 270v420q0 177 101 267.5t272 90.5t270 -87t99 -271v-285zM379 680h94v113q0 46 -9 67t-38 21q-47 0 -47 -88v-113z
M385 1171h-279v254h279v-254zM723 1171h-279v254h279v-254z" />
    <glyph glyph-name="igrave" unicode="&#xec;" horiz-adv-x="440" 
d="M57 0v1104h326v-1104h-326zM-164 1454h340l180 -268h-266z" />
    <glyph glyph-name="iacute" unicode="&#xed;" horiz-adv-x="440" 
d="M57 0v1104h326v-1104h-326zM266 1454h340l-266 -268h-254z" />
    <glyph glyph-name="icircumflex" unicode="&#xee;" horiz-adv-x="440" 
d="M57 0v1104h326v-1104h-326zM66 1425h317l168 -254h-258l-74 121l-67 -121h-263z" />
    <glyph glyph-name="idieresis" unicode="&#xef;" horiz-adv-x="440" 
d="M57 0v1104h326v-1104h-326zM190 1171h-278v254h278v-254zM528 1171h-278v254h278v-254z" />
    <glyph glyph-name="eth" unicode="&#xf0;" horiz-adv-x="851" 
d="M123 1206v236q282 0 444 -113l154 88l59 -117l-114 -67q135 -177 135 -533v-311q0 -98 -19 -170t-62 -125.5t-116.5 -80.5t-177.5 -27q-193 0 -284 100.5t-91 296.5v233q0 185 98 274t267 89q31 0 55 -4q-5 61 -51 117l-164 -97l-61 117l106 62q-73 29 -178 32zM426 739
q-49 0 -49 -75v-349q0 -41 11 -59t40 -18q47 0 47 77v349q0 45 -13 60t-36 15z" />
    <glyph glyph-name="ntilde" unicode="&#xf1;" horiz-adv-x="864" 
d="M57 0v793q0 257 -4 311h314q6 -34 10 -86q77 102 211 102q118 0 168.5 -71.5t50.5 -200.5v-848h-326v770q0 80 -45 80q-28 0 -40.5 -19.5t-12.5 -68.5v-762h-326zM326 1182h-174v53q-1 116 40 162.5t113 46.5q43 0 89 -17.5t81 -35t51 -17.5q6 0 10 1.5t7.5 10.5t3.5 25
v25h166v-43q0 -123 -35.5 -170t-102.5 -47q-52 0 -129 36.5t-100 36.5q-12 0 -16 -11t-4 -38v-18z" />
    <glyph glyph-name="ograve" unicode="&#xf2;" horiz-adv-x="847" 
d="M418 1120q381 0 381 -362v-416q0 -186 -100.5 -273t-280.5 -87q-369 0 -369 360v426q0 177 102 264.5t267 87.5zM424 874q-49 0 -49 -77v-482q0 -82 49 -82q28 0 38.5 21t10.5 61v484q0 75 -49 75zM45 1454h340l180 -268h-266z" />
    <glyph glyph-name="oacute" unicode="&#xf3;" horiz-adv-x="847" 
d="M418 1120q381 0 381 -362v-416q0 -186 -100.5 -273t-280.5 -87q-369 0 -369 360v426q0 177 102 264.5t267 87.5zM424 874q-49 0 -49 -77v-482q0 -82 49 -82q28 0 38.5 21t10.5 61v484q0 75 -49 75zM459 1454h340l-267 -268h-253z" />
    <glyph glyph-name="ocircumflex" unicode="&#xf4;" horiz-adv-x="847" 
d="M418 1120q381 0 381 -362v-416q0 -186 -100.5 -273t-280.5 -87q-369 0 -369 360v426q0 177 102 264.5t267 87.5zM424 874q-49 0 -49 -77v-482q0 -82 49 -82q28 0 38.5 21t10.5 61v484q0 75 -49 75zM270 1425h318l168 -254h-258l-74 121l-68 -121h-262z" />
    <glyph glyph-name="otilde" unicode="&#xf5;" horiz-adv-x="847" 
d="M418 1120q381 0 381 -362v-416q0 -186 -100.5 -273t-280.5 -87q-369 0 -369 360v426q0 177 102 264.5t267 87.5zM424 874q-49 0 -49 -77v-482q0 -82 49 -82q28 0 38.5 21t10.5 61v484q0 75 -49 75zM317 1167h-174v54q-1 116 40.5 162.5t113.5 46.5q43 0 89 -17.5t81 -35
t51 -17.5q6 0 10 1.5t7.5 10.5t3.5 25v24h166v-43q0 -123 -35.5 -170t-102.5 -47q-52 0 -129 37t-100 37q-21 0 -21 -49v-19z" />
    <glyph glyph-name="odieresis" unicode="&#xf6;" horiz-adv-x="847" 
d="M418 1120q381 0 381 -362v-416q0 -186 -100.5 -273t-280.5 -87q-369 0 -369 360v426q0 177 102 264.5t267 87.5zM424 874q-49 0 -49 -77v-482q0 -82 49 -82q28 0 38.5 21t10.5 61v484q0 75 -49 75zM395 1171h-278v254h278v-254zM733 1171h-278v254h278v-254z" />
    <glyph glyph-name="divide" unicode="&#xf7;" horiz-adv-x="1011" 
d="M645 690h-276v254h276v-254zM70 608h872v-252h-872v252zM645 27h-276v247h276v-247z" />
    <glyph glyph-name="oslash" unicode="&#xf8;" horiz-adv-x="847" 
d="M418 1120q145 0 229 -51l19 35h88l-45 -84q90 -96 90 -295v-358q0 -200 -98 -290.5t-283 -90.5q-134 0 -221 53l-21 -39h-84l45 86q-88 94 -88 272v390q0 86 22.5 152.5t58 107t85.5 66.5t99 36t104 10zM424 879q-66 0 -66 -82v-285l131 252v35q0 80 -65 80zM424 233
q65 0 65 86v279l-131 -250v-29q0 -86 66 -86z" />
    <glyph glyph-name="ugrave" unicode="&#xf9;" horiz-adv-x="864" 
d="M807 1104v-717q0 -321 4 -387h-315q-6 29 -11 86q-76 -104 -211 -104q-46 0 -82 12t-68 41t-49.5 86t-17.5 139v844h326v-776q0 -76 47 -76q30 0 40.5 22t10.5 76v754h326zM59 1444h340l181 -268h-267z" />
    <glyph glyph-name="uacute" unicode="&#xfa;" horiz-adv-x="864" 
d="M807 1104v-717q0 -321 4 -387h-315q-6 29 -11 86q-76 -104 -211 -104q-46 0 -82 12t-68 41t-49.5 86t-17.5 139v844h326v-776q0 -76 47 -76q30 0 40.5 22t10.5 76v754h326zM471 1440h340l-266 -269h-254z" />
    <glyph glyph-name="ucircumflex" unicode="&#xfb;" horiz-adv-x="864" 
d="M807 1104v-717q0 -321 4 -387h-315q-6 29 -11 86q-76 -104 -211 -104q-46 0 -82 12t-68 41t-49.5 86t-17.5 139v844h326v-776q0 -76 47 -76q30 0 40.5 22t10.5 76v754h326zM279 1425h317l168 -254h-258l-74 121l-67 -121h-263z" />
    <glyph glyph-name="udieresis" unicode="&#xfc;" horiz-adv-x="864" 
d="M807 1104v-717q0 -321 4 -387h-315q-6 29 -11 86q-76 -104 -211 -104q-46 0 -82 12t-68 41t-49.5 86t-17.5 139v844h326v-776q0 -76 47 -76q30 0 40.5 22t10.5 76v754h326zM403 1171h-278v254h278v-254zM741 1171h-278v254h278v-254z" />
    <glyph glyph-name="yacute" unicode="&#xfd;" horiz-adv-x="782" 
d="M-23 1104h355q55 -554 59 -694h17q16 294 51 694h342q-19 -77 -91.5 -447.5t-129.5 -623.5q-34 -152 -45 -186q-38 -112 -118 -155q-72 -38 -194 -38q-83 0 -155 10v264q46 -4 55 -4q91 0 96 37zM426 1454h340l-266 -268h-254z" />
    <glyph glyph-name="thorn" unicode="&#xfe;" horiz-adv-x="856" 
d="M57 -340v1765h326v-409q29 45 79.5 74.5t117.5 29.5q117 0 172 -73t55 -228v-493q0 -74 -10 -130.5t-36 -107.5t-77.5 -78.5t-126.5 -27.5q-17 0 -36.5 3t-46 11.5t-51 28.5t-40.5 49v-414h-326zM383 754v-402q0 -49 10.5 -73.5t36.5 -24.5q51 0 51 84v434q0 80 -47 80
q-28 0 -39.5 -23.5t-11.5 -74.5z" />
    <glyph glyph-name="ydieresis" unicode="&#xff;" horiz-adv-x="782" 
d="M-23 1104h355q55 -554 59 -694h17q16 294 51 694h342q-19 -77 -91.5 -447.5t-129.5 -623.5q-34 -152 -45 -186q-38 -112 -118 -155q-72 -38 -194 -38q-83 0 -155 10v264q46 -4 55 -4q91 0 96 37zM362 1171h-278v254h278v-254zM700 1171h-278v254h278v-254z" />
    <glyph glyph-name="Amacron" unicode="&#x100;" horiz-adv-x="851" 
d="M477 287h-106l-17 -287h-331l145 1364h518l143 -1364h-335zM383 557h80q-16 273 -37 535h-14q-1 -28 -13.5 -247t-15.5 -288zM174 1647h504v-213h-504v213z" />
    <glyph glyph-name="amacron" unicode="&#x101;" horiz-adv-x="843" 
d="M786 829v-546q0 -182 11 -283h-312q-11 18 -18 86q-63 -100 -199 -100q-81 0 -135.5 46t-77 116.5t-22.5 162.5v23q0 85 22 149t58.5 103t90.5 63.5t110.5 33.5t125.5 9h17v123q0 43 -10 58.5t-33 15.5t-33 -18t-10 -66v-45h-305v28q0 178 91.5 255t272.5 77
q356 0 356 -291zM457 334v151h-15q-84 0 -84 -123v-8q0 -59 13.5 -82.5t38.5 -23.5q47 0 47 86zM170 1405h504v-213h-504v213z" />
    <glyph glyph-name="Abreve" unicode="&#x102;" horiz-adv-x="851" 
d="M477 287h-106l-17 -287h-331l145 1364h518l143 -1364h-335zM383 557h80q-16 273 -37 535h-14q-1 -28 -13.5 -247t-15.5 -288zM133 1667h234q7 -59 61 -59q53 0 57 59h236q-3 -32 -13.5 -64t-33.5 -65.5t-55.5 -59t-83.5 -41.5t-113 -16q-71 0 -127.5 23.5t-89.5 61.5
t-51 79t-21 82z" />
    <glyph glyph-name="abreve" unicode="&#x103;" horiz-adv-x="843" 
d="M786 829v-546q0 -182 11 -283h-312q-11 18 -18 86q-63 -100 -199 -100q-81 0 -135.5 46t-77 116.5t-22.5 162.5v23q0 85 22 149t58.5 103t90.5 63.5t110.5 33.5t125.5 9h17v123q0 43 -10 58.5t-33 15.5t-33 -18t-10 -66v-45h-305v28q0 178 91.5 255t272.5 77
q356 0 356 -291zM457 334v151h-15q-84 0 -84 -123v-8q0 -59 13.5 -82.5t38.5 -23.5q47 0 47 86zM129 1413h233q7 -59 62 -59q53 0 57 59h236q-3 -32 -13.5 -64t-33.5 -65.5t-55.5 -59t-83.5 -41.5t-113 -16q-71 0 -127.5 23.5t-89.5 61.5t-51 79t-21 82z" />
    <glyph glyph-name="Aogonek" unicode="&#x104;" horiz-adv-x="851" 
d="M383 557h80q-16 273 -37 535h-14q-1 -28 -13.5 -247t-15.5 -288zM547 0h-53l-17 287h-106l-17 -287h-331l145 1364h518l143 -1364h-28q-72 -59 -72 -109q0 -22 11 -34.5t44 -12.5q20 0 52 4v-200q-60 -23 -160 -23q-62 0 -108.5 18t-70 46.5t-34 57.5t-10.5 58
q0 68 26.5 113t67.5 82z" />
    <glyph glyph-name="aogonek" unicode="&#x105;" horiz-adv-x="843" 
d="M457 334v151h-15q-84 0 -84 -123v-8q0 -59 13.5 -82.5t38.5 -23.5q47 0 47 86zM518 0h-33q-11 18 -18 86q-63 -100 -199 -100q-81 0 -135.5 46t-77 116.5t-22.5 162.5v23q0 85 22 149t58.5 103t90.5 63.5t110.5 33.5t125.5 9h17v123q0 43 -10 58.5t-33 15.5t-33 -18
t-10 -66v-45h-305v28q0 178 91.5 255t272.5 77q356 0 356 -291v-546q0 -182 11 -283h-25q-72 -59 -72 -109q0 -21 11.5 -34t44.5 -13q19 0 51 4v-200q-60 -23 -160 -23q-62 0 -108.5 18t-70 46.5t-34 57.5t-10.5 58q0 68 26.5 113t67.5 82z" />
    <glyph glyph-name="Cacute" unicode="&#x106;" horiz-adv-x="835" 
d="M471 506h330v-109q0 -71 -7 -125t-30.5 -112t-64 -95t-111.5 -61t-168 -24q-60 0 -108.5 9t-97.5 34.5t-82 67.5t-54 113t-21 165v637q0 106 27.5 181.5t79.5 117.5t116.5 60.5t147.5 18.5q96 0 166.5 -25t109.5 -62t61.5 -91t29 -99t6.5 -99v-127h-330v161q0 47 -8 67.5
t-35 20.5t-36 -20t-9 -68v-714q0 -52 8.5 -72t32.5 -20q27 0 37 21t10 77v172zM438 1640h361l-275 -198h-266z" />
    <glyph glyph-name="cacute" unicode="&#x107;" horiz-adv-x="796" 
d="M457 426h297v-82q0 -89 -16 -152t-55 -112.5t-110.5 -73.5t-177.5 -24q-185 0 -265.5 88t-80.5 286v404q0 169 86.5 264.5t274.5 95.5q85 0 148 -19.5t101 -51t61.5 -78.5t31.5 -94.5t8 -106.5v-80h-303v98q0 47 -8.5 66.5t-32.5 19.5q-26 0 -33.5 -19t-7.5 -62v-482
q0 -42 8.5 -61t32.5 -19q25 0 33 22t8 77v96zM432 1454h340l-266 -268h-254z" />
    <glyph glyph-name="Ccircumflex" unicode="&#x108;" horiz-adv-x="835" 
d="M471 506h330v-109q0 -71 -7 -125t-30.5 -112t-64 -95t-111.5 -61t-168 -24q-60 0 -108.5 9t-97.5 34.5t-82 67.5t-54 113t-21 165v637q0 106 27.5 181.5t79.5 117.5t116.5 60.5t147.5 18.5q96 0 166.5 -25t109.5 -62t61.5 -91t29 -99t6.5 -99v-127h-330v161q0 47 -8 67.5
t-35 20.5t-36 -20t-9 -68v-714q0 -52 8.5 -72t32.5 -20q27 0 37 21t10 77v172zM279 1649h288l183 -213h-258l-74 90l-68 -90h-262z" />
    <glyph glyph-name="ccircumflex" unicode="&#x109;" horiz-adv-x="796" 
d="M457 426h297v-82q0 -89 -16 -152t-55 -112.5t-110.5 -73.5t-177.5 -24q-185 0 -265.5 88t-80.5 286v404q0 169 86.5 264.5t274.5 95.5q85 0 148 -19.5t101 -51t61.5 -78.5t31.5 -94.5t8 -106.5v-80h-303v98q0 47 -8.5 66.5t-32.5 19.5q-26 0 -33.5 -19t-7.5 -62v-482
q0 -42 8.5 -61t32.5 -19q25 0 33 22t8 77v96zM254 1432h317l168 -254h-258l-73 120l-68 -120h-262z" />
    <glyph glyph-name="Cdotaccent" unicode="&#x10a;" horiz-adv-x="835" 
d="M471 506h330v-109q0 -71 -7 -125t-30.5 -112t-64 -95t-111.5 -61t-168 -24q-60 0 -108.5 9t-97.5 34.5t-82 67.5t-54 113t-21 165v637q0 106 27.5 181.5t79.5 117.5t116.5 60.5t147.5 18.5q96 0 166.5 -25t109.5 -62t61.5 -91t29 -99t6.5 -99v-127h-330v161q0 47 -8 67.5
t-35 20.5t-36 -20t-9 -68v-714q0 -52 8.5 -72t32.5 -20q27 0 37 21t10 77v172zM590 1440h-342v254h342v-254z" />
    <glyph glyph-name="cdotaccent" unicode="&#x10b;" horiz-adv-x="796" 
d="M457 426h297v-82q0 -89 -16 -152t-55 -112.5t-110.5 -73.5t-177.5 -24q-185 0 -265.5 88t-80.5 286v404q0 169 86.5 264.5t274.5 95.5q85 0 148 -19.5t101 -51t61.5 -78.5t31.5 -94.5t8 -106.5v-80h-303v98q0 47 -8.5 66.5t-32.5 19.5q-26 0 -33.5 -19t-7.5 -62v-482
q0 -42 8.5 -61t32.5 -19q25 0 33 22t8 77v96zM582 1176h-342v254h342v-254z" />
    <glyph glyph-name="Ccaron" unicode="&#x10c;" horiz-adv-x="835" 
d="M471 506h330v-109q0 -71 -7 -125t-30.5 -112t-64 -95t-111.5 -61t-168 -24q-60 0 -108.5 9t-97.5 34.5t-82 67.5t-54 113t-21 165v637q0 106 27.5 181.5t79.5 117.5t116.5 60.5t147.5 18.5q96 0 166.5 -25t109.5 -62t61.5 -91t29 -99t6.5 -99v-127h-330v161q0 47 -8 67.5
t-35 20.5t-36 -20t-9 -68v-714q0 -52 8.5 -72t32.5 -20q27 0 37 21t10 77v172zM559 1434h-289l-182 213h258l74 -91l67 91h263z" />
    <glyph glyph-name="ccaron" unicode="&#x10d;" horiz-adv-x="796" 
d="M457 426h297v-82q0 -89 -16 -152t-55 -112.5t-110.5 -73.5t-177.5 -24q-185 0 -265.5 88t-80.5 286v404q0 169 86.5 264.5t274.5 95.5q85 0 148 -19.5t101 -51t61.5 -78.5t31.5 -94.5t8 -106.5v-80h-303v98q0 47 -8.5 66.5t-32.5 19.5q-26 0 -33.5 -19t-7.5 -62v-482
q0 -42 8.5 -61t32.5 -19q25 0 33 22t8 77v96zM553 1186h-303l-182 254h258l73 -121l68 121h262z" />
    <glyph glyph-name="Dcaron" unicode="&#x10e;" horiz-adv-x="876" 
d="M66 0v1364h356q207 0 302 -95t95 -327v-502q0 -112 -16 -190t-55 -136t-108 -86t-171 -28h-403zM391 1120v-876h29q37 0 53 21.5t16 68.5v698q0 51 -17 69.5t-54 18.5h-27zM553 1427h-289l-182 213h258l74 -90l67 90h262z" />
    <glyph glyph-name="dcaron" unicode="&#x10f;" horiz-adv-x="978" 
d="M473 1425h326v-1122q0 -193 4 -303h-305q-9 62 -11 94q-40 -63 -89 -87.5t-122 -24.5q-103 0 -165 76.5t-62 234.5v504q0 68 12 123t39.5 101.5t78 72.5t120.5 26q59 0 106 -21t68 -61v387zM375 768v-438q0 -78 49 -78t49 80v436q0 46 -10.5 64t-38.5 18q-49 0 -49 -82z
M836 1425h192l-14 -483h-172z" />
    <glyph glyph-name="Dcroat" unicode="&#x110;" horiz-adv-x="897" 
d="M31 825h55v539h356q207 0 302.5 -95t95.5 -327v-502q0 -112 -16.5 -190t-55.5 -136t-108 -86t-171 -28h-403v547h-55v278zM412 1120v-295h59v-278h-59v-303h28q38 0 54 21.5t16 68.5v698q0 51 -17.5 69.5t-54.5 18.5h-26z" />
    <glyph glyph-name="dcroat" unicode="&#x111;" horiz-adv-x="856" 
d="M217 1323h256v102h326v-102h65v-178h-65v-842q0 -193 4 -303h-305q-9 59 -11 98q-39 -63 -89.5 -87.5t-123.5 -24.5q-225 0 -225 311v430q0 56 6 102t22.5 93.5t44 79.5t73.5 52.5t108 20.5q59 0 104 -21t66 -61v152h-256v178zM375 723v-389q0 -78 49 -78t49 80v387
q0 45 -12 63.5t-37 18.5q-49 0 -49 -82z" />
    <glyph glyph-name="Emacron" unicode="&#x112;" horiz-adv-x="708" 
d="M641 852v-268h-250v-316h301l-37 -268h-589v1364h587v-268h-262v-244h250zM102 1647h504v-213h-504v213z" />
    <glyph glyph-name="emacron" unicode="&#x113;" horiz-adv-x="829" 
d="M791 477h-412v-168q0 -43 10 -61.5t35 -18.5q27 0 39 18.5t12 67.5v62h313v-35q0 -83 -18 -146t-59 -112.5t-115 -75.5t-180 -26q-193 0 -280 90t-87 270v420q0 177 101 267.5t272 90.5t270 -87t99 -271v-285zM379 680h94v113q0 46 -9 67t-38 21q-47 0 -47 -88v-113z
M162 1405h504v-213h-504v213z" />
    <glyph glyph-name="Ebreve" unicode="&#x114;" horiz-adv-x="708" 
d="M641 852v-268h-250v-316h301l-37 -268h-589v1364h587v-268h-262v-244h250zM61 1667h234q7 -59 61 -59t58 59h235q-3 -32 -13.5 -64t-33.5 -65.5t-55.5 -59t-83.5 -41.5t-113 -16q-71 0 -127.5 23.5t-89.5 61.5t-51 79t-21 82z" />
    <glyph glyph-name="ebreve" unicode="&#x115;" horiz-adv-x="829" 
d="M791 477h-412v-168q0 -43 10 -61.5t35 -18.5q27 0 39 18.5t12 67.5v62h313v-35q0 -83 -18 -146t-59 -112.5t-115 -75.5t-180 -26q-193 0 -280 90t-87 270v420q0 177 101 267.5t272 90.5t270 -87t99 -271v-285zM379 680h94v113q0 46 -9 67t-38 21q-47 0 -47 -88v-113z
M121 1413h233q7 -59 62 -59q53 0 57 59h236q-3 -32 -13.5 -64t-33.5 -65.5t-55.5 -59t-83.5 -41.5t-113 -16q-71 0 -127.5 23.5t-89.5 61.5t-51 79t-21 82z" />
    <glyph glyph-name="Edotaccent" unicode="&#x116;" horiz-adv-x="708" 
d="M641 852v-268h-250v-316h301l-37 -268h-589v1364h587v-268h-262v-244h250zM526 1440h-342v254h342v-254z" />
    <glyph glyph-name="edotaccent" unicode="&#x117;" horiz-adv-x="829" 
d="M791 477h-412v-168q0 -43 10 -61.5t35 -18.5q27 0 39 18.5t12 67.5v62h313v-35q0 -83 -18 -146t-59 -112.5t-115 -75.5t-180 -26q-193 0 -280 90t-87 270v420q0 177 101 267.5t272 90.5t270 -87t99 -271v-285zM379 680h94v113q0 46 -9 67t-38 21q-47 0 -47 -88v-113z
M586 1171h-342v254h342v-254z" />
    <glyph glyph-name="Eogonek" unicode="&#x118;" horiz-adv-x="708" 
d="M352 0h-286v1364h587v-268h-262v-244h250v-268h-250v-316h301l-37 -268h-49q-71 -58 -71 -109q0 -22 11 -34.5t44 -12.5q19 0 51 4v-200q-60 -23 -160 -23q-62 0 -108.5 18t-70 46.5t-34 57.5t-10.5 58q0 68 26.5 113t67.5 82z" />
    <glyph glyph-name="eogonek" unicode="&#x119;" horiz-adv-x="829" 
d="M791 477h-412v-168q0 -43 10 -61.5t35 -18.5q27 0 39 18.5t12 67.5v62h313v-35q0 -132 -48 -218.5t-160 -121.5q-64 -54 -64 -100q0 -22 11 -34.5t44 -12.5q20 0 52 4v-201q-60 -23 -160 -23q-62 0 -108.5 18t-70 47t-34 58t-10.5 58q0 99 71 174q-137 23 -199.5 110.5
t-62.5 241.5v420q0 177 101 267.5t272 90.5t270 -87t99 -271v-285zM379 680h94v113q0 46 -9 67t-38 21q-47 0 -47 -88v-113z" />
    <glyph glyph-name="Ecaron" unicode="&#x11a;" horiz-adv-x="708" 
d="M641 852v-268h-250v-316h301l-37 -268h-589v1364h587v-268h-262v-244h250zM496 1427h-289l-182 213h258l73 -90l68 90h262z" />
    <glyph glyph-name="ecaron" unicode="&#x11b;" horiz-adv-x="829" 
d="M791 477h-412v-168q0 -43 10 -61.5t35 -18.5q27 0 39 18.5t12 67.5v62h313v-35q0 -83 -18 -146t-59 -112.5t-115 -75.5t-180 -26q-193 0 -280 90t-87 270v420q0 177 101 267.5t272 90.5t270 -87t99 -271v-285zM379 680h94v113q0 46 -9 67t-38 21q-47 0 -47 -88v-113z
M569 1180h-303l-182 254h258l74 -121l67 121h262z" />
    <glyph glyph-name="Gcircumflex" unicode="&#x11c;" horiz-adv-x="868" 
d="M811 801v-801h-233q-8 30 -13 106q-58 -126 -231 -126q-66 0 -116 20.5t-80 54t-48.5 84t-25.5 102.5t-7 117v666q0 58 11 108.5t38.5 97.5t69 80.5t106.5 53.5t148 20q97 0 169.5 -26.5t112 -65.5t63 -93t30 -97.5t6.5 -91.5v-88h-330v104q0 57 -9 79.5t-40 22.5
q-28 0 -38.5 -23.5t-10.5 -82.5v-705q0 -27 4.5 -44.5t13 -25t15 -9.5t16.5 -2q25 0 38 21.5t13 76.5v198h-53v269h381zM295 1640h289l182 -213h-258l-74 91l-67 -91h-263z" />
    <glyph glyph-name="gcircumflex" unicode="&#x11d;" horiz-adv-x="856" 
d="M799 739v-616q0 -70 -2.5 -118t-11.5 -102.5t-25.5 -89.5t-45.5 -69.5t-70.5 -54t-101 -31.5t-136.5 -12q-174 0 -263.5 79.5t-89.5 223.5v8h326v-4q0 -64 47 -64q35 0 45 27t10 102v140q-52 -123 -194 -123q-238 0 -238 325v445q0 315 242 315q147 0 188 -108
q4 67 10 92h314q-4 -140 -4 -365zM375 772v-383q0 -44 10.5 -62t34.5 -18q53 0 53 82v385q0 72 -47 72q-51 0 -51 -76zM274 1425h318l168 -254h-258l-74 121l-68 -121h-262z" />
    <glyph glyph-name="Gbreve" unicode="&#x11e;" horiz-adv-x="868" 
d="M811 801v-801h-233q-8 30 -13 106q-58 -126 -231 -126q-66 0 -116 20.5t-80 54t-48.5 84t-25.5 102.5t-7 117v666q0 58 11 108.5t38.5 97.5t69 80.5t106.5 53.5t148 20q97 0 169.5 -26.5t112 -65.5t63 -93t30 -97.5t6.5 -91.5v-88h-330v104q0 57 -9 79.5t-40 22.5
q-28 0 -38.5 -23.5t-10.5 -82.5v-705q0 -27 4.5 -44.5t13 -25t15 -9.5t16.5 -2q25 0 38 21.5t13 76.5v198h-53v269h381zM141 1683h234q7 -59 61 -59t58 59h235q-4 -41 -21 -81t-50 -78.5t-92 -62t-136 -23.5q-71 0 -127.5 23.5t-89.5 61t-51 78.5t-21 82z" />
    <glyph glyph-name="gbreve" unicode="&#x11f;" horiz-adv-x="856" 
d="M799 739v-616q0 -70 -2.5 -118t-11.5 -102.5t-25.5 -89.5t-45.5 -69.5t-70.5 -54t-101 -31.5t-136.5 -12q-174 0 -263.5 79.5t-89.5 223.5v8h326v-4q0 -64 47 -64q35 0 45 27t10 102v140q-52 -123 -194 -123q-238 0 -238 325v445q0 315 242 315q147 0 188 -108
q4 67 10 92h314q-4 -140 -4 -365zM375 772v-383q0 -44 10.5 -62t34.5 -18q53 0 53 82v385q0 72 -47 72q-51 0 -51 -76zM135 1409h234q7 -59 61 -59q53 0 57 59h236q-3 -32 -13.5 -64t-33.5 -65.5t-55.5 -59t-83.5 -41.5t-113 -16q-71 0 -127.5 23.5t-89.5 61.5t-51 79
t-21 82z" />
    <glyph glyph-name="Gdotaccent" unicode="&#x120;" horiz-adv-x="868" 
d="M811 801v-801h-233q-8 30 -13 106q-58 -126 -231 -126q-66 0 -116 20.5t-80 54t-48.5 84t-25.5 102.5t-7 117v666q0 58 11 108.5t38.5 97.5t69 80.5t106.5 53.5t148 20q97 0 169.5 -26.5t112 -65.5t63 -93t30 -97.5t6.5 -91.5v-88h-330v104q0 57 -9 79.5t-40 22.5
q-28 0 -38.5 -23.5t-10.5 -82.5v-705q0 -27 4.5 -44.5t13 -25t15 -9.5t16.5 -2q25 0 38 21.5t13 76.5v198h-53v269h381zM606 1440h-342v254h342v-254z" />
    <glyph glyph-name="gdotaccent" unicode="&#x121;" horiz-adv-x="856" 
d="M799 739v-616q0 -70 -2.5 -118t-11.5 -102.5t-25.5 -89.5t-45.5 -69.5t-70.5 -54t-101 -31.5t-136.5 -12q-174 0 -263.5 79.5t-89.5 223.5v8h326v-4q0 -64 47 -64q35 0 45 27t10 102v140q-52 -123 -194 -123q-238 0 -238 325v445q0 315 242 315q147 0 188 -108
q4 67 10 92h314q-4 -140 -4 -365zM375 772v-383q0 -44 10.5 -62t34.5 -18q53 0 53 82v385q0 72 -47 72q-51 0 -51 -76zM621 1171h-342v254h342v-254z" />
    <glyph glyph-name="uni0122" unicode="&#x122;" horiz-adv-x="868" 
d="M811 801v-801h-233q-8 30 -13 106q-58 -126 -231 -126q-66 0 -116 20.5t-80 54t-48.5 84t-25.5 102.5t-7 117v666q0 58 11 108.5t38.5 97.5t69 80.5t106.5 53.5t148 20q97 0 169.5 -26.5t112 -65.5t63 -93t30 -97.5t6.5 -91.5v-88h-330v104q0 57 -9 79.5t-40 22.5
q-28 0 -38.5 -23.5t-10.5 -82.5v-705q0 -27 4.5 -44.5t13 -25t15 -9.5t16.5 -2q25 0 38 21.5t13 76.5v198h-53v269h381zM446 -428h-245q33 65 63.5 168.5t38.5 167.5h303q-13 -86 -64 -190t-96 -146z" />
    <glyph glyph-name="uni0123" unicode="&#x123;" horiz-adv-x="856" 
d="M436 1522h269q-96 -166 -127 -342h-297q9 76 57 182t98 160zM799 739v-616q0 -70 -2.5 -118t-11.5 -102.5t-25.5 -89.5t-45.5 -69.5t-70.5 -54t-101 -31.5t-136.5 -12q-174 0 -263.5 79.5t-89.5 223.5v8h326v-4q0 -64 47 -64q35 0 45 27t10 102v140q-52 -123 -194 -123
q-238 0 -238 325v445q0 315 242 315q147 0 188 -108q4 67 10 92h314q-4 -140 -4 -365zM375 772v-383q0 -44 10.5 -62t34.5 -18q53 0 53 82v385q0 72 -47 72q-51 0 -51 -76z" />
    <glyph glyph-name="Hcircumflex" unicode="&#x124;" horiz-adv-x="884" 
d="M66 0v1364h325v-514h98v514h330v-1364h-330v580h-98v-580h-325zM303 1640h289l182 -213h-258l-74 91l-67 -91h-262z" />
    <glyph glyph-name="hcircumflex" unicode="&#x125;" horiz-adv-x="868" 
d="M31 1677h385l188 -200h-313l-70 77l-63 -77h-320zM57 0v1425h326v-401q72 96 203 96q122 0 173.5 -73t51.5 -205v-842h-330v770q0 39 -9 59.5t-36 20.5t-40 -21.5t-13 -80.5v-748h-326z" />
    <glyph glyph-name="Hbar" unicode="&#x126;" horiz-adv-x="884" 
d="M16 1208h50v156h325v-156h98v156h330v-156h51v-219h-51v-989h-330v580h-98v-580h-325v989h-50v219zM391 850h98v139h-98v-139z" />
    <glyph glyph-name="hbar" unicode="&#x127;" horiz-adv-x="868" 
d="M57 0v1145h-82v178h82v102h326v-102h240v-178h-240v-166q72 96 203 96q122 0 173.5 -73t51.5 -205v-797h-330v725q0 39 -9 59.5t-36 20.5t-40 -22t-13 -81v-702h-326z" />
    <glyph glyph-name="Itilde" unicode="&#x128;" horiz-adv-x="458" 
d="M68 1364h323v-1364h-323v1364zM123 1434h-193v49q-1 116 41.5 159.5t116.5 43.5q61 0 141.5 -25t94.5 -25q6 0 10 1.5t7 8t3 19.5v12h186v-53q0 -60 -11 -100.5t-33 -60.5t-46 -28t-57 -8q-52 0 -134.5 27t-105.5 27q-20 0 -20 -29v-18z" />
    <glyph glyph-name="itilde" unicode="&#x129;" horiz-adv-x="440" 
d="M57 0v1104h326v-1104h-326zM113 1167h-174v54q-1 116 40 162.5t113 46.5q43 0 89 -17.5t81 -35t51 -17.5q6 0 10 1.5t7.5 10.5t3.5 25v24h166v-43q0 -123 -35.5 -170t-102.5 -47q-52 0 -129 37t-100 37q-12 0 -16 -11t-4 -38v-19z" />
    <glyph glyph-name="Imacron" unicode="&#x12a;" horiz-adv-x="458" 
d="M68 1364h323v-1364h-323v1364zM-23 1647h504v-213h-504v213z" />
    <glyph glyph-name="imacron" unicode="&#x12b;" horiz-adv-x="440" 
d="M57 0v1104h326v-1104h-326zM-33 1405h504v-213h-504v213z" />
    <glyph glyph-name="Iogonek" unicode="&#x12e;" horiz-adv-x="458" 
d="M115 0h-47v1364h323v-1364h-22q-72 -59 -72 -109q0 -22 11 -34.5t44 -12.5q19 0 51 4v-200q-60 -23 -159 -23q-62 0 -108.5 18t-70 46.5t-34.5 57.5t-11 58q0 47 16.5 88t34.5 62t44 45z" />
    <glyph glyph-name="iogonek" unicode="&#x12f;" horiz-adv-x="440" 
d="M57 1171v254h326v-254h-326zM104 0h-47v1104h326v-1104h-25q-71 -58 -71 -109q0 -22 11 -34.5t44 -12.5q19 0 51 4v-200q-60 -23 -160 -23q-62 0 -108.5 18t-70 46.5t-34 57.5t-10.5 58q0 68 26.5 113t67.5 82z" />
    <glyph glyph-name="Idotaccent" unicode="&#x130;" horiz-adv-x="458" 
d="M68 1364h323v-1364h-323v1364zM401 1440h-342v254h342v-254z" />
    <glyph glyph-name="dotlessi" unicode="&#x131;" horiz-adv-x="440" 
d="M57 0v1104h326v-1104h-326z" />
    <glyph glyph-name="Jcircumflex" unicode="&#x134;" horiz-adv-x="520" 
d="M461 1364v-993q0 -57 -2 -96.5t-9.5 -83.5t-21 -73.5t-36.5 -57.5t-56 -44t-80.5 -26t-108.5 -10q-81 0 -129 6v262q2 0 23.5 -1t28.5 -1q41 0 53 20.5t12 71.5v1026h326zM162 1640h289l182 -213h-258l-74 91l-68 -91h-262z" />
    <glyph glyph-name="jcircumflex" unicode="&#x135;" horiz-adv-x="446" 
d="M61 1104h326v-985v-34q0 -66 -0.5 -99t-6.5 -88.5t-17.5 -84t-34 -66.5t-56 -56t-84.5 -31.5t-118 -13.5q-51 0 -109 10v270h39q32 0 46.5 13t14.5 47v1118zM70 1425h317l168 -254h-258l-74 121l-67 -121h-262z" />
    <glyph glyph-name="uni0136" unicode="&#x136;" horiz-adv-x="884" 
d="M66 0v1364h309v-576h8q13 50 34.5 147.5t49 228t43.5 200.5h352l-198 -530l200 -834h-348l-78 532l-63 -159v-373h-309zM459 -408h-246q33 65 63.5 168.5t38.5 167.5h303q-13 -86 -63.5 -190t-95.5 -146z" />
    <glyph glyph-name="uni0137" unicode="&#x137;" horiz-adv-x="841" 
d="M375 1425v-766h10q19 68 61 232.5t56 212.5h329q-30 -84 -90 -231t-69 -171q23 -109 83 -347t85 -355h-344q-7 56 -28.5 201.5t-27.5 201.5q-9 -24 -23 -55t-27.5 -59t-14.5 -31v-258h-318v1425h318zM449 -387h-246q33 65 63.5 168.5t38.5 167.5h303q-13 -86 -63.5 -190
t-95.5 -146z" />
    <glyph glyph-name="kgreenlandic" unicode="&#x138;" horiz-adv-x="841" 
d="M375 1104v-445h10q19 68 61 232.5t56 212.5h329q-27 -90 -92 -243.5t-67 -158.5q23 -109 83 -347t85 -355h-344q-7 56 -28.5 201.5t-27.5 201.5q-9 -24 -23 -55t-27.5 -59t-14.5 -31v-258h-318v1104h318z" />
    <glyph glyph-name="Lacute" unicode="&#x139;" horiz-adv-x="727" 
d="M66 0v1364h325v-1088h305l-32 -276h-598zM260 1630h361l-275 -198h-266z" />
    <glyph glyph-name="lacute" unicode="&#x13a;" horiz-adv-x="440" 
d="M274 1696h369l-297 -207h-278zM383 0h-326v1425h326v-1425z" />
    <glyph glyph-name="uni013B" unicode="&#x13b;" horiz-adv-x="727" 
d="M66 0v1364h325v-1088h305l-32 -276h-598zM367 -408h-246q33 65 63.5 168.5t38.5 167.5h303q-13 -86 -63.5 -190t-95.5 -146z" />
    <glyph glyph-name="uni013C" unicode="&#x13c;" horiz-adv-x="440" 
d="M383 0h-326v1425h326v-1425zM211 -408h-246q33 65 64 169t39 167h303q-13 -86 -64 -190t-96 -146z" />
    <glyph glyph-name="Lcaron" unicode="&#x13d;" horiz-adv-x="727" 
d="M66 0v1364h325v-1088h305l-32 -276h-598zM481 1364h193l-15 -483h-172z" />
    <glyph glyph-name="lcaron" unicode="&#x13e;" horiz-adv-x="587" 
d="M383 0h-326v1425h326v-1425zM420 1425h192l-14 -483h-172z" />
    <glyph glyph-name="Ldot" unicode="&#x13f;" horiz-adv-x="727" 
d="M717 623h-260v313h260v-313zM66 0v1364h325v-1088h305l-32 -276h-598z" />
    <glyph glyph-name="ldot" unicode="&#x140;" horiz-adv-x="671" 
d="M694 692h-268v350h268v-350zM383 0h-326v1425h326v-1425z" />
    <glyph glyph-name="Lslash" unicode="&#x141;" horiz-adv-x="747" 
d="M-2 475v215l88 45v629h326v-461l141 72v-211l-141 -74v-414h305l-33 -276h-598v520z" />
    <glyph glyph-name="lslash" unicode="&#x142;" horiz-adv-x="450" 
d="M391 0h-325v668l-62 -35v215l62 35v542h325v-358l80 45v-211l-80 -45v-856z" />
    <glyph glyph-name="Nacute" unicode="&#x143;" horiz-adv-x="884" 
d="M354 0h-288v1364h340l98 -492q38 -202 45 -251h14q-18 167 -33.5 384t-15.5 310v49h305v-1364h-366l-82 545q-4 27 -19 125t-18 121h-17q37 -562 37 -758v-33zM463 1640h360l-274 -198h-266z" />
    <glyph glyph-name="nacute" unicode="&#x144;" horiz-adv-x="864" 
d="M57 0v793q0 257 -4 311h314q6 -34 10 -86q77 102 211 102q118 0 168.5 -71.5t50.5 -200.5v-848h-326v770q0 80 -45 80q-28 0 -40.5 -19.5t-12.5 -68.5v-762h-326zM467 1454h340l-266 -268h-254z" />
    <glyph glyph-name="uni0145" unicode="&#x145;" horiz-adv-x="884" 
d="M354 0h-288v1364h340l98 -492q38 -202 45 -251h14q-18 167 -33.5 384t-15.5 310v49h305v-1364h-366l-82 545q-4 27 -19 125t-18 121h-17q37 -562 37 -758v-33zM434 -408h-246q33 65 64 169t39 167h303q-13 -86 -64 -190t-96 -146z" />
    <glyph glyph-name="uni0146" unicode="&#x146;" horiz-adv-x="864" 
d="M57 0v793q0 257 -4 311h314q6 -34 10 -86q77 102 211 102q118 0 168.5 -71.5t50.5 -200.5v-848h-326v770q0 80 -45 80q-28 0 -40.5 -19.5t-12.5 -68.5v-762h-326zM436 -387h-246q33 65 64 169t39 167h303q-13 -86 -64 -190t-96 -146z" />
    <glyph glyph-name="Ncaron" unicode="&#x147;" horiz-adv-x="884" 
d="M354 0h-288v1364h340l98 -492q38 -202 45 -251h14q-18 167 -33.5 384t-15.5 310v49h305v-1364h-366l-82 545q-4 27 -19 125t-18 121h-17q37 -562 37 -758v-33zM584 1427h-289l-182 213h258l73 -90l68 90h262z" />
    <glyph glyph-name="ncaron" unicode="&#x148;" horiz-adv-x="864" 
d="M57 0v793q0 257 -4 311h314q6 -34 10 -86q77 102 211 102q118 0 168.5 -71.5t50.5 -200.5v-848h-326v770q0 80 -45 80q-28 0 -40.5 -19.5t-12.5 -68.5v-762h-326zM588 1180h-303l-183 254h258l74 -121l68 121h262z" />
    <glyph glyph-name="napostrophe" unicode="&#x149;" horiz-adv-x="864" 
d="M201 1165h-215q56 144 92 363h264q-16 -94 -56 -199.5t-85 -163.5zM57 0v793q0 257 -4 311h314q6 -34 10 -86q77 102 211 102q118 0 168.5 -71.5t50.5 -200.5v-848h-326v770q0 80 -45 80q-28 0 -40.5 -19.5t-12.5 -68.5v-762h-326z" />
    <glyph glyph-name="Omacron" unicode="&#x14c;" horiz-adv-x="868" 
d="M430 1384q173 0 277 -93t104 -283v-652q0 -199 -100.5 -287.5t-288.5 -88.5q-365 0 -365 376v668q0 181 101 270.5t272 89.5zM430 1128q-24 0 -35.5 -18.5t-11.5 -62.5v-730q0 -81 49 -81t49 81v732q0 45 -11.5 62t-39.5 17zM182 1657h504v-213h-504v213z" />
    <glyph glyph-name="omacron" unicode="&#x14d;" horiz-adv-x="847" 
d="M418 1120q381 0 381 -362v-416q0 -186 -100.5 -273t-280.5 -87q-369 0 -369 360v426q0 177 102 264.5t267 87.5zM424 874q-49 0 -49 -77v-482q0 -82 49 -82q28 0 38.5 21t10.5 61v484q0 75 -49 75zM172 1405h504v-213h-504v213z" />
    <glyph glyph-name="Ohungarumlaut" unicode="&#x150;" horiz-adv-x="868" 
d="M430 1384q173 0 277 -93t104 -283v-652q0 -199 -100.5 -287.5t-288.5 -88.5q-365 0 -365 376v668q0 181 101 270.5t272 89.5zM430 1128q-24 0 -35.5 -18.5t-11.5 -62.5v-730q0 -81 49 -81t49 81v732q0 45 -11.5 62t-39.5 17zM266 1640h281l-199 -198h-217zM608 1640h279
l-197 -198h-219z" />
    <glyph glyph-name="ohungarumlaut" unicode="&#x151;" horiz-adv-x="847" 
d="M418 1120q381 0 381 -362v-416q0 -186 -100.5 -273t-280.5 -87q-369 0 -369 360v426q0 177 102 264.5t267 87.5zM424 874q-49 0 -49 -77v-482q0 -82 49 -82q28 0 38.5 21t10.5 61v484q0 75 -49 75zM537 1434l-189 -269h-217l135 269h271zM877 1434l-187 -269h-219
l137 269h269z" />
    <glyph glyph-name="OE" unicode="&#x152;" horiz-adv-x="1103" 
d="M1049 1364v-268h-242v-275h229v-268h-229v-285h280l-36 -268h-433q-2 0 -31 -3t-76.5 -6t-94.5 -3q-89 0 -152 18t-103.5 51t-63.5 88.5t-31.5 119.5t-8.5 155v571q0 192 87.5 287.5t291.5 95.5q35 0 75 -2.5t67.5 -5t31.5 -2.5h439zM481 246v868q-16 4 -37 4
q-34 0 -47.5 -20.5t-13.5 -65.5v-684q0 -50 12 -77t51 -27q27 0 35 2z" />
    <glyph glyph-name="oe" unicode="&#x153;" horiz-adv-x="1247" 
d="M834 -18q-128 0 -211 57q-90 -57 -205 -57q-80 0 -144.5 19.5t-116 61.5t-80 116t-28.5 175v394q0 86 22.5 152.5t58 107t85.5 66.5t99 36t104 10q130 0 219 -65q87 65 203 65q176 0 272 -94t96 -276v-273h-411v-149q0 -99 45 -99q28 0 39.5 24.5t11.5 82.5v35h313v-31
q0 -165 -92.5 -261.5t-279.5 -96.5zM424 874q-49 0 -49 -77v-482q0 -82 49 -82q28 0 38.5 21t10.5 61v484q0 75 -49 75zM797 680h94v74v38.5t-1.5 30.5t-4.5 26t-8 17t-13 12t-20 3q-29 0 -38 -27t-9 -106v-68z" />
    <glyph glyph-name="Racute" unicode="&#x154;" horiz-adv-x="864" 
d="M66 0v1364h403q190 0 270 -89t80 -261v-49q0 -206 -131 -273q73 -33 99 -100.5t26 -218.5q0 -338 4 -373h-315q-19 34 -19 430q0 70 -6 99t-20.5 37.5t-50.5 8.5h-17v-575h-323zM391 1122v-305h25q42 0 59 21.5t17 83.5v108q0 56 -17 74t-65 18h-19zM446 1628h361
l-275 -198h-266z" />
    <glyph glyph-name="racute" unicode="&#x155;" horiz-adv-x="602" 
d="M580 1120v-379q-107 0 -152 -30t-45 -107v-604h-326v727q0 263 -4 377h314q10 -72 10 -137q24 67 77.5 109.5t125.5 43.5zM315 1454h340l-266 -268h-254z" />
    <glyph glyph-name="uni0156" unicode="&#x156;" horiz-adv-x="864" 
d="M66 0v1364h403q190 0 270 -89t80 -261v-49q0 -206 -131 -273q73 -33 99 -100.5t26 -218.5q0 -338 4 -373h-315q-19 34 -19 430q0 70 -6 99t-20.5 37.5t-50.5 8.5h-17v-575h-323zM391 1122v-305h25q42 0 59 21.5t17 83.5v108q0 56 -17 74t-65 18h-19zM444 -408h-245
q33 65 63.5 168.5t38.5 167.5h303q-13 -86 -64 -190t-96 -146z" />
    <glyph glyph-name="uni0157" unicode="&#x157;" horiz-adv-x="602" 
d="M580 1120v-379q-107 0 -152 -30t-45 -107v-604h-326v727q0 263 -4 377h314q10 -72 10 -137q24 67 77.5 109.5t125.5 43.5zM215 -397h-246q33 65 64 169t39 167h303q-13 -86 -64 -190t-96 -146z" />
    <glyph glyph-name="Rcaron" unicode="&#x158;" horiz-adv-x="864" 
d="M66 0v1364h403q190 0 270 -89t80 -261v-49q0 -206 -131 -273q73 -33 99 -100.5t26 -218.5q0 -338 4 -373h-315q-19 34 -19 430q0 70 -6 99t-20.5 37.5t-50.5 8.5h-17v-575h-323zM391 1122v-305h25q42 0 59 21.5t17 83.5v108q0 56 -17 74t-65 18h-19zM573 1427h-288
l-183 213h258l74 -90l68 90h262z" />
    <glyph glyph-name="rcaron" unicode="&#x159;" horiz-adv-x="602" 
d="M580 1120v-379q-107 0 -152 -30t-45 -107v-604h-326v727q0 263 -4 377h314q10 -72 10 -137q24 67 77.5 109.5t125.5 43.5zM446 1182h-303l-182 254h258l74 -121l67 121h263z" />
    <glyph glyph-name="Sacute" unicode="&#x15a;" horiz-adv-x="815" 
d="M51 446h309v-110q0 -59 11 -81t35 -22q38 0 38 80q0 79 -22.5 121.5t-114.5 128.5q-60 56 -90.5 87t-66 74.5t-51 80t-26 85t-10.5 107.5q0 387 347 387q84 0 147 -20.5t99.5 -53.5t58.5 -82t29.5 -97t7.5 -109v-84h-287v104q0 51 -9.5 69.5t-33.5 18.5q-39 0 -39 -81
q0 -56 20 -91t95 -102q67 -59 101.5 -92.5t74 -80.5t57 -86.5t29.5 -92.5t12 -117q0 -99 -16.5 -170t-56.5 -126.5t-112.5 -83t-178.5 -27.5q-188 0 -272.5 97.5t-84.5 287.5v81zM428 1640h360l-274 -198h-266z" />
    <glyph glyph-name="sacute" unicode="&#x15b;" horiz-adv-x="770" 
d="M35 371h291v-54q0 -53 10.5 -77.5t36.5 -24.5q37 0 37 64q0 46 -22.5 76.5t-108.5 84.5q-139 88 -188.5 162t-49.5 195q0 161 86.5 242t253.5 81q74 0 131.5 -13t93 -38t59.5 -54t35 -68t15 -71t4 -73v-55h-283v61q0 51 -8.5 69.5t-32.5 18.5q-41 0 -41 -68q0 -33 25 -58
t94 -66q149 -89 205.5 -174t56.5 -193q0 -87 -15.5 -149t-54 -110.5t-109.5 -72.5t-175 -24q-68 0 -122 12t-90 31t-62 49.5t-39.5 59t-21 69t-9.5 70.5t-2 71v27zM420 1454h340l-266 -268h-254z" />
    <glyph glyph-name="Scircumflex" unicode="&#x15c;" horiz-adv-x="815" 
d="M51 446h309v-110q0 -59 11 -81t35 -22q38 0 38 80q0 79 -22.5 121.5t-114.5 128.5q-60 56 -90.5 87t-66 74.5t-51 80t-26 85t-10.5 107.5q0 387 347 387q84 0 147 -20.5t99.5 -53.5t58.5 -82t29.5 -97t7.5 -109v-84h-287v104q0 51 -9.5 69.5t-33.5 18.5q-39 0 -39 -81
q0 -56 20 -91t95 -102q67 -59 101.5 -92.5t74 -80.5t57 -86.5t29.5 -92.5t12 -117q0 -99 -16.5 -170t-56.5 -126.5t-112.5 -83t-178.5 -27.5q-188 0 -272.5 97.5t-84.5 287.5v81zM268 1640h289l182 -213h-258l-73 91l-68 -91h-262z" />
    <glyph glyph-name="scircumflex" unicode="&#x15d;" horiz-adv-x="770" 
d="M35 371h291v-54q0 -53 10.5 -77.5t36.5 -24.5q37 0 37 64q0 46 -22.5 76.5t-108.5 84.5q-139 88 -188.5 162t-49.5 195q0 161 86.5 242t253.5 81q74 0 131.5 -13t93 -38t59.5 -54t35 -68t15 -71t4 -73v-55h-283v61q0 51 -8.5 69.5t-32.5 18.5q-41 0 -41 -68q0 -33 25 -58
t94 -66q149 -89 205.5 -174t56.5 -193q0 -87 -15.5 -149t-54 -110.5t-109.5 -72.5t-175 -24q-68 0 -122 12t-90 31t-62 49.5t-39.5 59t-21 69t-9.5 70.5t-2 71v27zM231 1425h318l168 -254h-258l-74 121l-68 -121h-262z" />
    <glyph glyph-name="uni015E" unicode="&#x15e;" horiz-adv-x="815" 
d="M51 446h309v-110q0 -59 11 -81t35 -22q38 0 38 80q0 79 -22.5 121.5t-114.5 128.5q-60 56 -90.5 87t-66 74.5t-51 80t-26 85t-10.5 107.5q0 387 347 387q84 0 147 -20.5t99.5 -53.5t58.5 -82t29.5 -97t7.5 -109v-84h-287v104q0 51 -9.5 69.5t-33.5 18.5q-39 0 -39 -81
q0 -56 20 -91t95 -102q67 -59 101.5 -92.5t74 -80.5t57 -86.5t29.5 -92.5t12 -117q0 -86 -13 -151t-43 -118.5t-83.5 -86.5t-130.5 -45l-17 -27q136 -46 136 -166q0 -88 -60 -138t-160 -50q-121 0 -200 39l51 155q44 -22 90 -22q43 0 43 22q0 41 -125 54v47l49 88
q-134 24 -196 119t-62 258v81z" />
    <glyph glyph-name="uni015F" unicode="&#x15f;" horiz-adv-x="770" 
d="M35 371h291v-54q0 -53 10.5 -77.5t36.5 -24.5q37 0 37 64q0 46 -22.5 76.5t-108.5 84.5q-139 88 -188.5 162t-49.5 195q0 161 86.5 242t253.5 81q74 0 131.5 -13t93 -38t59.5 -54t35 -68t15 -71t4 -73v-55h-283v61q0 51 -8.5 69.5t-32.5 18.5q-41 0 -41 -68q0 -33 25 -58
t94 -66q149 -89 205.5 -174t56.5 -193q0 -79 -12.5 -136.5t-43 -104.5t-86 -75t-136.5 -36l-11 -17q136 -46 136 -166q0 -88 -60 -138t-160 -50q-121 0 -200 39l51 156q46 -23 90 -23q43 0 43 23q0 40 -125 53v47l45 82q-52 10 -92 30.5t-64.5 49.5t-40 59t-23 70t-9.5 70.5
t-2 72.5v27z" />
    <glyph glyph-name="Scaron" unicode="&#x160;" horiz-adv-x="815" 
d="M51 446h309v-110q0 -59 11 -81t35 -22q38 0 38 80q0 79 -22.5 121.5t-114.5 128.5q-60 56 -90.5 87t-66 74.5t-51 80t-26 85t-10.5 107.5q0 387 347 387q84 0 147 -20.5t99.5 -53.5t58.5 -82t29.5 -97t7.5 -109v-84h-287v104q0 51 -9.5 69.5t-33.5 18.5q-39 0 -39 -81
q0 -56 20 -91t95 -102q67 -59 101.5 -92.5t74 -80.5t57 -86.5t29.5 -92.5t12 -117q0 -99 -16.5 -170t-56.5 -126.5t-112.5 -83t-178.5 -27.5q-188 0 -272.5 97.5t-84.5 287.5v81zM549 1440h-289l-182 213h258l74 -90l67 90h262z" />
    <glyph glyph-name="scaron" unicode="&#x161;" horiz-adv-x="770" 
d="M35 371h291v-54q0 -53 10.5 -77.5t36.5 -24.5q37 0 37 64q0 46 -22.5 76.5t-108.5 84.5q-139 88 -188.5 162t-49.5 195q0 161 86.5 242t253.5 81q74 0 131.5 -13t93 -38t59.5 -54t35 -68t15 -71t4 -73v-55h-283v61q0 51 -8.5 69.5t-32.5 18.5q-41 0 -41 -68q0 -33 25 -58
t94 -66q149 -89 205.5 -174t56.5 -193q0 -87 -15.5 -149t-54 -110.5t-109.5 -72.5t-175 -24q-68 0 -122 12t-90 31t-62 49.5t-39.5 59t-21 69t-9.5 70.5t-2 71v27zM541 1180h-303l-183 254h258l74 -121l68 121h262z" />
    <glyph glyph-name="uni0162" unicode="&#x162;" horiz-adv-x="700" 
d="M188 0v1096h-161v268h647v-268h-162v-1096h-59l-25 -41q135 -46 135 -166q0 -88 -59.5 -138t-159.5 -50q-122 0 -201 39l52 155q44 -22 90 -22q43 0 43 22q0 41 -125 54v47l57 100h-72z" />
    <glyph glyph-name="uni0163" unicode="&#x163;" horiz-adv-x="567" 
d="M4 813v291h100v227h320v-227h111v-291h-111v-477q0 -39 11.5 -52.5t51.5 -13.5q21 0 33 2v-262q-43 -14 -123 -18l-20 -33q135 -46 135 -166q0 -88 -59.5 -138t-159.5 -50q-122 0 -201 39l51 155q44 -22 90 -22q43 0 43 22q0 41 -124 54v47l61 108q-66 24 -91.5 82.5
t-25.5 165.5v557h-92z" />
    <glyph glyph-name="Tcaron" unicode="&#x164;" horiz-adv-x="700" 
d="M188 0v1096h-161v268h647v-268h-162v-1096h-324zM492 1427h-289l-183 213h259l73 -90l68 90h262z" />
    <glyph glyph-name="tcaron" unicode="&#x165;" horiz-adv-x="567" 
d="M492 1585h213l-21 -399h-195zM4 813v291h100v227h320v-227h111v-291h-111v-477q0 -39 11.5 -52.5t51.5 -13.5q21 0 33 2v-262q-68 -20 -184 -20q-140 0 -190 61t-50 205v557h-92z" />
    <glyph glyph-name="Utilde" unicode="&#x168;" horiz-adv-x="876" 
d="M61 1364h330v-1053q0 -75 43 -75q27 0 37 17.5t10 57.5v1053h334v-1012q0 -107 -24.5 -179t-75 -113.5t-119 -58.5t-166.5 -17q-196 0 -282.5 87t-86.5 287v1006zM332 1434h-193v49q-1 116 41.5 159.5t116.5 43.5q61 0 141 -25t94 -25q21 0 21 29v12h186v-53
q0 -60 -11 -100.5t-33 -60.5t-46 -28t-57 -8q-52 0 -134.5 27t-105.5 27q-20 0 -20 -29v-18z" />
    <glyph glyph-name="utilde" unicode="&#x169;" horiz-adv-x="864" 
d="M807 1104v-717q0 -321 4 -387h-315q-6 29 -11 86q-76 -104 -211 -104q-46 0 -82 12t-68 41t-49.5 86t-17.5 139v844h326v-776q0 -76 47 -76q30 0 40.5 22t10.5 76v754h326zM326 1167h-174v54q-1 116 40 162.5t113 46.5q43 0 89 -17.5t81 -35t51 -17.5q6 0 10 1.5
t7.5 10.5t3.5 25v24h166v-43q0 -123 -35.5 -170t-102.5 -47q-52 0 -129 37t-100 37q-12 0 -16 -11t-4 -38v-19z" />
    <glyph glyph-name="Umacron" unicode="&#x16a;" horiz-adv-x="876" 
d="M61 1364h330v-1053q0 -75 43 -75q27 0 37 17.5t10 57.5v1053h334v-1012q0 -107 -24.5 -179t-75 -113.5t-119 -58.5t-166.5 -17q-196 0 -282.5 87t-86.5 287v1006zM186 1647h504v-213h-504v213z" />
    <glyph glyph-name="umacron" unicode="&#x16b;" horiz-adv-x="864" 
d="M807 1104v-717q0 -321 4 -387h-315q-6 29 -11 86q-76 -104 -211 -104q-46 0 -82 12t-68 41t-49.5 86t-17.5 139v844h326v-776q0 -76 47 -76q30 0 40.5 22t10.5 76v754h326zM180 1405h504v-213h-504v213z" />
    <glyph glyph-name="Ubreve" unicode="&#x16c;" horiz-adv-x="876" 
d="M61 1364h330v-1053q0 -75 43 -75q27 0 37 17.5t10 57.5v1053h334v-1012q0 -107 -24.5 -179t-75 -113.5t-119 -58.5t-166.5 -17q-196 0 -282.5 87t-86.5 287v1006zM145 1667h234q7 -59 61 -59t58 59h235q-3 -32 -13.5 -64t-33.5 -65.5t-55.5 -59t-83.5 -41.5t-113 -16
q-71 0 -127.5 23.5t-89.5 61.5t-51 79t-21 82z" />
    <glyph glyph-name="ubreve" unicode="&#x16d;" horiz-adv-x="864" 
d="M807 1104v-717q0 -321 4 -387h-315q-6 29 -11 86q-76 -104 -211 -104q-46 0 -82 12t-68 41t-49.5 86t-17.5 139v844h326v-776q0 -76 47 -76q30 0 40.5 22t10.5 76v754h326zM139 1409h234q7 -59 61 -59t58 59h235q-3 -32 -13.5 -64t-33.5 -65.5t-55.5 -59t-83.5 -41.5
t-113 -16q-71 0 -127.5 23.5t-89.5 61.5t-51 79t-21 82z" />
    <glyph glyph-name="Uring" unicode="&#x16e;" horiz-adv-x="876" 
d="M61 1364h330v-1053q0 -75 43 -75q27 0 37 17.5t10 57.5v1053h334v-1012q0 -107 -24.5 -179t-75 -113.5t-119 -58.5t-166.5 -17q-196 0 -282.5 87t-86.5 287v1006zM438 1415q-86 0 -139 53.5t-53 137.5t51 140t137 56q88 0 143.5 -54.5t55.5 -139.5q0 -88 -55.5 -140.5
t-139.5 -52.5zM440 1538q28 0 45 19.5t17 48.5q0 31 -16 51t-46 20t-45.5 -20t-15.5 -49t16.5 -49.5t44.5 -20.5z" />
    <glyph glyph-name="uring" unicode="&#x16f;" horiz-adv-x="864" 
d="M807 1104v-717q0 -321 4 -387h-315q-6 29 -11 86q-76 -104 -211 -104q-46 0 -82 12t-68 41t-49.5 86t-17.5 139v844h326v-776q0 -76 47 -76q30 0 40.5 22t10.5 76v754h326zM432 1155q-86 0 -139 53.5t-53 137.5t51 140t137 56q88 0 143.5 -54.5t55.5 -139.5
q0 -88 -55.5 -140.5t-139.5 -52.5zM434 1278q28 0 45 19.5t17 48.5q0 31 -16 51t-46 20t-45.5 -20t-15.5 -49t16.5 -49.5t44.5 -20.5z" />
    <glyph glyph-name="Uhungarumlaut" unicode="&#x170;" horiz-adv-x="876" 
d="M61 1364h330v-1053q0 -75 43 -75q27 0 37 17.5t10 57.5v1053h334v-1012q0 -107 -24.5 -179t-75 -113.5t-119 -58.5t-166.5 -17q-196 0 -282.5 87t-86.5 287v1006zM283 1640h280l-198 -198h-218zM625 1640h278l-196 -198h-220z" />
    <glyph glyph-name="uhungarumlaut" unicode="&#x171;" horiz-adv-x="864" 
d="M807 1104v-717q0 -321 4 -387h-315q-6 29 -11 86q-76 -104 -211 -104q-46 0 -82 12t-68 41t-49.5 86t-17.5 139v844h326v-776q0 -76 47 -76q30 0 40.5 22t10.5 76v754h326zM545 1434l-189 -269h-217l135 269h271zM885 1434l-187 -269h-219l137 269h269z" />
    <glyph glyph-name="Uogonek" unicode="&#x172;" horiz-adv-x="876" 
d="M61 1364h330v-1053q0 -75 43 -75q27 0 37 17.5t10 57.5v1053h334v-1012q0 -139 -42.5 -219.5t-127.5 -116.5q-70 -60 -70 -106q0 -21 11.5 -34t44.5 -13q19 0 51 4v-201q-57 -22 -160 -22q-62 0 -108.5 18t-70 46.5t-34 57.5t-10.5 58q0 93 61 162q-157 14 -228 101.5
t-71 270.5v1006z" />
    <glyph glyph-name="uogonek" unicode="&#x173;" horiz-adv-x="864" 
d="M537 0h-41q-6 29 -11 86q-76 -104 -211 -104q-46 0 -82 12t-68 41t-49.5 86t-17.5 139v844h326v-776q0 -76 47 -76q30 0 40.5 22t10.5 76v754h326v-717q0 -321 4 -387h-20q-72 -59 -72 -109q0 -22 11 -34.5t44 -12.5q19 0 51 4v-200q-60 -23 -159 -23q-62 0 -108.5 18
t-70 46.5t-34.5 57.5t-11 58q0 47 16.5 88t34.5 62t44 45z" />
    <glyph glyph-name="Wcircumflex" unicode="&#x174;" horiz-adv-x="1085" 
d="M487 0h-358l-96 1364h338q1 -75 8.5 -420t7.5 -407h19q8 103 18 406.5t16 420.5h236q2 -47 9.5 -375.5t16.5 -458.5h23q1 69 6 278.5t8 364t2 191.5h312l-121 -1364h-348q-2 31 -9.5 129t-14 202t-11.5 218h-19q-8 -129 -23.5 -301t-19.5 -248zM403 1640h289l182 -213
h-258l-73 91l-68 -91h-262z" />
    <glyph glyph-name="wcircumflex" unicode="&#x175;" horiz-adv-x="1214" 
d="M4 1104h356q4 -64 15.5 -231t20.5 -303.5t10 -157.5h14q27 307 45 692h309q5 -104 24.5 -360t24.5 -334h17q12 154 41 694h331l-184 -1104h-354q-41 411 -60 530h-14q-1 -12 -74 -530h-346zM453 1430h317l168 -254h-258l-74 120l-67 -120h-263z" />
    <glyph glyph-name="Ycircumflex" unicode="&#x176;" horiz-adv-x="780" 
d="M551 0h-324v365q0 48 -12 110l-211 889h346q3 -49 17 -246.5t20 -314.5h21q6 85 24 289.5t23 271.5h321l-215 -913q-10 -48 -10 -66v-385zM250 1640h289l182 -213h-258l-74 91l-67 -91h-263z" />
    <glyph glyph-name="ycircumflex" unicode="&#x177;" horiz-adv-x="782" 
d="M-23 1104h355q55 -554 59 -694h17q16 294 51 694h342q-19 -77 -91.5 -447.5t-129.5 -623.5q-34 -152 -45 -186q-38 -112 -118 -155q-72 -38 -194 -38q-83 0 -155 10v264q46 -4 55 -4q91 0 96 37zM238 1440h317l168 -254h-258l-74 121l-67 -121h-263z" />
    <glyph glyph-name="Ydieresis" unicode="&#x178;" horiz-adv-x="780" 
d="M551 0h-324v365q0 48 -12 110l-211 889h346q3 -49 17 -246.5t20 -314.5h21q6 85 24 289.5t23 271.5h321l-215 -913q-10 -48 -10 -66v-385zM352 1440h-258v254h258v-254zM684 1440h-258v254h258v-254z" />
    <glyph glyph-name="Zacute" unicode="&#x179;" horiz-adv-x="743" 
d="M23 0v219l323 873h-291v272h625v-236l-299 -856h309l-35 -272h-632zM391 1632h361l-275 -198h-266z" />
    <glyph glyph-name="zacute" unicode="&#x17a;" horiz-adv-x="698" 
d="M18 0v231q216 445 281 582h-264v291h637v-230q-7 -18 -55.5 -123t-116.5 -251.5t-97 -208.5h277l-25 -291h-637zM385 1442h340l-266 -268h-254z" />
    <glyph glyph-name="Zdotaccent" unicode="&#x17b;" horiz-adv-x="743" 
d="M23 0v219l323 873h-291v272h625v-236l-299 -856h309l-35 -272h-632zM543 1440h-342v254h342v-254z" />
    <glyph glyph-name="zdotaccent" unicode="&#x17c;" horiz-adv-x="698" 
d="M18 0v231q216 445 281 582h-264v291h637v-230q-7 -18 -55.5 -123t-116.5 -251.5t-97 -208.5h277l-25 -291h-637zM520 1171h-342v254h342v-254z" />
    <glyph glyph-name="Zcaron" unicode="&#x17d;" horiz-adv-x="743" 
d="M23 0v219l323 873h-291v272h625v-236l-299 -856h309l-35 -272h-632zM512 1427h-289l-182 213h258l74 -90l67 90h262z" />
    <glyph glyph-name="zcaron" unicode="&#x17e;" horiz-adv-x="698" 
d="M18 0v231q216 445 281 582h-264v291h637v-230q-7 -18 -55.5 -123t-116.5 -251.5t-97 -208.5h277l-25 -291h-637zM514 1180h-303l-182 254h258l73 -121l68 121h262z" />
    <glyph glyph-name="uni018F" unicode="&#x18f;" horiz-adv-x="851" 
d="M369 954h-320v58q0 63 9 114t34.5 100.5t66.5 83t109 54t158 20.5q377 0 377 -389v-618q0 -111 -28.5 -190t-82 -123.5t-121 -64t-155.5 -19.5q-176 0 -271.5 91.5t-95.5 301.5v428h424v246q0 40 -9.5 60.5t-39.5 20.5q-29 0 -42 -19t-13 -62v-93zM473 528h-98v-198
q0 -94 45 -94q28 0 40.5 22.5t12.5 71.5v198z" />
    <glyph glyph-name="florin" unicode="&#x192;" horiz-adv-x="792" 
d="M766 1356l-43 -252q-27 8 -64 8q-50 0 -59 -68l-18 -143h125v-227h-156l-51 -391q-14 -105 -28.5 -172t-36 -118.5t-53.5 -78t-76 -39t-109 -12.5q-112 0 -195 31l39 260q37 -11 74 -11q25 0 37.5 21t19.5 76l57 434h-106v227h137l14 115q9 65 20.5 114t34.5 99t55 82
t82.5 52.5t115.5 20.5q117 0 184 -28z" />
    <glyph glyph-name="Ohorn" unicode="&#x1a0;" horiz-adv-x="868" 
d="M430 1384q110 0 184 -32q11 26 11 57q0 22 -17 88h246q12 -40 12 -102q0 -144 -86 -211q31 -76 31 -176v-652q0 -199 -100.5 -287.5t-288.5 -88.5q-365 0 -365 376v668q0 181 101 270.5t272 89.5zM430 1128q-24 0 -35.5 -18.5t-11.5 -62.5v-730q0 -81 49 -81t49 81v732
q0 45 -11.5 62t-39.5 17z" />
    <glyph glyph-name="ohorn" unicode="&#x1a1;" horiz-adv-x="847" 
d="M418 1120q101 0 178 -26q6 21 6 49q0 26 -16 88h245q13 -44 13 -103q0 -134 -74 -200q29 -76 29 -170v-416q0 -186 -100.5 -273t-280.5 -87q-369 0 -369 360v426q0 177 102 264.5t267 87.5zM424 874q-49 0 -49 -77v-482q0 -82 49 -82q28 0 38.5 21t10.5 61v484
q0 75 -49 75z" />
    <glyph glyph-name="Uhorn" unicode="&#x1af;" horiz-adv-x="876" 
d="M61 1364h330v-1053q0 -75 43 -75q27 0 37 17.5t10 57.5v1053h162q23 30 23 80q0 22 -17 88h246q12 -41 12 -102q0 -154 -92 -216v-862q0 -107 -24.5 -179t-75 -113.5t-119 -58.5t-166.5 -17q-196 0 -282.5 87t-86.5 287v1006z" />
    <glyph glyph-name="uhorn" unicode="&#x1b0;" horiz-adv-x="864" 
d="M485 86q-76 -104 -211 -104q-46 0 -82 12t-68 41t-49.5 86t-17.5 139v844h326v-776q0 -76 47 -76q30 0 40.5 22t10.5 76v754h152q22 28 22 80q0 26 -16 88h246q12 -40 12 -103q0 -151 -90 -213v-569q0 -321 4 -387h-315q-6 29 -11 86z" />
    <glyph glyph-name="uni01CD" unicode="&#x1cd;" horiz-adv-x="851" 
d="M477 287h-106l-17 -287h-331l145 1364h518l143 -1364h-335zM383 557h80q-16 273 -37 535h-14q-1 -28 -13.5 -247t-15.5 -288zM567 1419h-288l-183 213h258l74 -90l68 90h262z" />
    <glyph glyph-name="uni01CE" unicode="&#x1ce;" horiz-adv-x="843" 
d="M786 829v-546q0 -182 11 -283h-312q-11 18 -18 86q-63 -100 -199 -100q-81 0 -135.5 46t-77 116.5t-22.5 162.5v23q0 85 22 149t58.5 103t90.5 63.5t110.5 33.5t125.5 9h17v123q0 43 -10 58.5t-33 15.5t-33 -18t-10 -66v-45h-305v28q0 178 91.5 255t272.5 77
q356 0 356 -291zM457 334v151h-15q-84 0 -84 -123v-8q0 -59 13.5 -82.5t38.5 -23.5q47 0 47 86zM578 1190h-304l-182 254h258l74 -121l68 121h262z" />
    <glyph glyph-name="uni01CF" unicode="&#x1cf;" horiz-adv-x="458" 
d="M68 1364h323v-1364h-323v1364zM371 1427h-289l-182 213h258l73 -90l68 90h262z" />
    <glyph glyph-name="uni01D0" unicode="&#x1d0;" horiz-adv-x="440" 
d="M57 0v1104h326v-1104h-326zM375 1169h-303l-183 254h258l74 -120l68 120h262z" />
    <glyph glyph-name="uni01D1" unicode="&#x1d1;" horiz-adv-x="868" 
d="M430 1384q173 0 277 -93t104 -283v-652q0 -199 -100.5 -287.5t-288.5 -88.5q-365 0 -365 376v668q0 181 101 270.5t272 89.5zM430 1128q-24 0 -35.5 -18.5t-11.5 -62.5v-730q0 -81 49 -81t49 81v732q0 45 -11.5 62t-39.5 17zM575 1442h-288l-183 213h258l74 -90l68 90
h262z" />
    <glyph glyph-name="uni01D2" unicode="&#x1d2;" horiz-adv-x="847" 
d="M418 1120q381 0 381 -362v-416q0 -186 -100.5 -273t-280.5 -87q-369 0 -369 360v426q0 177 102 264.5t267 87.5zM424 874q-49 0 -49 -77v-482q0 -82 49 -82q28 0 38.5 21t10.5 61v484q0 75 -49 75zM580 1180h-304l-182 254h258l74 -121l68 121h262z" />
    <glyph glyph-name="uni01D3" unicode="&#x1d3;" horiz-adv-x="876" 
d="M61 1364h330v-1053q0 -75 43 -75q27 0 37 17.5t10 57.5v1053h334v-1012q0 -107 -24.5 -179t-75 -113.5t-119 -58.5t-166.5 -17q-196 0 -282.5 87t-86.5 287v1006zM580 1427h-289l-182 213h258l73 -90l68 90h262z" />
    <glyph glyph-name="uni01D4" unicode="&#x1d4;" horiz-adv-x="864" 
d="M807 1104v-717q0 -321 4 -387h-315q-6 29 -11 86q-76 -104 -211 -104q-46 0 -82 12t-68 41t-49.5 86t-17.5 139v844h326v-776q0 -76 47 -76q30 0 40.5 22t10.5 76v754h326zM588 1180h-303l-183 254h258l74 -121l68 121h262z" />
    <glyph glyph-name="uni01D5" unicode="&#x1d5;" horiz-adv-x="876" 
d="M61 1364h330v-1053q0 -75 43 -75q27 0 37 17.5t10 57.5v1053h334v-1012q0 -107 -24.5 -179t-75 -113.5t-119 -58.5t-166.5 -17q-196 0 -282.5 87t-86.5 287v1006zM717 1671h-553v168h553v-168zM399 1423h-249v199h249v-199zM729 1423h-250v199h250v-199z" />
    <glyph glyph-name="uni01D6" unicode="&#x1d6;" horiz-adv-x="864" 
d="M807 1104v-717q0 -321 4 -387h-315q-6 29 -11 86q-76 -104 -211 -104q-46 0 -82 12t-68 41t-49.5 86t-17.5 139v844h326v-776q0 -76 47 -76q30 0 40.5 22t10.5 76v754h326zM711 1440h-553v176h553v-176zM393 1163h-258v213h258v-213zM731 1163h-258v213h258v-213z" />
    <glyph glyph-name="uni01D7" unicode="&#x1d7;" horiz-adv-x="876" 
d="M61 1364h330v-1053q0 -75 43 -75q27 0 37 17.5t10 57.5v1053h334v-1012q0 -107 -24.5 -179t-75 -113.5t-119 -58.5t-166.5 -17q-196 0 -282.5 87t-86.5 287v1006zM553 1681h-246l164 174h320zM141 1636h258v-213h-258v213zM737 1423h-258v213h258v-213z" />
    <glyph glyph-name="uni01D8" unicode="&#x1d8;" horiz-adv-x="864" 
d="M807 1104v-717q0 -321 4 -387h-315q-6 29 -11 86q-76 -104 -211 -104q-46 0 -82 12t-68 41t-49.5 86t-17.5 139v844h326v-776q0 -76 47 -76q30 0 40.5 22t10.5 76v754h326zM545 1421h-238l146 195h319zM393 1163h-258v213h258v-213zM731 1163h-258v213h258v-213z" />
    <glyph glyph-name="uni01D9" unicode="&#x1d9;" horiz-adv-x="876" 
d="M61 1364h330v-1053q0 -75 43 -75q27 0 37 17.5t10 57.5v1053h334v-1012q0 -107 -24.5 -179t-75 -113.5t-119 -58.5t-166.5 -17q-196 0 -282.5 87t-86.5 287v1006zM618 1679h-356l-160 176h267l67 -81l66 81h272zM399 1423h-258v213h258v-213zM737 1423h-258v213h258v-213
z" />
    <glyph glyph-name="uni01DA" unicode="&#x1da;" horiz-adv-x="864" 
d="M807 1104v-717q0 -321 4 -387h-315q-6 29 -11 86q-76 -104 -211 -104q-46 0 -82 12t-68 41t-49.5 86t-17.5 139v844h326v-776q0 -76 47 -76q30 0 40.5 22t10.5 76v754h326zM573 1425h-286l-185 191h258l72 -84l70 84h262zM393 1163h-258v213h258v-213zM731 1163h-258v213
h258v-213z" />
    <glyph glyph-name="uni01DB" unicode="&#x1db;" horiz-adv-x="876" 
d="M61 1364h330v-1053q0 -75 43 -75q27 0 37 17.5t10 57.5v1053h334v-1012q0 -107 -24.5 -179t-75 -113.5t-119 -58.5t-166.5 -17q-196 0 -282.5 87t-86.5 287v1006zM569 1681h-245l-238 174h320zM141 1636h258v-213h-258v213zM737 1423h-258v213h258v-213z" />
    <glyph glyph-name="uni01DC" unicode="&#x1dc;" horiz-adv-x="864" 
d="M807 1104v-717q0 -321 4 -387h-315q-6 29 -11 86q-76 -104 -211 -104q-46 0 -82 12t-68 41t-49.5 86t-17.5 139v844h326v-776q0 -76 47 -76q30 0 40.5 22t10.5 76v754h326zM571 1421h-237l-228 195h320zM393 1163h-258v213h258v-213zM731 1163h-258v213h258v-213z" />
    <glyph glyph-name="Gcaron" unicode="&#x1e6;" horiz-adv-x="868" 
d="M811 801v-801h-233q-8 30 -13 106q-58 -126 -231 -126q-66 0 -116 20.5t-80 54t-48.5 84t-25.5 102.5t-7 117v666q0 58 11 108.5t38.5 97.5t69 80.5t106.5 53.5t148 20q97 0 169.5 -26.5t112 -65.5t63 -93t30 -97.5t6.5 -91.5v-88h-330v104q0 57 -9 79.5t-40 22.5
q-28 0 -38.5 -23.5t-10.5 -82.5v-705q0 -27 4.5 -44.5t13 -25t15 -9.5t16.5 -2q25 0 38 21.5t13 76.5v198h-53v269h381zM575 1438h-288l-183 213h258l74 -90l68 90h262z" />
    <glyph glyph-name="gcaron" unicode="&#x1e7;" horiz-adv-x="856" 
d="M799 739v-616q0 -70 -2.5 -118t-11.5 -102.5t-25.5 -89.5t-45.5 -69.5t-70.5 -54t-101 -31.5t-136.5 -12q-174 0 -263.5 79.5t-89.5 223.5v8h326v-4q0 -64 47 -64q35 0 45 27t10 102v140q-52 -123 -194 -123q-238 0 -238 325v445q0 315 242 315q147 0 188 -108
q4 67 10 92h314q-4 -140 -4 -365zM375 772v-383q0 -44 10.5 -62t34.5 -18q53 0 53 82v385q0 72 -47 72q-51 0 -51 -76zM596 1182h-303l-182 254h258l73 -121l68 121h262z" />
    <glyph glyph-name="uni0218" unicode="&#x218;" horiz-adv-x="815" 
d="M51 446h309v-110q0 -59 11 -81t35 -22q38 0 38 80q0 79 -22.5 121.5t-114.5 128.5q-60 56 -90.5 87t-66 74.5t-51 80t-26 85t-10.5 107.5q0 387 347 387q84 0 147 -20.5t99.5 -53.5t58.5 -82t29.5 -97t7.5 -109v-84h-287v104q0 51 -9.5 69.5t-33.5 18.5q-39 0 -39 -81
q0 -56 20 -91t95 -102q67 -59 101.5 -92.5t74 -80.5t57 -86.5t29.5 -92.5t12 -117q0 -99 -16.5 -170t-56.5 -126.5t-112.5 -83t-178.5 -27.5q-188 0 -272.5 97.5t-84.5 287.5v81zM420 -408h-246q33 65 63.5 168.5t38.5 167.5h304q-13 -86 -64 -190t-96 -146z" />
    <glyph glyph-name="uni0219" unicode="&#x219;" horiz-adv-x="770" 
d="M35 371h291v-54q0 -53 10.5 -77.5t36.5 -24.5q37 0 37 64q0 46 -22.5 76.5t-108.5 84.5q-139 88 -188.5 162t-49.5 195q0 161 86.5 242t253.5 81q74 0 131.5 -13t93 -38t59.5 -54t35 -68t15 -71t4 -73v-55h-283v61q0 51 -8.5 69.5t-32.5 18.5q-41 0 -41 -68q0 -33 25 -58
t94 -66q149 -89 205.5 -174t56.5 -193q0 -87 -15.5 -149t-54 -110.5t-109.5 -72.5t-175 -24q-68 0 -122 12t-90 31t-62 49.5t-39.5 59t-21 69t-9.5 70.5t-2 71v27zM377 -408h-246q33 65 63.5 168.5t38.5 167.5h304q-13 -86 -64 -190t-96 -146z" />
    <glyph glyph-name="uni021A" unicode="&#x21a;" horiz-adv-x="700" 
d="M188 0v1096h-161v268h647v-268h-162v-1096h-324zM342 -408h-246q33 65 64 169t39 167h303q-13 -86 -64 -190t-96 -146z" />
    <glyph glyph-name="uni021B" unicode="&#x21b;" horiz-adv-x="567" 
d="M4 813v291h100v227h320v-227h111v-291h-111v-477q0 -39 11.5 -52.5t51.5 -13.5q21 0 33 2v-262q-68 -20 -184 -20q-140 0 -190 61t-50 205v557h-92zM315 -408h-245q33 65 63.5 168.5t38.5 167.5h303q-13 -86 -64 -190t-96 -146z" />
    <glyph glyph-name="uni0237" unicode="&#x237;" horiz-adv-x="446" 
d="M61 1104h326v-985v-34q0 -66 -0.5 -99t-6.5 -88.5t-17.5 -84t-34 -66.5t-56 -56t-84.5 -31.5t-118 -13.5q-51 0 -109 10v270h39q32 0 46.5 13t14.5 47v1118z" />
    <glyph glyph-name="uni0251" unicode="&#x251;" horiz-adv-x="856" 
d="M494 1104h305v-801q0 -193 8 -303h-305q-12 51 -15 94q-39 -63 -89.5 -87.5t-123.5 -24.5q-225 0 -225 311v479q0 348 256 348q59 0 106 -21t68 -61q8 44 15 66zM375 766v-436q0 -78 49 -78t49 80v432q0 47 -11 66.5t-38 19.5q-49 0 -49 -84z" />
    <glyph glyph-name="uni0259" unicode="&#x259;" horiz-adv-x="829" 
d="M27 625h411v168q0 43 -10 61t-35 18q-27 0 -39 -18.5t-12 -67.5v-61h-313v35q0 83 18 146t59 112.5t115 75.5t180 26q193 0 280 -90t87 -270v-420q0 -177 -101 -267.5t-272 -90.5t-269.5 87t-98.5 271v285zM438 422h-94v-113q0 -46 9 -67t38 -21q47 0 47 88v113z" />
    <glyph glyph-name="uni0261" unicode="&#x261;" horiz-adv-x="856" 
d="M799 739v-616q0 -70 -2.5 -118t-11.5 -102.5t-25.5 -89.5t-45.5 -69.5t-70.5 -54t-101 -31.5t-136.5 -12q-174 0 -263.5 79.5t-89.5 223.5v8h326v-4q0 -64 47 -64q35 0 45 27t10 102v140q-52 -123 -194 -123q-238 0 -238 325v445q0 315 242 315q147 0 188 -108
q4 67 10 92h314q-4 -140 -4 -365zM375 772v-383q0 -44 10.5 -62t34.5 -18q53 0 53 82v385q0 72 -47 72q-51 0 -51 -76z" />
    <glyph glyph-name="uni02BB" unicode="&#x2bb;" horiz-adv-x="753" 
d="M330 1425h219q-69 -283 -66 -520h-278q5 124 38.5 268t86.5 252z" />
    <glyph glyph-name="uni02BC" unicode="&#x2bc;" horiz-adv-x="753" 
d="M424 905h-219q68 279 65 520h279q-5 -124 -38.5 -268t-86.5 -252z" />
    <glyph glyph-name="uni02BE" unicode="&#x2be;" horiz-adv-x="667" 
d="M205 1384v156q132 0 195 -51t63 -143q0 -90 -61.5 -144.5t-196.5 -54.5v143q55 2 55 47q0 43 -55 47z" />
    <glyph glyph-name="uni02BF" unicode="&#x2bf;" horiz-adv-x="667" 
d="M463 1303v-156q-132 0 -195 51t-63 143q0 90 61.5 144.5t196.5 54.5v-143q-55 -2 -55 -47q0 -43 55 -47z" />
    <glyph glyph-name="circumflex" unicode="&#x2c6;" 
d="M256 1425h317l168 -254h-258l-73 121l-68 -121h-262z" />
    <glyph glyph-name="caron" unicode="&#x2c7;" 
d="M565 1180h-303l-182 254h258l74 -121l67 121h262z" />
    <glyph glyph-name="uni02C8" unicode="&#x2c8;" horiz-adv-x="720" 
d="M516 1102h-311v436h311v-436z" />
    <glyph glyph-name="uni02C9" unicode="&#x2c9;" horiz-adv-x="913" 
d="M205 1405h504v-213h-504v213z" />
    <glyph glyph-name="uni02CA" unicode="&#x2ca;" horiz-adv-x="929" 
d="M412 1454h340l-267 -268h-254z" />
    <glyph glyph-name="uni02CB" unicode="&#x2cb;" horiz-adv-x="929" 
d="M184 1454h340l181 -268h-267z" />
    <glyph glyph-name="uni02CC" unicode="&#x2cc;" horiz-adv-x="720" 
d="M516 -537h-311v437h311v-437z" />
    <glyph glyph-name="breve" unicode="&#x2d8;" 
d="M117 1409h233q7 -59 62 -59q53 0 57 59h236q-3 -32 -13.5 -64t-33.5 -65.5t-55.5 -59t-83.5 -41.5t-113 -16q-71 0 -127.5 23.5t-89.5 61.5t-51 79t-21 82z" />
    <glyph glyph-name="dotaccent" unicode="&#x2d9;" 
d="M582 1171h-342v254h342v-254z" />
    <glyph glyph-name="ring" unicode="&#x2da;" 
d="M410 1155q-86 0 -139.5 53.5t-53.5 137.5t51.5 140t137.5 56q87 0 142.5 -54.5t55.5 -139.5q0 -89 -55 -141t-139 -52zM412 1278q28 0 44.5 19.5t16.5 48.5q0 31 -16 51t-45 20q-30 0 -46 -20t-16 -49t17 -49.5t45 -20.5z" />
    <glyph glyph-name="ogonek" unicode="&#x2db;" 
d="M315 0h254q-71 -58 -71 -109q0 -22 11 -34.5t44 -12.5q19 0 51 4v-200q-60 -23 -160 -23q-62 0 -108.5 18t-70 46.5t-34 57.5t-10.5 58q0 68 26.5 113t67.5 82z" />
    <glyph glyph-name="tilde" unicode="&#x2dc;" 
d="M303 1167h-174v54q-1 116 40.5 162.5t113.5 46.5q43 0 89 -17.5t81 -35t51 -17.5q6 0 10 1.5t7 10.5t3 25v24h166v-43q0 -123 -35 -170t-102 -47q-52 0 -129 37t-100 37q-21 0 -21 -49v-19z" />
    <glyph glyph-name="hungarumlaut" unicode="&#x2dd;" 
d="M522 1434l-188 -269h-217l135 269h270zM862 1434l-186 -269h-219l137 269h268z" />
    <glyph glyph-name="uni0300" unicode="&#x300;" horiz-adv-x="0" 
d="M-281 1454h340l181 -268h-267z" />
    <glyph glyph-name="uni0301" unicode="&#x301;" horiz-adv-x="0" 
d="M-47 1454h340l-266 -268h-254z" />
    <glyph glyph-name="uni0302" unicode="&#x302;" horiz-adv-x="0" 
d="M-154 1425h318l168 -254h-258l-74 121l-68 -121h-262z" />
    <glyph glyph-name="uni0303" unicode="&#x303;" horiz-adv-x="0" 
d="M-106 1167h-175v54q-1 116 40.5 162.5t113.5 46.5q43 0 89 -17.5t81 -35t51 -17.5q6 0 10 1.5t7.5 10.5t3.5 25v24h166v-43q0 -123 -35.5 -170t-102.5 -47q-52 0 -129 37t-100 37q-12 0 -16 -11t-4 -38v-19z" />
    <glyph glyph-name="uni0304" unicode="&#x304;" horiz-adv-x="0" 
d="M-252 1405h504v-213h-504v213z" />
    <glyph glyph-name="uni0306" unicode="&#x306;" horiz-adv-x="0" 
d="M-293 1409h234q7 -59 61 -59q53 0 57 59h236q-3 -32 -13.5 -64t-33.5 -65.5t-55.5 -59t-83.5 -41.5t-113 -16q-71 0 -127.5 23.5t-89.5 61.5t-51 79t-21 82z" />
    <glyph glyph-name="uni0307" unicode="&#x307;" horiz-adv-x="0" 
d="M172 1171h-342v254h342v-254z" />
    <glyph glyph-name="uni0308" unicode="&#x308;" horiz-adv-x="0" 
d="M-29 1171h-278v254h278v-254zM309 1171h-278v254h278v-254z" />
    <glyph glyph-name="uni0309" unicode="&#x309;" horiz-adv-x="0" 
d="M115 1165h-234q26 28 45 59t19 46q0 20 -25 20t-67 -14l-52 145q86 52 203 52q186 0 186 -154q0 -83 -75 -154z" />
    <glyph glyph-name="uni030A" unicode="&#x30a;" horiz-adv-x="0" 
d="M0 1155q-86 0 -139.5 53.5t-53.5 137.5t51.5 140t137.5 56q88 0 143.5 -54.5t55.5 -139.5q0 -88 -55.5 -140.5t-139.5 -52.5zM2 1278q28 0 44.5 19.5t16.5 48.5q0 31 -16 51t-45 20q-30 0 -45.5 -20t-15.5 -49t16.5 -49.5t44.5 -20.5z" />
    <glyph glyph-name="uni030B" unicode="&#x30b;" horiz-adv-x="0" 
d="M51 1434l-188 -269h-217l135 269h270zM391 1434l-186 -269h-219l137 269h268z" />
    <glyph glyph-name="uni030C" unicode="&#x30c;" horiz-adv-x="0" 
d="M156 1180h-303l-183 254h258l74 -121l68 121h262z" />
    <glyph glyph-name="uni031B" unicode="&#x31b;" horiz-adv-x="0" 
d="M16 936l-139 168q23 30 23 80q0 22 -17 88h246q12 -40 12 -103q0 -178 -125 -233z" />
    <glyph glyph-name="uni0323" unicode="&#x323;" horiz-adv-x="0" 
d="M145 -344h-288v268h288v-268z" />
    <glyph glyph-name="uni0324" unicode="&#x324;" horiz-adv-x="0" 
d="M-29 -465h-278v254h278v-254zM309 -465h-278v254h278v-254z" />
    <glyph glyph-name="uni0326" unicode="&#x326;" horiz-adv-x="0" 
d="M33 -428h-246q33 65 63.5 168.5t38.5 167.5h304q-13 -86 -64 -190t-96 -146z" />
    <glyph glyph-name="uni0327" unicode="&#x327;" horiz-adv-x="0" 
d="M-147 -100l65 116h195l-35 -57q135 -46 135 -166q0 -88 -59.5 -138t-159.5 -50q-122 0 -201 39l51 155q44 -22 90 -22q43 0 43 22q0 41 -124 54v47z" />
    <glyph glyph-name="uni0328" unicode="&#x328;" horiz-adv-x="0" 
d="M-94 0h254q-72 -59 -72 -109q0 -22 11 -34.5t44 -12.5q20 0 52 4v-200q-60 -23 -160 -23q-62 0 -108.5 18t-70 46.5t-34 57.5t-10.5 58q0 68 26.5 113t67.5 82z" />
    <glyph glyph-name="uni032E" unicode="&#x32e;" horiz-adv-x="0" 
d="M-293 -80h234q7 -59 61 -59q53 0 57 59h236q-3 -32 -13.5 -64t-33.5 -65.5t-55.5 -59t-83.5 -41.5t-113 -16q-71 0 -127.5 23.5t-89.5 61.5t-51 79t-21 82z" />
    <glyph glyph-name="uni0331" unicode="&#x331;" horiz-adv-x="0" 
d="M-252 -80h504v-213h-504v213z" />
    <glyph glyph-name="pi" unicode="&#x3c0;" horiz-adv-x="925" 
d="M504 0v866h-90v-866h-324v866q-59 0 -92 -2v232q53 8 289 8h641v-242h-94v-862h-330z" />
    <glyph glyph-name="uni1E0C" unicode="&#x1e0c;" horiz-adv-x="876" 
d="M66 0v1364h356q207 0 302 -95t95 -327v-502q0 -112 -16 -190t-55 -136t-108 -86t-171 -28h-403zM391 1120v-876h29q37 0 53 21.5t16 68.5v698q0 51 -17 69.5t-54 18.5h-27zM543 -330h-289v269h289v-269z" />
    <glyph glyph-name="uni1E0D" unicode="&#x1e0d;" horiz-adv-x="856" 
d="M473 1425h326v-1122q0 -193 4 -303h-305q-9 62 -11 94q-40 -63 -89 -87.5t-122 -24.5q-103 0 -165 76.5t-62 234.5v504q0 68 12 123t39.5 101.5t78 72.5t120.5 26q59 0 106 -21t68 -61v387zM375 768v-438q0 -78 49 -78t49 80v436q0 46 -10.5 64t-38.5 18q-49 0 -49 -82z
M573 -344h-288v268h288v-268z" />
    <glyph glyph-name="uni1E0E" unicode="&#x1e0e;" horiz-adv-x="876" 
d="M66 0v1364h356q207 0 302 -95t95 -327v-502q0 -112 -16 -190t-55 -136t-108 -86t-171 -28h-403zM391 1120v-876h29q37 0 53 21.5t16 68.5v698q0 51 -17 69.5t-54 18.5h-27zM166 -80h504v-213h-504v213z" />
    <glyph glyph-name="uni1E0F" unicode="&#x1e0f;" horiz-adv-x="856" 
d="M473 1425h326v-1122q0 -193 4 -303h-305q-9 62 -11 94q-40 -63 -89 -87.5t-122 -24.5q-103 0 -165 76.5t-62 234.5v504q0 68 12 123t39.5 101.5t78 72.5t120.5 26q59 0 106 -21t68 -61v387zM375 768v-438q0 -78 49 -78t49 80v436q0 46 -10.5 64t-38.5 18q-49 0 -49 -82z
M176 -80h504v-213h-504v213z" />
    <glyph glyph-name="uni1E20" unicode="&#x1e20;" horiz-adv-x="868" 
d="M811 801v-801h-233q-8 30 -13 106q-58 -126 -231 -126q-66 0 -116 20.5t-80 54t-48.5 84t-25.5 102.5t-7 117v666q0 58 11 108.5t38.5 97.5t69 80.5t106.5 53.5t148 20q97 0 169.5 -26.5t112 -65.5t63 -93t30 -97.5t6.5 -91.5v-88h-330v104q0 57 -9 79.5t-40 22.5
q-28 0 -38.5 -23.5t-10.5 -82.5v-705q0 -27 4.5 -44.5t13 -25t15 -9.5t16.5 -2q25 0 38 21.5t13 76.5v198h-53v269h381zM182 1661h504v-213h-504v213z" />
    <glyph glyph-name="uni1E21" unicode="&#x1e21;" horiz-adv-x="856" 
d="M799 739v-616q0 -70 -2.5 -118t-11.5 -102.5t-25.5 -89.5t-45.5 -69.5t-70.5 -54t-101 -31.5t-136.5 -12q-174 0 -263.5 79.5t-89.5 223.5v8h326v-4q0 -64 47 -64q35 0 45 27t10 102v140q-52 -123 -194 -123q-238 0 -238 325v445q0 315 242 315q147 0 188 -108
q4 67 10 92h314q-4 -140 -4 -365zM375 772v-383q0 -44 10.5 -62t34.5 -18q53 0 53 82v385q0 72 -47 72q-51 0 -51 -76zM193 1403h503v-213h-503v213z" />
    <glyph glyph-name="uni1E24" unicode="&#x1e24;" horiz-adv-x="884" 
d="M66 0v1364h325v-514h98v514h330v-1364h-330v580h-98v-580h-325zM588 -324h-289v269h289v-269z" />
    <glyph glyph-name="uni1E25" unicode="&#x1e25;" horiz-adv-x="868" 
d="M57 0v1425h326v-401q72 96 203 96q122 0 173.5 -73t51.5 -205v-842h-330v770q0 39 -9 59.5t-36 20.5t-40 -21.5t-13 -80.5v-748h-326zM580 -344h-289v268h289v-268z" />
    <glyph glyph-name="uni1E2A" unicode="&#x1e2a;" horiz-adv-x="884" 
d="M66 0v1364h325v-514h98v514h330v-1364h-330v580h-98v-580h-325zM150 -68h233q7 -59 61 -59t58 59h235q-4 -41 -21 -81t-50 -78.5t-92 -62t-136 -23.5q-71 0 -127 23.5t-89 61t-51 78.5t-21 82z" />
    <glyph glyph-name="uni1E2B" unicode="&#x1e2b;" horiz-adv-x="868" 
d="M57 0v1425h326v-401q72 96 203 96q122 0 173.5 -73t51.5 -205v-842h-330v770q0 39 -9 59.5t-36 20.5t-40 -21.5t-13 -80.5v-748h-326zM141 -80h234q7 -59 61 -59t58 59h235q-3 -32 -13.5 -64t-33.5 -65.5t-55.5 -59t-83.5 -41.5t-113 -16q-71 0 -127.5 23.5t-89.5 61.5
t-51 79t-21 82z" />
    <glyph glyph-name="uni1E36" unicode="&#x1e36;" horiz-adv-x="727" 
d="M66 0v1364h325v-1088h305l-32 -276h-598zM508 -344h-289v268h289v-268z" />
    <glyph glyph-name="uni1E37" unicode="&#x1e37;" horiz-adv-x="440" 
d="M383 0h-326v1425h326v-1425zM365 -344h-289v268h289v-268z" />
    <glyph glyph-name="uni1E38" unicode="&#x1e38;" horiz-adv-x="727" 
d="M66 0v1364h325v-1088h305l-32 -276h-598zM508 -344h-289v268h289v-268zM-27 1647h504v-213h-504v213z" />
    <glyph glyph-name="uni1E39" unicode="&#x1e39;" horiz-adv-x="440" 
d="M383 0h-326v1425h326v-1425zM-33 1706h504v-213h-504v213zM365 -344h-289v268h289v-268z" />
    <glyph glyph-name="uni1E3A" unicode="&#x1e3a;" horiz-adv-x="727" 
d="M66 0v1364h325v-1088h305l-32 -276h-598zM111 -80h503v-213h-503v213z" />
    <glyph glyph-name="uni1E3B" unicode="&#x1e3b;" horiz-adv-x="440" 
d="M383 0h-326v1425h326v-1425zM-33 -80h504v-213h-504v213z" />
    <glyph glyph-name="uni1E42" unicode="&#x1e42;" horiz-adv-x="1157" 
d="M772 0v332q0 310 4 674h-16q-9 -124 -28.5 -374t-32.5 -421t-15 -211h-238q-8 147 -33.5 483t-43.5 529h-17q0 -18 5 -274t5 -396v-342h-296v1364h442q41 -374 55 -600h12q56 596 56 600h461v-1364h-320zM709 -344h-289v268h289v-268z" />
    <glyph glyph-name="uni1E43" unicode="&#x1e43;" horiz-adv-x="1243" 
d="M57 0v737q0 317 -4 367h307q7 -30 11 -80q65 96 190 96q42 0 74 -8.5t52.5 -25t31.5 -31t22 -35.5q85 100 213 100q52 0 93 -16.5t66.5 -43.5t42.5 -65.5t23.5 -79t6.5 -86.5v-829h-318v776q0 74 -43 74q-47 0 -47 -78v-772h-317v780q0 39 -10.5 54.5t-32.5 15.5
q-43 0 -43 -76v-774h-318zM766 -344h-289v268h289v-268z" />
    <glyph glyph-name="uni1E44" unicode="&#x1e44;" horiz-adv-x="884" 
d="M354 0h-288v1364h340l98 -492q38 -202 45 -251h14q-18 167 -33.5 384t-15.5 310v49h305v-1364h-366l-82 545q-4 27 -19 125t-18 121h-17q37 -562 37 -758v-33zM608 1423h-342v254h342v-254z" />
    <glyph glyph-name="uni1E45" unicode="&#x1e45;" horiz-adv-x="864" 
d="M57 0v793q0 257 -4 311h314q6 -34 10 -86q77 102 211 102q118 0 168.5 -71.5t50.5 -200.5v-848h-326v770q0 80 -45 80q-28 0 -40.5 -19.5t-12.5 -68.5v-762h-326zM604 1171h-342v254h342v-254z" />
    <glyph glyph-name="uni1E46" unicode="&#x1e46;" horiz-adv-x="884" 
d="M354 0h-288v1364h340l98 -492q38 -202 45 -251h14q-18 167 -33.5 384t-15.5 310v49h305v-1364h-366l-82 545q-4 27 -19 125t-18 121h-17q37 -562 37 -758v-33zM584 -324h-289v269h289v-269z" />
    <glyph glyph-name="uni1E47" unicode="&#x1e47;" horiz-adv-x="864" 
d="M57 0v793q0 257 -4 311h314q6 -34 10 -86q77 102 211 102q118 0 168.5 -71.5t50.5 -200.5v-848h-326v770q0 80 -45 80q-28 0 -40.5 -19.5t-12.5 -68.5v-762h-326zM578 -344h-289v268h289v-268z" />
    <glyph glyph-name="uni1E48" unicode="&#x1e48;" horiz-adv-x="884" 
d="M354 0h-288v1364h340l98 -492q38 -202 45 -251h14q-18 167 -33.5 384t-15.5 310v49h305v-1364h-366l-82 545q-4 27 -19 125t-18 121h-17q37 -562 37 -758v-33zM190 -59h504v-213h-504v213z" />
    <glyph glyph-name="uni1E49" unicode="&#x1e49;" horiz-adv-x="864" 
d="M57 0v793q0 257 -4 311h314q6 -34 10 -86q77 102 211 102q118 0 168.5 -71.5t50.5 -200.5v-848h-326v770q0 80 -45 80q-28 0 -40.5 -19.5t-12.5 -68.5v-762h-326zM180 -80h504v-213h-504v213z" />
    <glyph glyph-name="uni1E5A" unicode="&#x1e5a;" horiz-adv-x="864" 
d="M66 0v1364h403q190 0 270 -89t80 -261v-49q0 -206 -131 -273q73 -33 99 -100.5t26 -218.5q0 -338 4 -373h-315q-19 34 -19 430q0 70 -6 99t-20.5 37.5t-50.5 8.5h-17v-575h-323zM391 1122v-305h25q42 0 59 21.5t17 83.5v108q0 56 -17 74t-65 18h-19zM578 -328h-289v269
h289v-269z" />
    <glyph glyph-name="uni1E5B" unicode="&#x1e5b;" horiz-adv-x="602" 
d="M580 1120v-379q-107 0 -152 -30t-45 -107v-604h-326v727q0 263 -4 377h314q10 -72 10 -137q24 67 77.5 109.5t125.5 43.5zM365 -344h-289v268h289v-268z" />
    <glyph glyph-name="uni1E5C" unicode="&#x1e5c;" horiz-adv-x="864" 
d="M66 0v1364h403q190 0 270 -89t80 -261v-49q0 -206 -131 -273q73 -33 99 -100.5t26 -218.5q0 -338 4 -373h-315q-19 34 -19 430q0 70 -6 99t-20.5 37.5t-50.5 8.5h-17v-575h-323zM391 1122v-305h25q42 0 59 21.5t17 83.5v108q0 56 -17 74t-65 18h-19zM578 -326h-289v269
h289v-269zM180 1647h504v-213h-504v213z" />
    <glyph glyph-name="uni1E5D" unicode="&#x1e5d;" horiz-adv-x="602" 
d="M580 1120v-379q-107 0 -152 -30t-45 -107v-604h-326v727q0 263 -4 377h314q10 -72 10 -137q24 67 77.5 109.5t125.5 43.5zM57 1405h504v-213h-504v213zM365 -344h-289v268h289v-268z" />
    <glyph glyph-name="uni1E5E" unicode="&#x1e5e;" horiz-adv-x="864" 
d="M66 0v1364h403q190 0 270 -89t80 -261v-49q0 -206 -131 -273q73 -33 99 -100.5t26 -218.5q0 -338 4 -373h-315q-19 34 -19 430q0 70 -6 99t-20.5 37.5t-50.5 8.5h-17v-575h-323zM391 1122v-305h25q42 0 59 21.5t17 83.5v108q0 56 -17 74t-65 18h-19zM180 -80h504v-213
h-504v213z" />
    <glyph glyph-name="uni1E5F" unicode="&#x1e5f;" horiz-adv-x="602" 
d="M580 1120v-379q-107 0 -152 -30t-45 -107v-604h-326v727q0 263 -4 377h314q10 -72 10 -137q24 67 77.5 109.5t125.5 43.5zM-31 -80h504v-213h-504v213z" />
    <glyph glyph-name="uni1E60" unicode="&#x1e60;" horiz-adv-x="815" 
d="M51 446h309v-110q0 -59 11 -81t35 -22q38 0 38 80q0 79 -22.5 121.5t-114.5 128.5q-60 56 -90.5 87t-66 74.5t-51 80t-26 85t-10.5 107.5q0 387 347 387q84 0 147 -20.5t99.5 -53.5t58.5 -82t29.5 -97t7.5 -109v-84h-287v104q0 51 -9.5 69.5t-33.5 18.5q-39 0 -39 -81
q0 -56 20 -91t95 -102q67 -59 101.5 -92.5t74 -80.5t57 -86.5t29.5 -92.5t12 -117q0 -99 -16.5 -170t-56.5 -126.5t-112.5 -83t-178.5 -27.5q-188 0 -272.5 97.5t-84.5 287.5v81zM580 1440h-342v254h342v-254z" />
    <glyph glyph-name="uni1E61" unicode="&#x1e61;" horiz-adv-x="770" 
d="M35 371h291v-54q0 -53 10.5 -77.5t36.5 -24.5q37 0 37 64q0 46 -22.5 76.5t-108.5 84.5q-139 88 -188.5 162t-49.5 195q0 161 86.5 242t253.5 81q74 0 131.5 -13t93 -38t59.5 -54t35 -68t15 -71t4 -73v-55h-283v61q0 51 -8.5 69.5t-32.5 18.5q-41 0 -41 -68q0 -33 25 -58
t94 -66q149 -89 205.5 -174t56.5 -193q0 -87 -15.5 -149t-54 -110.5t-109.5 -72.5t-175 -24q-68 0 -122 12t-90 31t-62 49.5t-39.5 59t-21 69t-9.5 70.5t-2 71v27zM557 1171h-342v254h342v-254z" />
    <glyph glyph-name="uni1E62" unicode="&#x1e62;" horiz-adv-x="815" 
d="M51 446h309v-110q0 -59 11 -81t35 -22q38 0 38 80q0 79 -22.5 121.5t-114.5 128.5q-60 56 -90.5 87t-66 74.5t-51 80t-26 85t-10.5 107.5q0 387 347 387q84 0 147 -20.5t99.5 -53.5t58.5 -82t29.5 -97t7.5 -109v-84h-287v104q0 51 -9.5 69.5t-33.5 18.5q-39 0 -39 -81
q0 -56 20 -91t95 -102q67 -59 101.5 -92.5t74 -80.5t57 -86.5t29.5 -92.5t12 -117q0 -99 -16.5 -170t-56.5 -126.5t-112.5 -83t-178.5 -27.5q-188 0 -272.5 97.5t-84.5 287.5v81zM553 -344h-289v268h289v-268z" />
    <glyph glyph-name="uni1E63" unicode="&#x1e63;" horiz-adv-x="770" 
d="M35 371h291v-54q0 -53 10.5 -77.5t36.5 -24.5q37 0 37 64q0 46 -22.5 76.5t-108.5 84.5q-139 88 -188.5 162t-49.5 195q0 161 86.5 242t253.5 81q74 0 131.5 -13t93 -38t59.5 -54t35 -68t15 -71t4 -73v-55h-283v61q0 51 -8.5 69.5t-32.5 18.5q-41 0 -41 -68q0 -33 25 -58
t94 -66q149 -89 205.5 -174t56.5 -193q0 -87 -15.5 -149t-54 -110.5t-109.5 -72.5t-175 -24q-68 0 -122 12t-90 31t-62 49.5t-39.5 59t-21 69t-9.5 70.5t-2 71v27zM530 -344h-288v268h288v-268z" />
    <glyph glyph-name="uni1E6C" unicode="&#x1e6c;" horiz-adv-x="700" 
d="M188 0v1096h-161v268h647v-268h-162v-1096h-324zM496 -344h-289v268h289v-268z" />
    <glyph glyph-name="uni1E6D" unicode="&#x1e6d;" horiz-adv-x="567" 
d="M4 813v291h100v227h320v-227h111v-291h-111v-477q0 -39 11.5 -52.5t51.5 -13.5q21 0 33 2v-262q-68 -20 -184 -20q-140 0 -190 61t-50 205v557h-92zM449 -344h-289v268h289v-268z" />
    <glyph glyph-name="uni1E6E" unicode="&#x1e6e;" horiz-adv-x="700" 
d="M188 0v1096h-161v268h647v-268h-162v-1096h-324zM98 -80h504v-213h-504v213z" />
    <glyph glyph-name="uni1E6F" unicode="&#x1e6f;" horiz-adv-x="567" 
d="M4 813v291h100v227h320v-227h111v-291h-111v-477q0 -39 11.5 -52.5t51.5 -13.5q21 0 33 2v-262q-68 -20 -184 -20q-140 0 -190 61t-50 205v557h-92zM51 -80h504v-213h-504v213z" />
    <glyph glyph-name="Wgrave" unicode="&#x1e80;" horiz-adv-x="1085" 
d="M487 0h-358l-96 1364h338q1 -75 8.5 -420t7.5 -407h19q8 103 18 406.5t16 420.5h236q2 -47 9.5 -375.5t16.5 -458.5h23q1 69 6 278.5t8 364t2 191.5h312l-121 -1364h-348q-2 31 -9.5 129t-14 202t-11.5 218h-19q-8 -129 -23.5 -301t-19.5 -248zM147 1640h379l181 -198
h-287z" />
    <glyph glyph-name="wgrave" unicode="&#x1e81;" horiz-adv-x="1214" 
d="M4 1104h356q4 -64 15.5 -231t20.5 -303.5t10 -157.5h14q27 307 45 692h309q5 -104 24.5 -360t24.5 -334h17q12 154 41 694h331l-184 -1104h-354q-41 411 -60 530h-14q-1 -12 -74 -530h-346zM238 1450h340l180 -268h-266z" />
    <glyph glyph-name="Wacute" unicode="&#x1e82;" horiz-adv-x="1085" 
d="M487 0h-358l-96 1364h338q1 -75 8.5 -420t7.5 -407h19q8 103 18 406.5t16 420.5h236q2 -47 9.5 -375.5t16.5 -458.5h23q1 69 6 278.5t8 364t2 191.5h312l-121 -1364h-348q-2 31 -9.5 129t-14 202t-11.5 218h-19q-8 -129 -23.5 -301t-19.5 -248zM588 1640h360l-274 -198
h-266z" />
    <glyph glyph-name="wacute" unicode="&#x1e83;" horiz-adv-x="1214" 
d="M4 1104h356q4 -64 15.5 -231t20.5 -303.5t10 -157.5h14q27 307 45 692h309q5 -104 24.5 -360t24.5 -334h17q12 154 41 694h331l-184 -1104h-354q-41 411 -60 530h-14q-1 -12 -74 -530h-346zM657 1452h340l-266 -268h-254z" />
    <glyph glyph-name="Wdieresis" unicode="&#x1e84;" horiz-adv-x="1085" 
d="M487 0h-358l-96 1364h338q1 -75 8.5 -420t7.5 -407h19q8 103 18 406.5t16 420.5h236q2 -47 9.5 -375.5t16.5 -458.5h23q1 69 6 278.5t8 364t2 191.5h312l-121 -1364h-348q-2 31 -9.5 129t-14 202t-11.5 218h-19q-8 -129 -23.5 -301t-19.5 -248zM506 1440h-258v254h258
v-254zM838 1440h-258v254h258v-254z" />
    <glyph glyph-name="wdieresis" unicode="&#x1e85;" horiz-adv-x="1214" 
d="M4 1104h356q4 -64 15.5 -231t20.5 -303.5t10 -157.5h14q27 307 45 692h309q5 -104 24.5 -360t24.5 -334h17q12 154 41 694h331l-184 -1104h-354q-41 411 -60 530h-14q-1 -12 -74 -530h-346zM594 1171h-279v254h279v-254zM932 1171h-279v254h279v-254z" />
    <glyph glyph-name="uni1E8E" unicode="&#x1e8e;" horiz-adv-x="780" 
d="M551 0h-324v365q0 48 -12 110l-211 889h346q3 -49 17 -246.5t20 -314.5h21q6 85 24 289.5t23 271.5h321l-215 -913q-10 -48 -10 -66v-385zM578 1430h-342v253h342v-253z" />
    <glyph glyph-name="uni1E8F" unicode="&#x1e8f;" horiz-adv-x="782" 
d="M-23 1104h355q55 -554 59 -694h17q16 294 51 694h342q-19 -77 -91.5 -447.5t-129.5 -623.5q-34 -152 -45 -186q-38 -112 -118 -155q-72 -38 -194 -38q-83 0 -155 10v264q46 -4 55 -4q91 0 96 37zM563 1171h-342v254h342v-254z" />
    <glyph glyph-name="uni1E92" unicode="&#x1e92;" horiz-adv-x="743" 
d="M23 0v219l323 873h-291v272h625v-236l-299 -856h309l-35 -272h-632zM496 -344h-289v268h289v-268z" />
    <glyph glyph-name="uni1E93" unicode="&#x1e93;" horiz-adv-x="698" 
d="M18 0v231q216 445 281 582h-264v291h637v-230q-7 -18 -55.5 -123t-116.5 -251.5t-97 -208.5h277l-25 -291h-637zM494 -344h-289v268h289v-268z" />
    <glyph glyph-name="uni1E97" unicode="&#x1e97;" horiz-adv-x="567" 
d="M4 813v291h100v227h320v-227h111v-291h-111v-477q0 -39 11.5 -52.5t51.5 -13.5q21 0 33 2v-262q-68 -20 -184 -20q-140 0 -190 61t-50 205v557h-92zM238 1384h-279v254h279v-254zM575 1384h-278v254h278v-254z" />
    <glyph glyph-name="uni1E9E" unicode="&#x1e9e;" horiz-adv-x="880" 
d="M379 1040v-1040h-326v1044q0 176 90.5 258t292.5 82q89 0 157 -19t110 -50.5t68 -78t36 -95.5t10 -109v-43l-112 -192v-9l65 -141q39 -83 59.5 -149t20.5 -140q0 -189 -67.5 -281.5t-211.5 -92.5q-88 0 -151 24v252q27 -8 55 -8q47 0 47 67q0 62 -47 148l-45 86
q-72 138 4 276l80 144v69q0 43 -16.5 70t-51.5 27q-67 0 -67 -99z" />
    <glyph glyph-name="uni1EA0" unicode="&#x1ea0;" horiz-adv-x="851" 
d="M477 287h-106l-17 -287h-331l145 1364h518l143 -1364h-335zM383 557h80q-16 273 -37 535h-14q-1 -28 -13.5 -247t-15.5 -288zM571 -326h-288v269h288v-269z" />
    <glyph glyph-name="uni1EA1" unicode="&#x1ea1;" horiz-adv-x="843" 
d="M786 829v-546q0 -182 11 -283h-312q-11 18 -18 86q-63 -100 -199 -100q-81 0 -135.5 46t-77 116.5t-22.5 162.5v23q0 85 22 149t58.5 103t90.5 63.5t110.5 33.5t125.5 9h17v123q0 43 -10 58.5t-33 15.5t-33 -18t-10 -66v-45h-305v28q0 178 91.5 255t272.5 77
q356 0 356 -291zM457 334v151h-15q-84 0 -84 -123v-8q0 -59 13.5 -82.5t38.5 -23.5q47 0 47 86zM588 -344h-289v268h289v-268z" />
    <glyph glyph-name="uni1EA2" unicode="&#x1ea2;" horiz-adv-x="851" 
d="M477 287h-106l-17 -287h-331l145 1364h518l143 -1364h-335zM383 557h80q-16 273 -37 535h-14q-1 -28 -13.5 -247t-15.5 -288zM528 1423h-233q26 27 44.5 58.5t18.5 46.5q0 20 -24 20q-26 0 -68 -14l-51 145q86 52 203 52q186 0 186 -154q0 -82 -76 -154z" />
    <glyph glyph-name="uni1EA3" unicode="&#x1ea3;" horiz-adv-x="843" 
d="M786 829v-546q0 -182 11 -283h-312q-11 18 -18 86q-63 -100 -199 -100q-81 0 -135.5 46t-77 116.5t-22.5 162.5v23q0 85 22 149t58.5 103t90.5 63.5t110.5 33.5t125.5 9h17v123q0 43 -10 58.5t-33 15.5t-33 -18t-10 -66v-45h-305v28q0 178 91.5 255t272.5 77
q356 0 356 -291zM457 334v151h-15q-84 0 -84 -123v-8q0 -59 13.5 -82.5t38.5 -23.5q47 0 47 86zM537 1171h-234q26 28 45 59t19 46q0 20 -25 20q-26 0 -68 -14l-51 145q86 52 203 52q186 0 186 -154q0 -83 -75 -154z" />
    <glyph glyph-name="uni1EA4" unicode="&#x1ea4;" horiz-adv-x="851" 
d="M477 287h-106l-17 -287h-331l145 1364h518l143 -1364h-335zM383 557h80q-16 273 -37 535h-14q-1 -28 -13.5 -247t-15.5 -288zM272 1622h318l147 -192h-252l-59 79l-55 -79h-254zM786 1765h258l-208 -194h-195z" />
    <glyph glyph-name="uni1EA5" unicode="&#x1ea5;" horiz-adv-x="843" 
d="M786 829v-546q0 -182 11 -283h-312q-11 18 -18 86q-63 -100 -199 -100q-81 0 -135.5 46t-77 116.5t-22.5 162.5v23q0 85 22 149t58.5 103t90.5 63.5t110.5 33.5t125.5 9h17v123q0 43 -10 58.5t-33 15.5t-33 -18t-10 -66v-45h-305v28q0 178 91.5 255t272.5 77
q356 0 356 -291zM457 334v151h-15q-84 0 -84 -123v-8q0 -59 13.5 -82.5t38.5 -23.5q47 0 47 86zM268 1376h318l147 -213h-252l-59 101l-55 -101h-254zM788 1528h275l-221 -195h-199z" />
    <glyph glyph-name="uni1EA6" unicode="&#x1ea6;" horiz-adv-x="851" 
d="M477 287h-106l-17 -287h-331l145 1364h518l143 -1364h-335zM383 557h80q-16 273 -37 535h-14q-1 -28 -13.5 -247t-15.5 -288zM272 1622h318l147 -192h-252l-59 79l-55 -79h-254zM479 1796h279l160 -209h-209z" />
    <glyph glyph-name="uni1EA7" unicode="&#x1ea7;" horiz-adv-x="843" 
d="M786 829v-546q0 -182 11 -283h-312q-11 18 -18 86q-63 -100 -199 -100q-81 0 -135.5 46t-77 116.5t-22.5 162.5v23q0 85 22 149t58.5 103t90.5 63.5t110.5 33.5t125.5 9h17v123q0 43 -10 58.5t-33 15.5t-33 -18t-10 -66v-45h-305v28q0 178 91.5 255t272.5 77
q356 0 356 -291zM457 334v151h-15q-84 0 -84 -123v-8q0 -59 13.5 -82.5t38.5 -23.5q47 0 47 86zM268 1376h318l147 -213h-252l-59 101l-55 -101h-254zM459 1554h299l141 -208h-209z" />
    <glyph glyph-name="uni1EA8" unicode="&#x1ea8;" horiz-adv-x="851" 
d="M477 287h-106l-17 -287h-331l145 1364h518l143 -1364h-335zM383 557h80q-16 273 -37 535h-14q-1 -28 -13.5 -247t-15.5 -288zM860 1554h-188q22 24 38.5 51t16.5 40q0 16 -22 16q-30 0 -58 -12l-45 127q72 45 170 45q78 0 116 -36.5t38 -98.5q0 -33 -20.5 -71.5
t-45.5 -60.5zM272 1622h318l147 -192h-252l-59 79l-55 -79h-254z" />
    <glyph glyph-name="uni1EA9" unicode="&#x1ea9;" horiz-adv-x="843" 
d="M786 829v-546q0 -182 11 -283h-312q-11 18 -18 86q-63 -100 -199 -100q-81 0 -135.5 46t-77 116.5t-22.5 162.5v23q0 85 22 149t58.5 103t90.5 63.5t110.5 33.5t125.5 9h17v123q0 43 -10 58.5t-33 15.5t-33 -18t-10 -66v-45h-305v28q0 178 91.5 255t272.5 77
q356 0 356 -291zM457 334v151h-15q-84 0 -84 -123v-8q0 -59 13.5 -82.5t38.5 -23.5q47 0 47 86zM268 1376h318l147 -213h-252l-59 101l-55 -101h-254zM856 1309h-188q22 24 38.5 50.5t16.5 39.5q0 16 -23 16q-29 0 -57 -12l-45 127q80 45 170 45q78 0 116 -36.5t38 -98.5
q0 -33 -20.5 -71t-45.5 -60z" />
    <glyph glyph-name="uni1EAA" unicode="&#x1eaa;" horiz-adv-x="851" 
d="M477 287h-106l-17 -287h-331l145 1364h518l143 -1364h-335zM383 557h80q-16 273 -37 535h-14q-1 -28 -13.5 -247t-15.5 -288zM328 1642h-181v29q-1 96 39.5 134t112.5 38q57 0 129.5 -26.5t85.5 -26.5q18 0 18 31v14h175v-14q0 -109 -38 -147t-106 -38q-49 0 -122.5 29
t-94.5 29q-18 0 -18 -29v-23zM272 1597h318l147 -174h-252l-59 72l-55 -72h-254z" />
    <glyph glyph-name="uni1EAB" unicode="&#x1eab;" horiz-adv-x="843" 
d="M786 829v-546q0 -182 11 -283h-312q-11 18 -18 86q-63 -100 -199 -100q-81 0 -135.5 46t-77 116.5t-22.5 162.5v23q0 85 22 149t58.5 103t90.5 63.5t110.5 33.5t125.5 9h17v123q0 43 -10 58.5t-33 15.5t-33 -18t-10 -66v-45h-305v28q0 178 91.5 255t272.5 77
q356 0 356 -291zM457 334v151h-15q-84 0 -84 -123v-8q0 -59 13.5 -82.5t38.5 -23.5q47 0 47 86zM313 1417h-159v33q-1 107 38.5 148.5t112.5 41.5q57 0 129.5 -28.5t85.5 -28.5q19 0 19 33v16h153v-16q0 -120 -37.5 -162.5t-105.5 -42.5q-49 0 -122.5 32t-94.5 32
q-19 0 -19 -31v-27zM268 1368h318l147 -192h-252l-59 79l-55 -79h-254z" />
    <glyph glyph-name="uni1EAC" unicode="&#x1eac;" horiz-adv-x="851" 
d="M477 287h-106l-17 -287h-331l145 1364h518l143 -1364h-335zM383 557h80q-16 273 -37 535h-14q-1 -28 -13.5 -247t-15.5 -288zM571 -344h-288v268h288v-268zM287 1640h288l183 -213h-258l-74 91l-68 -91h-262z" />
    <glyph glyph-name="uni1EAD" unicode="&#x1ead;" horiz-adv-x="843" 
d="M786 829v-546q0 -182 11 -283h-312q-11 18 -18 86q-63 -100 -199 -100q-81 0 -135.5 46t-77 116.5t-22.5 162.5v23q0 85 22 149t58.5 103t90.5 63.5t110.5 33.5t125.5 9h17v123q0 43 -10 58.5t-33 15.5t-33 -18t-10 -66v-45h-305v28q0 178 91.5 255t272.5 77
q356 0 356 -291zM457 334v151h-15q-84 0 -84 -123v-8q0 -59 13.5 -82.5t38.5 -23.5q47 0 47 86zM567 -344h-288v268h288v-268zM268 1432h318l168 -254h-258l-74 120l-68 -120h-262z" />
    <glyph glyph-name="uni1EAE" unicode="&#x1eae;" horiz-adv-x="851" 
d="M477 287h-106l-17 -287h-331l145 1364h518l143 -1364h-335zM383 557h80q-16 273 -37 535h-14q-1 -28 -13.5 -247t-15.5 -288zM451 1843h321l-231 -160h-252zM154 1632h208q15 -49 66 -49q50 0 61 49h211q-6 -36 -21 -68.5t-44.5 -68t-84 -57t-126.5 -21.5q-69 0 -122 21
t-82.5 55t-45 68.5t-20.5 70.5z" />
    <glyph glyph-name="uni1EAF" unicode="&#x1eaf;" horiz-adv-x="843" 
d="M786 829v-546q0 -182 11 -283h-312q-11 18 -18 86q-63 -100 -199 -100q-81 0 -135.5 46t-77 116.5t-22.5 162.5v23q0 85 22 149t58.5 103t90.5 63.5t110.5 33.5t125.5 9h17v123q0 43 -10 58.5t-33 15.5t-33 -18t-10 -66v-45h-305v28q0 178 91.5 255t272.5 77
q356 0 356 -291zM457 334v151h-15q-84 0 -84 -123v-8q0 -59 13.5 -82.5t38.5 -23.5q47 0 47 86zM446 1597h322l-231 -159h-252zM150 1386h208q15 -49 66 -49q50 0 61 49h211q-6 -36 -21 -68.5t-44.5 -68t-84 -57t-126.5 -21.5q-69 0 -122 21t-82.5 55t-45 68.5t-20.5 70.5z
" />
    <glyph glyph-name="uni1EB0" unicode="&#x1eb0;" horiz-adv-x="851" 
d="M477 287h-106l-17 -287h-331l145 1364h518l143 -1364h-335zM383 557h80q-16 273 -37 535h-14q-1 -28 -13.5 -247t-15.5 -288zM80 1841h321l162 -160h-252zM154 1630h208q15 -49 66 -49q50 0 61 49h211q-6 -36 -21 -68.5t-44.5 -68t-84 -57t-126.5 -21.5q-69 0 -122 21
t-82.5 55t-45 68.5t-20.5 70.5z" />
    <glyph glyph-name="uni1EB1" unicode="&#x1eb1;" horiz-adv-x="843" 
d="M786 829v-546q0 -182 11 -283h-312q-11 18 -18 86q-63 -100 -199 -100q-81 0 -135.5 46t-77 116.5t-22.5 162.5v23q0 85 22 149t58.5 103t90.5 63.5t110.5 33.5t125.5 9h17v123q0 43 -10 58.5t-33 15.5t-33 -18t-10 -66v-45h-305v28q0 178 91.5 255t272.5 77
q356 0 356 -291zM457 334v151h-15q-84 0 -84 -123v-8q0 -59 13.5 -82.5t38.5 -23.5q47 0 47 86zM82 1595h321l162 -159h-252zM150 1384h208q15 -49 66 -49q50 0 61 49h211q-6 -36 -21 -68.5t-44.5 -68t-84 -57t-126.5 -21.5q-69 0 -122 21t-82.5 55t-45 68.5t-20.5 70.5z
" />
    <glyph glyph-name="uni1EB2" unicode="&#x1eb2;" horiz-adv-x="851" 
d="M477 287h-106l-17 -287h-331l145 1364h518l143 -1364h-335zM383 557h80q-16 273 -37 535h-14q-1 -28 -13.5 -247t-15.5 -288zM532 1671h-217q43 43 43 72q0 14 -20 14q-25 0 -45 -10l-43 129q69 41 178 41q162 0 162 -133q0 -28 -17 -61t-41 -52zM154 1632h208
q15 -49 66 -49q50 0 61 49h211q-6 -36 -21 -68.5t-44.5 -68t-84 -57t-126.5 -21.5q-69 0 -122 21t-82.5 55t-45 68.5t-20.5 70.5z" />
    <glyph glyph-name="uni1EB3" unicode="&#x1eb3;" horiz-adv-x="843" 
d="M786 829v-546q0 -182 11 -283h-312q-11 18 -18 86q-63 -100 -199 -100q-81 0 -135.5 46t-77 116.5t-22.5 162.5v23q0 85 22 149t58.5 103t90.5 63.5t110.5 33.5t125.5 9h17v123q0 43 -10 58.5t-33 15.5t-33 -18t-10 -66v-45h-305v28q0 178 91.5 255t272.5 77
q356 0 356 -291zM457 334v151h-15q-84 0 -84 -123v-8q0 -59 13.5 -82.5t38.5 -23.5q47 0 47 86zM528 1423h-217q43 43 43 72q0 14 -20 14q-25 0 -45 -10l-43 129q69 41 178 41q162 0 162 -133q0 -28 -17 -61t-41 -52zM150 1384h208q15 -49 66 -49q50 0 61 49h211
q-6 -36 -21 -68.5t-44.5 -68t-84 -57t-126.5 -21.5q-69 0 -122 21t-82.5 55t-45 68.5t-20.5 70.5z" />
    <glyph glyph-name="uni1EB4" unicode="&#x1eb4;" horiz-adv-x="851" 
d="M477 287h-106l-17 -287h-331l145 1364h518l143 -1364h-335zM383 557h80q-16 273 -37 535h-14q-1 -28 -13.5 -247t-15.5 -288zM328 1663h-181v31q-1 95 39 132.5t113 37.5q57 0 129.5 -26t85.5 -26q18 0 18 29v17h175v-17q0 -107 -38 -145.5t-106 -38.5q-49 0 -122.5 28.5
t-94.5 28.5q-18 0 -18 -26v-25zM154 1624h198q18 -43 76 -43q59 0 72 43h200q-6 -32 -21 -62.5t-44.5 -64t-84 -54t-126.5 -20.5q-69 0 -122 20t-82.5 52t-45 64t-20.5 65z" />
    <glyph glyph-name="uni1EB5" unicode="&#x1eb5;" horiz-adv-x="843" 
d="M786 829v-546q0 -182 11 -283h-312q-11 18 -18 86q-63 -100 -199 -100q-81 0 -135.5 46t-77 116.5t-22.5 162.5v23q0 85 22 149t58.5 103t90.5 63.5t110.5 33.5t125.5 9h17v123q0 43 -10 58.5t-33 15.5t-33 -18t-10 -66v-45h-305v28q0 178 91.5 255t272.5 77
q356 0 356 -291zM457 334v151h-15q-84 0 -84 -123v-8q0 -59 13.5 -82.5t38.5 -23.5q47 0 47 86zM324 1425h-181v33q-1 107 39 149t113 42q57 0 129.5 -29t85.5 -29q7 0 12.5 9.5t5.5 23.5v16h174v-16q0 -120 -37.5 -162.5t-105.5 -42.5q-49 0 -122 32t-91 32q-22 0 -22 -31
v-27zM150 1382h208q15 -49 66 -49q50 0 61 49h211q-6 -36 -21 -68.5t-44.5 -68t-84 -57t-126.5 -21.5q-69 0 -122 21t-82.5 55t-45 68.5t-20.5 70.5z" />
    <glyph glyph-name="uni1EB6" unicode="&#x1eb6;" horiz-adv-x="851" 
d="M477 287h-106l-17 -287h-331l145 1364h518l143 -1364h-335zM383 557h80q-16 273 -37 535h-14q-1 -28 -13.5 -247t-15.5 -288zM571 -344h-288v268h288v-268zM133 1667h234q7 -59 61 -59q53 0 57 59h236q-3 -32 -13.5 -64t-33.5 -65.5t-55.5 -59t-83.5 -41.5t-113 -16
q-71 0 -127.5 23.5t-89.5 61.5t-51 79t-21 82z" />
    <glyph glyph-name="uni1EB7" unicode="&#x1eb7;" horiz-adv-x="843" 
d="M786 829v-546q0 -182 11 -283h-312q-11 18 -18 86q-63 -100 -199 -100q-81 0 -135.5 46t-77 116.5t-22.5 162.5v23q0 85 22 149t58.5 103t90.5 63.5t110.5 33.5t125.5 9h17v123q0 43 -10 58.5t-33 15.5t-33 -18t-10 -66v-45h-305v28q0 178 91.5 255t272.5 77
q356 0 356 -291zM457 334v151h-15q-84 0 -84 -123v-8q0 -59 13.5 -82.5t38.5 -23.5q47 0 47 86zM129 1409h233q7 -59 62 -59q53 0 57 59h236q-3 -32 -13.5 -64t-33.5 -65.5t-55.5 -59t-83.5 -41.5t-113 -16q-71 0 -127.5 23.5t-89.5 61.5t-51 79t-21 82zM584 -332h-289v269
h289v-269z" />
    <glyph glyph-name="uni1EB8" unicode="&#x1eb8;" horiz-adv-x="708" 
d="M641 852v-268h-250v-316h301l-37 -268h-589v1364h587v-268h-262v-244h250zM516 -332h-289v269h289v-269z" />
    <glyph glyph-name="uni1EB9" unicode="&#x1eb9;" horiz-adv-x="829" 
d="M791 477h-412v-168q0 -43 10 -61.5t35 -18.5q27 0 39 18.5t12 67.5v62h313v-35q0 -83 -18 -146t-59 -112.5t-115 -75.5t-180 -26q-193 0 -280 90t-87 270v420q0 177 101 267.5t272 90.5t270 -87t99 -271v-285zM379 680h94v113q0 46 -9 67t-38 21q-47 0 -47 -88v-113z
M559 -344h-289v268h289v-268z" />
    <glyph glyph-name="uni1EBA" unicode="&#x1eba;" horiz-adv-x="708" 
d="M641 852v-268h-250v-316h301l-37 -268h-589v1364h587v-268h-262v-244h250zM469 1421h-233q26 27 44.5 58.5t18.5 46.5q0 20 -25 20t-67 -14l-51 145q86 52 202 52q97 0 142 -41t45 -113q0 -82 -76 -154z" />
    <glyph glyph-name="uni1EBB" unicode="&#x1ebb;" horiz-adv-x="829" 
d="M791 477h-412v-168q0 -43 10 -61.5t35 -18.5q27 0 39 18.5t12 67.5v62h313v-35q0 -83 -18 -146t-59 -112.5t-115 -75.5t-180 -26q-193 0 -280 90t-87 270v420q0 177 101 267.5t272 90.5t270 -87t99 -271v-285zM379 680h94v113q0 46 -9 67t-38 21q-47 0 -47 -88v-113z
M528 1165h-233q26 27 44.5 58.5t18.5 46.5q0 20 -24 20q-26 0 -68 -14l-51 145q86 52 203 52q186 0 186 -154q0 -82 -76 -154z" />
    <glyph glyph-name="uni1EBC" unicode="&#x1ebc;" horiz-adv-x="708" 
d="M641 852v-268h-250v-316h301l-37 -268h-589v1364h587v-268h-262v-244h250zM248 1434h-193v49q-1 116 41.5 159.5t116.5 43.5q61 0 141.5 -25t94.5 -25q6 0 10 1.5t7 8t3 19.5v12h186v-53q0 -60 -11 -100.5t-33 -60.5t-46 -28t-57 -8q-52 0 -134.5 27t-105.5 27
q-20 0 -20 -29v-18z" />
    <glyph glyph-name="uni1EBD" unicode="&#x1ebd;" horiz-adv-x="829" 
d="M791 477h-412v-168q0 -43 10 -61.5t35 -18.5q27 0 39 18.5t12 67.5v62h313v-35q0 -83 -18 -146t-59 -112.5t-115 -75.5t-180 -26q-193 0 -280 90t-87 270v420q0 177 101 267.5t272 90.5t270 -87t99 -271v-285zM379 680h94v113q0 46 -9 67t-38 21q-47 0 -47 -88v-113z
M307 1167h-174v54q-1 116 40.5 162.5t113.5 46.5q43 0 89 -17.5t81 -35t51 -17.5q6 0 10 1.5t7 10.5t3 25v24h166v-43q0 -123 -35 -170t-102 -47q-52 0 -129 37t-100 37q-21 0 -21 -49v-19z" />
    <glyph glyph-name="uni1EBE" unicode="&#x1ebe;" horiz-adv-x="708" 
d="M641 852v-268h-250v-316h301l-37 -268h-589v1364h587v-268h-262v-244h250zM201 1622h317l148 -192h-252l-60 79l-55 -79h-254zM715 1765h258l-209 -194h-195z" />
    <glyph glyph-name="uni1EBF" unicode="&#x1ebf;" horiz-adv-x="829" 
d="M791 477h-412v-168q0 -43 10 -61.5t35 -18.5q27 0 39 18.5t12 67.5v62h313v-35q0 -83 -18 -146t-59 -112.5t-115 -75.5t-180 -26q-193 0 -280 90t-87 270v420q0 177 101 267.5t272 90.5t270 -87t99 -271v-285zM379 680h94v113q0 46 -9 67t-38 21q-47 0 -47 -88v-113z
M260 1376h318l147 -213h-252l-59 101l-56 -101h-254zM780 1528h275l-221 -195h-199z" />
    <glyph glyph-name="uni1EC0" unicode="&#x1ec0;" horiz-adv-x="708" 
d="M641 852v-268h-250v-316h301l-37 -268h-589v1364h587v-268h-262v-244h250zM201 1622h317l148 -192h-252l-60 79l-55 -79h-254zM408 1796h278l160 -209h-209z" />
    <glyph glyph-name="uni1EC1" unicode="&#x1ec1;" horiz-adv-x="829" 
d="M791 477h-412v-168q0 -43 10 -61.5t35 -18.5q27 0 39 18.5t12 67.5v62h313v-35q0 -83 -18 -146t-59 -112.5t-115 -75.5t-180 -26q-193 0 -280 90t-87 270v420q0 177 101 267.5t272 90.5t270 -87t99 -271v-285zM379 680h94v113q0 46 -9 67t-38 21q-47 0 -47 -88v-113z
M260 1376h318l147 -213h-252l-59 101l-56 -101h-254zM451 1554h299l141 -208h-209z" />
    <glyph glyph-name="uni1EC2" unicode="&#x1ec2;" horiz-adv-x="708" 
d="M641 852v-268h-250v-316h301l-37 -268h-589v1364h587v-268h-262v-244h250zM788 1554h-188q22 24 38.5 51t16.5 40q0 16 -22 16q-30 0 -58 -12l-45 127q72 45 170 45q78 0 116 -36.5t38 -98.5q0 -33 -20.5 -71.5t-45.5 -60.5zM201 1622h317l148 -192h-252l-60 79l-55 -79
h-254z" />
    <glyph glyph-name="uni1EC3" unicode="&#x1ec3;" horiz-adv-x="829" 
d="M791 477h-412v-168q0 -43 10 -61.5t35 -18.5q27 0 39 18.5t12 67.5v62h313v-35q0 -83 -18 -146t-59 -112.5t-115 -75.5t-180 -26q-193 0 -280 90t-87 270v420q0 177 101 267.5t272 90.5t270 -87t99 -271v-285zM379 680h94v113q0 46 -9 67t-38 21q-47 0 -47 -88v-113z
M260 1376h318l147 -213h-252l-59 101l-56 -101h-254zM848 1309h-189q56 60 56 90q0 16 -23 16q-29 0 -57 -12l-45 127q80 45 170 45q78 0 115.5 -36.5t37.5 -98.5q0 -33 -20 -71t-45 -60z" />
    <glyph glyph-name="uni1EC4" unicode="&#x1ec4;" horiz-adv-x="708" 
d="M641 852v-268h-250v-316h301l-37 -268h-589v1364h587v-268h-262v-244h250zM256 1642h-180v29q-1 96 39 134t112 38q57 0 129.5 -26.5t85.5 -26.5q19 0 19 31v14h174v-14q0 -109 -37.5 -147t-105.5 -38q-49 0 -123 29t-95 29q-18 0 -18 -29v-23zM201 1597h317l148 -174
h-252l-60 72l-55 -72h-254z" />
    <glyph glyph-name="uni1EC5" unicode="&#x1ec5;" horiz-adv-x="829" 
d="M791 477h-412v-168q0 -43 10 -61.5t35 -18.5q27 0 39 18.5t12 67.5v62h313v-35q0 -83 -18 -146t-59 -112.5t-115 -75.5t-180 -26q-193 0 -280 90t-87 270v420q0 177 101 267.5t272 90.5t270 -87t99 -271v-285zM379 680h94v113q0 46 -9 67t-38 21q-47 0 -47 -88v-113z
M305 1417h-160v33q-1 107 39 148.5t113 41.5q57 0 129.5 -28.5t85.5 -28.5q18 0 18 33v16h154v-16q0 -120 -37.5 -162.5t-105.5 -42.5q-49 0 -122.5 32t-94.5 32q-19 0 -19 -31v-27zM260 1368h318l147 -192h-252l-59 79l-56 -79h-254z" />
    <glyph glyph-name="uni1EC6" unicode="&#x1ec6;" horiz-adv-x="708" 
d="M641 852v-268h-250v-316h301l-37 -268h-589v1364h587v-268h-262v-244h250zM500 -344h-289v268h289v-268zM215 1640h289l182 -213h-258l-74 91l-67 -91h-262z" />
    <glyph glyph-name="uni1EC7" unicode="&#x1ec7;" horiz-adv-x="829" 
d="M791 477h-412v-168q0 -43 10 -61.5t35 -18.5q27 0 39 18.5t12 67.5v62h313v-35q0 -83 -18 -146t-59 -112.5t-115 -75.5t-180 -26q-193 0 -280 90t-87 270v420q0 177 101 267.5t272 90.5t270 -87t99 -271v-285zM379 680h94v113q0 46 -9 67t-38 21q-47 0 -47 -88v-113z
M559 -344h-289v268h289v-268zM260 1425h318l167 -254h-258l-73 121l-68 -121h-262z" />
    <glyph glyph-name="uni1EC8" unicode="&#x1ec8;" horiz-adv-x="458" 
d="M68 1364h323v-1364h-323v1364zM334 1425h-234q26 28 45 59t19 46q0 20 -25 20t-67 -14l-52 145q86 52 203 52q97 0 142 -41t45 -113q0 -82 -76 -154z" />
    <glyph glyph-name="uni1EC9" unicode="&#x1ec9;" horiz-adv-x="440" 
d="M57 0v1104h326v-1104h-326zM334 1165h-234q26 28 45 59t19 46q0 20 -25 20t-67 -14l-52 145q86 52 203 52q97 0 142 -41t45 -113q0 -82 -76 -154z" />
    <glyph glyph-name="uni1ECA" unicode="&#x1eca;" horiz-adv-x="458" 
d="M68 1364h323v-1364h-323v1364zM375 -344h-289v268h289v-268z" />
    <glyph glyph-name="uni1ECB" unicode="&#x1ecb;" horiz-adv-x="440" 
d="M57 0v1104h326v-1104h-326zM57 1171v254h326v-254h-326zM365 -344h-289v268h289v-268z" />
    <glyph glyph-name="uni1ECC" unicode="&#x1ecc;" horiz-adv-x="868" 
d="M430 1384q173 0 277 -93t104 -283v-652q0 -199 -100.5 -287.5t-288.5 -88.5q-365 0 -365 376v668q0 181 101 270.5t272 89.5zM430 1128q-24 0 -35.5 -18.5t-11.5 -62.5v-730q0 -81 49 -81t49 81v732q0 45 -11.5 62t-39.5 17zM580 -344h-289v268h289v-268z" />
    <glyph glyph-name="uni1ECD" unicode="&#x1ecd;" horiz-adv-x="847" 
d="M418 1120q381 0 381 -362v-416q0 -186 -100.5 -273t-280.5 -87q-369 0 -369 360v426q0 177 102 264.5t267 87.5zM424 874q-49 0 -49 -77v-482q0 -82 49 -82q28 0 38.5 21t10.5 61v484q0 75 -49 75zM569 -344h-288v268h288v-268z" />
    <glyph glyph-name="uni1ECE" unicode="&#x1ece;" horiz-adv-x="868" 
d="M430 1384q173 0 277 -93t104 -283v-652q0 -199 -100.5 -287.5t-288.5 -88.5q-365 0 -365 376v668q0 181 101 270.5t272 89.5zM430 1128q-24 0 -35.5 -18.5t-11.5 -62.5v-730q0 -81 49 -81t49 81v732q0 45 -11.5 62t-39.5 17zM545 1436h-234q26 28 45 58.5t19 45.5
q0 21 -25 21q-22 0 -67 -15l-52 146q84 51 203 51q97 0 142 -41t45 -113q0 -81 -76 -153z" />
    <glyph glyph-name="uni1ECF" unicode="&#x1ecf;" horiz-adv-x="847" 
d="M418 1120q381 0 381 -362v-416q0 -186 -100.5 -273t-280.5 -87q-369 0 -369 360v426q0 177 102 264.5t267 87.5zM424 874q-49 0 -49 -77v-482q0 -82 49 -82q28 0 38.5 21t10.5 61v484q0 75 -49 75zM539 1174h-234q26 28 45 58.5t19 45.5q0 20 -25 20q-26 0 -68 -14
l-51 146q84 51 203 51q186 0 186 -154q0 -82 -75 -153z" />
    <glyph glyph-name="uni1ED0" unicode="&#x1ed0;" horiz-adv-x="868" 
d="M430 1384q173 0 277 -93t104 -283v-652q0 -199 -100.5 -287.5t-288.5 -88.5q-365 0 -365 376v668q0 181 101 270.5t272 89.5zM430 1128q-24 0 -35.5 -18.5t-11.5 -62.5v-730q0 -81 49 -81t49 81v732q0 45 -11.5 62t-39.5 17zM281 1622h317l147 -192h-251l-60 79l-55 -79
h-254zM795 1765h258l-209 -194h-195z" />
    <glyph glyph-name="uni1ED1" unicode="&#x1ed1;" horiz-adv-x="847" 
d="M418 1120q381 0 381 -362v-416q0 -186 -100.5 -273t-280.5 -87q-369 0 -369 360v426q0 177 102 264.5t267 87.5zM424 874q-49 0 -49 -77v-482q0 -82 49 -82q28 0 38.5 21t10.5 61v484q0 75 -49 75zM270 1376h318l147 -213h-252l-59 101l-55 -101h-254zM791 1528h274
l-221 -195h-199z" />
    <glyph glyph-name="uni1ED2" unicode="&#x1ed2;" horiz-adv-x="868" 
d="M430 1384q173 0 277 -93t104 -283v-652q0 -199 -100.5 -287.5t-288.5 -88.5q-365 0 -365 376v668q0 181 101 270.5t272 89.5zM430 1128q-24 0 -35.5 -18.5t-11.5 -62.5v-730q0 -81 49 -81t49 81v732q0 45 -11.5 62t-39.5 17zM281 1622h317l147 -192h-251l-60 79l-55 -79
h-254zM487 1796h279l160 -209h-209z" />
    <glyph glyph-name="uni1ED3" unicode="&#x1ed3;" horiz-adv-x="847" 
d="M418 1120q381 0 381 -362v-416q0 -186 -100.5 -273t-280.5 -87q-369 0 -369 360v426q0 177 102 264.5t267 87.5zM424 874q-49 0 -49 -77v-482q0 -82 49 -82q28 0 38.5 21t10.5 61v484q0 75 -49 75zM270 1376h318l147 -213h-252l-59 101l-55 -101h-254zM461 1554h299
l141 -208h-209z" />
    <glyph glyph-name="uni1ED4" unicode="&#x1ed4;" horiz-adv-x="868" 
d="M430 1384q173 0 277 -93t104 -283v-652q0 -199 -100.5 -287.5t-288.5 -88.5q-365 0 -365 376v668q0 181 101 270.5t272 89.5zM430 1128q-24 0 -35.5 -18.5t-11.5 -62.5v-730q0 -81 49 -81t49 81v732q0 45 -11.5 62t-39.5 17zM868 1554h-188q22 24 38.5 51t16.5 40
q0 16 -22 16q-30 0 -58 -12l-45 127q73 45 170 45q78 0 116 -36.5t38 -98.5q0 -33 -20.5 -71.5t-45.5 -60.5zM281 1622h317l147 -192h-251l-60 79l-55 -79h-254z" />
    <glyph glyph-name="uni1ED5" unicode="&#x1ed5;" horiz-adv-x="847" 
d="M418 1120q381 0 381 -362v-416q0 -186 -100.5 -273t-280.5 -87q-369 0 -369 360v426q0 177 102 264.5t267 87.5zM424 874q-49 0 -49 -77v-482q0 -82 49 -82q28 0 38.5 21t10.5 61v484q0 75 -49 75zM270 1376h318l147 -213h-252l-59 101l-55 -101h-254zM858 1309h-188
q22 24 38.5 50.5t16.5 39.5q0 16 -23 16q-29 0 -57 -12l-45 127q80 45 170 45q78 0 116 -36.5t38 -98.5q0 -33 -20.5 -71t-45.5 -60z" />
    <glyph glyph-name="uni1ED6" unicode="&#x1ed6;" horiz-adv-x="868" 
d="M430 1384q173 0 277 -93t104 -283v-652q0 -199 -100.5 -287.5t-288.5 -88.5q-365 0 -365 376v668q0 181 101 270.5t272 89.5zM430 1128q-24 0 -35.5 -18.5t-11.5 -62.5v-730q0 -81 49 -81t49 81v732q0 45 -11.5 62t-39.5 17zM336 1651h-180v28q-1 96 39 134t112 38
q57 0 129.5 -26.5t85.5 -26.5q19 0 19 31v14h174v-14q0 -57 -11 -95t-32.5 -56.5t-44.5 -25.5t-56 -7q-49 0 -122.5 28.5t-94.5 28.5q-18 0 -18 -29v-22zM281 1606h317l147 -174h-251l-60 71l-55 -71h-254z" />
    <glyph glyph-name="uni1ED7" unicode="&#x1ed7;" horiz-adv-x="847" 
d="M418 1120q381 0 381 -362v-416q0 -186 -100.5 -273t-280.5 -87q-369 0 -369 360v426q0 177 102 264.5t267 87.5zM424 874q-49 0 -49 -77v-482q0 -82 49 -82q28 0 38.5 21t10.5 61v484q0 75 -49 75zM315 1417h-159v33q-1 107 38.5 148.5t112.5 41.5q57 0 129.5 -28.5
t85.5 -28.5q19 0 19 33v16h153v-16q0 -120 -37.5 -162.5t-105.5 -42.5q-49 0 -122.5 32t-94.5 32q-19 0 -19 -31v-27zM270 1368h318l147 -192h-252l-59 79l-55 -79h-254z" />
    <glyph glyph-name="uni1ED8" unicode="&#x1ed8;" horiz-adv-x="868" 
d="M430 1384q173 0 277 -93t104 -283v-652q0 -199 -100.5 -287.5t-288.5 -88.5q-365 0 -365 376v668q0 181 101 270.5t272 89.5zM430 1128q-24 0 -35.5 -18.5t-11.5 -62.5v-730q0 -81 49 -81t49 81v732q0 45 -11.5 62t-39.5 17zM580 -344h-289v268h289v-268zM295 1640h289
l182 -213h-258l-74 91l-67 -91h-263z" />
    <glyph glyph-name="uni1ED9" unicode="&#x1ed9;" horiz-adv-x="847" 
d="M418 1120q381 0 381 -362v-416q0 -186 -100.5 -273t-280.5 -87q-369 0 -369 360v426q0 177 102 264.5t267 87.5zM424 874q-49 0 -49 -77v-482q0 -82 49 -82q28 0 38.5 21t10.5 61v484q0 75 -49 75zM569 -344h-288v268h288v-268zM270 1425h318l168 -254h-258l-74 121
l-68 -121h-262z" />
    <glyph glyph-name="uni1EDA" unicode="&#x1eda;" horiz-adv-x="868" 
d="M430 1384q110 0 184 -32q11 26 11 57q0 20 -15 82l-69 -49h-267l181 198h360l-199 -143h238q12 -40 12 -102q0 -144 -86 -211q31 -76 31 -176v-652q0 -199 -100.5 -287.5t-288.5 -88.5q-365 0 -365 376v668q0 181 101 270.5t272 89.5zM430 1128q-24 0 -35.5 -18.5
t-11.5 -62.5v-730q0 -81 49 -81t49 81v732q0 45 -11.5 62t-39.5 17z" />
    <glyph glyph-name="uni1EDB" unicode="&#x1edb;" horiz-adv-x="847" 
d="M418 1120q101 0 178 -26q6 21 6 49q0 26 -16 88h245q13 -44 13 -103q0 -134 -74 -200q29 -76 29 -170v-416q0 -186 -100.5 -273t-280.5 -87q-369 0 -369 360v426q0 177 102 264.5t267 87.5zM424 874q-49 0 -49 -77v-482q0 -82 49 -82q28 0 38.5 21t10.5 61v484
q0 75 -49 75zM438 1454h340l-266 -268h-254z" />
    <glyph glyph-name="uni1EDC" unicode="&#x1edc;" horiz-adv-x="868" 
d="M430 1384q110 0 184 -32q11 26 11 57q0 22 -17 88h246q12 -40 12 -102q0 -144 -86 -211q31 -76 31 -176v-652q0 -199 -100.5 -287.5t-288.5 -88.5q-365 0 -365 376v668q0 181 101 270.5t272 89.5zM430 1128q-24 0 -35.5 -18.5t-11.5 -62.5v-730q0 -81 49 -81t49 81v732
q0 45 -11.5 62t-39.5 17zM39 1640h379l180 -198h-287z" />
    <glyph glyph-name="uni1EDD" unicode="&#x1edd;" horiz-adv-x="847" 
d="M418 1120q101 0 178 -26q6 21 6 49q0 26 -16 88h245q13 -44 13 -103q0 -134 -74 -200q29 -76 29 -170v-416q0 -186 -100.5 -273t-280.5 -87q-369 0 -369 360v426q0 177 102 264.5t267 87.5zM424 874q-49 0 -49 -77v-482q0 -82 49 -82q28 0 38.5 21t10.5 61v484
q0 75 -49 75zM41 1454h340l180 -268h-266z" />
    <glyph glyph-name="uni1EDE" unicode="&#x1ede;" horiz-adv-x="868" 
d="M430 1384q110 0 184 -32q11 26 11 57q0 22 -17 88h246q12 -40 12 -102q0 -144 -86 -211q31 -76 31 -176v-652q0 -199 -100.5 -287.5t-288.5 -88.5q-365 0 -365 376v668q0 181 101 270.5t272 89.5zM430 1128q-24 0 -35.5 -18.5t-11.5 -62.5v-730q0 -81 49 -81t49 81v732
q0 45 -11.5 62t-39.5 17zM549 1432h-234q26 28 45 58.5t19 45.5q0 20 -25 20t-67 -14l-51 146q84 51 202 51q97 0 142 -41t45 -113q0 -81 -76 -153z" />
    <glyph glyph-name="uni1EDF" unicode="&#x1edf;" horiz-adv-x="847" 
d="M418 1120q101 0 178 -26q6 21 6 49q0 26 -16 88h245q13 -44 13 -103q0 -134 -74 -200q29 -76 29 -170v-416q0 -186 -100.5 -273t-280.5 -87q-369 0 -369 360v426q0 177 102 264.5t267 87.5zM424 874q-49 0 -49 -77v-482q0 -82 49 -82q28 0 38.5 21t10.5 61v484
q0 75 -49 75zM514 1176h-233q26 28 44.5 58.5t18.5 45.5q0 20 -25 20t-67 -14l-51 146q84 51 202 51q97 0 142 -41t45 -113q0 -81 -76 -153z" />
    <glyph glyph-name="uni1EE0" unicode="&#x1ee0;" horiz-adv-x="868" 
d="M430 1384q110 0 184 -32q11 26 11 57q0 15 -2 21q-15 -3 -35 -3q-52 0 -134.5 27t-105.5 27q-20 0 -20 -29v-18h-193v49q-1 116 41.5 159.5t116.5 43.5q61 0 141 -25t94 -25q21 0 21 29v12h186v-53q0 -81 -22 -127h141q12 -40 12 -102q0 -144 -86 -211q31 -76 31 -176
v-652q0 -199 -100.5 -287.5t-288.5 -88.5q-365 0 -365 376v668q0 181 101 270.5t272 89.5zM430 1128q-24 0 -35.5 -18.5t-11.5 -62.5v-730q0 -81 49 -81t49 81v732q0 45 -11.5 62t-39.5 17z" />
    <glyph glyph-name="uni1EE1" unicode="&#x1ee1;" horiz-adv-x="847" 
d="M418 1120q101 0 178 -26q6 21 6 49q0 17 -4 41q-10 -2 -31 -2q-52 0 -129 36.5t-100 36.5q-21 0 -21 -49v-18h-174v53q-1 116 40.5 162.5t113.5 46.5q43 0 89 -17.5t81 -35t51 -17.5q6 0 10 1.5t7.5 10.5t3.5 25v25h166v-43q0 -118 -35 -168h161q13 -44 13 -103
q0 -134 -74 -200q29 -76 29 -170v-416q0 -186 -100.5 -273t-280.5 -87q-369 0 -369 360v426q0 177 102 264.5t267 87.5zM424 874q-49 0 -49 -77v-482q0 -82 49 -82q28 0 38.5 21t10.5 61v484q0 75 -49 75z" />
    <glyph glyph-name="uni1EE2" unicode="&#x1ee2;" horiz-adv-x="868" 
d="M430 1384q110 0 184 -32q11 26 11 57q0 22 -17 88h246q12 -40 12 -102q0 -144 -86 -211q31 -76 31 -176v-652q0 -199 -100.5 -287.5t-288.5 -88.5q-365 0 -365 376v668q0 181 101 270.5t272 89.5zM430 1128q-24 0 -35.5 -18.5t-11.5 -62.5v-730q0 -81 49 -81t49 81v732
q0 45 -11.5 62t-39.5 17zM580 -344h-289v268h289v-268z" />
    <glyph glyph-name="uni1EE3" unicode="&#x1ee3;" horiz-adv-x="847" 
d="M418 1120q101 0 178 -26q6 21 6 49q0 26 -16 88h245q13 -44 13 -103q0 -134 -74 -200q29 -76 29 -170v-416q0 -186 -100.5 -273t-280.5 -87q-369 0 -369 360v426q0 177 102 264.5t267 87.5zM424 874q-49 0 -49 -77v-482q0 -82 49 -82q28 0 38.5 21t10.5 61v484
q0 75 -49 75zM569 -344h-288v268h288v-268z" />
    <glyph glyph-name="uni1EE4" unicode="&#x1ee4;" horiz-adv-x="876" 
d="M61 1364h330v-1053q0 -75 43 -75q27 0 37 17.5t10 57.5v1053h334v-1012q0 -107 -24.5 -179t-75 -113.5t-119 -58.5t-166.5 -17q-196 0 -282.5 87t-86.5 287v1006zM584 -344h-289v268h289v-268z" />
    <glyph glyph-name="uni1EE5" unicode="&#x1ee5;" horiz-adv-x="864" 
d="M807 1104v-717q0 -321 4 -387h-315q-6 29 -11 86q-76 -104 -211 -104q-46 0 -82 12t-68 41t-49.5 86t-17.5 139v844h326v-776q0 -76 47 -76q30 0 40.5 22t10.5 76v754h326zM578 -344h-289v268h289v-268z" />
    <glyph glyph-name="uni1EE6" unicode="&#x1ee6;" horiz-adv-x="876" 
d="M61 1364h330v-1053q0 -75 43 -75q27 0 37 17.5t10 57.5v1053h334v-1012q0 -107 -24.5 -179t-75 -113.5t-119 -58.5t-166.5 -17q-196 0 -282.5 87t-86.5 287v1006zM543 1411h-234q26 28 45 59t19 46q0 20 -25 20t-67 -14l-52 145q84 51 203 51q186 0 186 -153
q0 -83 -75 -154z" />
    <glyph glyph-name="uni1EE7" unicode="&#x1ee7;" horiz-adv-x="864" 
d="M807 1104v-717q0 -321 4 -387h-315q-6 29 -11 86q-76 -104 -211 -104q-46 0 -82 12t-68 41t-49.5 86t-17.5 139v844h326v-776q0 -76 47 -76q30 0 40.5 22t10.5 76v754h326zM547 1165h-234q26 28 45 59t19 46q0 20 -25 20t-67 -14l-52 145q86 52 203 52q97 0 142 -41
t45 -113q0 -82 -76 -154z" />
    <glyph glyph-name="uni1EE8" unicode="&#x1ee8;" horiz-adv-x="876" 
d="M61 1364h330v-1053q0 -75 43 -75q27 0 37 17.5t10 57.5v1053h162q23 30 23 80q0 18 -13 76l-108 -78h-266l180 198h360l-149 -108h225q12 -41 12 -102q0 -154 -92 -216v-862q0 -107 -24.5 -179t-75 -113.5t-119 -58.5t-166.5 -17q-196 0 -282.5 87t-86.5 287v1006z" />
    <glyph glyph-name="uni1EE9" unicode="&#x1ee9;" horiz-adv-x="864" 
d="M485 86q-76 -104 -211 -104q-46 0 -82 12t-68 41t-49.5 86t-17.5 139v844h326v-776q0 -76 47 -76q30 0 40.5 22t10.5 76v754h152q22 28 22 80q0 26 -16 88h246q12 -40 12 -103q0 -151 -90 -213v-569q0 -321 4 -387h-315q-6 29 -11 86zM467 1454h340l-266 -268h-254z" />
    <glyph glyph-name="uni1EEA" unicode="&#x1eea;" horiz-adv-x="876" 
d="M61 1364h330v-1053q0 -75 43 -75q27 0 37 17.5t10 57.5v1053h162q23 30 23 80q0 22 -17 88h246q12 -41 12 -102q0 -154 -92 -216v-862q0 -107 -24.5 -179t-75 -113.5t-119 -58.5t-166.5 -17q-196 0 -282.5 87t-86.5 287v1006zM43 1640h379l180 -198h-287z" />
    <glyph glyph-name="uni1EEB" unicode="&#x1eeb;" horiz-adv-x="864" 
d="M485 86q-76 -104 -211 -104q-46 0 -82 12t-68 41t-49.5 86t-17.5 139v844h326v-776q0 -76 47 -76q30 0 40.5 22t10.5 76v754h152q22 28 22 80q0 26 -16 88h246q12 -40 12 -103q0 -151 -90 -213v-569q0 -321 4 -387h-315q-6 29 -11 86zM59 1444h340l181 -268h-267z" />
    <glyph glyph-name="uni1EEC" unicode="&#x1eec;" horiz-adv-x="876" 
d="M61 1364h330v-1053q0 -75 43 -75q27 0 37 17.5t10 57.5v1053h162q23 30 23 80q0 22 -17 88h246q12 -41 12 -102q0 -154 -92 -216v-862q0 -107 -24.5 -179t-75 -113.5t-119 -58.5t-166.5 -17q-196 0 -282.5 87t-86.5 287v1006zM553 1432h-234q26 28 45 58.5t19 45.5
q0 20 -25 20t-67 -14l-51 146q84 51 202 51q97 0 142 -41t45 -113q0 -81 -76 -153z" />
    <glyph glyph-name="uni1EED" unicode="&#x1eed;" horiz-adv-x="864" 
d="M485 86q-76 -104 -211 -104q-46 0 -82 12t-68 41t-49.5 86t-17.5 139v844h326v-776q0 -76 47 -76q30 0 40.5 22t10.5 76v754h152q22 28 22 80q0 26 -16 88h246q12 -40 12 -103q0 -151 -90 -213v-569q0 -321 4 -387h-315q-6 29 -11 86zM547 1165h-234q26 28 45 59t19 46
q0 20 -25 20t-67 -14l-52 145q86 52 203 52q97 0 142 -41t45 -113q0 -82 -76 -154z" />
    <glyph glyph-name="uni1EEE" unicode="&#x1eee;" horiz-adv-x="876" 
d="M61 1364h330v-1053q0 -75 43 -75q27 0 37 17.5t10 57.5v1053h162q23 30 23 78q-35 -15 -74 -15q-52 0 -134.5 27t-105.5 27q-20 0 -20 -29v-18h-193v49q-1 116 41.5 159.5t116.5 43.5q61 0 141 -25t94 -25q21 0 21 29v12h186v-53q0 -50 -10 -92h166q12 -41 12 -102
q0 -154 -92 -216v-862q0 -107 -24.5 -179t-75 -113.5t-119 -58.5t-166.5 -17q-196 0 -282.5 87t-86.5 287v1006z" />
    <glyph glyph-name="uni1EEF" unicode="&#x1eef;" horiz-adv-x="864" 
d="M326 1184h-174v53q-1 116 40 162.5t113 46.5q43 0 89 -17.5t81 -35t51 -17.5q6 0 10 1.5t7.5 10.5t3.5 25v25h166v-43q0 -77 -15 -123h187q12 -40 12 -103q0 -151 -90 -213v-569q0 -321 4 -387h-315q-6 29 -11 86q-76 -104 -211 -104q-46 0 -82 12t-68 41t-49.5 86
t-17.5 139v844h326v-776q0 -76 47 -76q30 0 40.5 22t10.5 76v754h152q22 28 22 80v16q-32 -22 -80 -22q-52 0 -129 36.5t-100 36.5q-12 0 -16 -11t-4 -38v-18z" />
    <glyph glyph-name="uni1EF0" unicode="&#x1ef0;" horiz-adv-x="876" 
d="M61 1364h330v-1053q0 -75 43 -75q27 0 37 17.5t10 57.5v1053h162q23 30 23 80q0 22 -17 88h246q12 -41 12 -102q0 -154 -92 -216v-862q0 -107 -24.5 -179t-75 -113.5t-119 -58.5t-166.5 -17q-196 0 -282.5 87t-86.5 287v1006zM584 -344h-289v268h289v-268z" />
    <glyph glyph-name="uni1EF1" unicode="&#x1ef1;" horiz-adv-x="864" 
d="M485 86q-76 -104 -211 -104q-46 0 -82 12t-68 41t-49.5 86t-17.5 139v844h326v-776q0 -76 47 -76q30 0 40.5 22t10.5 76v754h152q22 28 22 80q0 26 -16 88h246q12 -40 12 -103q0 -151 -90 -213v-569q0 -321 4 -387h-315q-6 29 -11 86zM578 -344h-289v268h289v-268z" />
    <glyph glyph-name="Ygrave" unicode="&#x1ef2;" horiz-adv-x="780" 
d="M551 0h-324v365q0 48 -12 110l-211 889h346q3 -49 17 -246.5t20 -314.5h21q6 85 24 289.5t23 271.5h321l-215 -913q-10 -48 -10 -66v-385zM-6 1632h379l180 -198h-287z" />
    <glyph glyph-name="ygrave" unicode="&#x1ef3;" horiz-adv-x="782" 
d="M-23 1104h355q55 -554 59 -694h17q16 294 51 694h342q-19 -77 -91.5 -447.5t-129.5 -623.5q-34 -152 -45 -186q-38 -112 -118 -155q-72 -38 -194 -38q-83 0 -155 10v264q46 -4 55 -4q91 0 96 37zM18 1454h340l181 -268h-267z" />
    <glyph glyph-name="uni1EF4" unicode="&#x1ef4;" horiz-adv-x="780" 
d="M551 0h-324v365q0 48 -12 110l-211 889h346q3 -49 17 -246.5t20 -314.5h21q6 85 24 289.5t23 271.5h321l-215 -913q-10 -48 -10 -66v-385zM535 -344h-289v268h289v-268z" />
    <glyph glyph-name="uni1EF5" unicode="&#x1ef5;" horiz-adv-x="782" 
d="M-23 1104h355q55 -554 59 -694h17q16 294 51 694h342q-19 -77 -91.5 -447.5t-129.5 -623.5q-34 -152 -45 -186q-38 -112 -118 -155q-72 -38 -194 -38q-83 0 -155 10v264q46 -4 55 -4q91 0 96 37zM905 -283h-289v269h289v-269z" />
    <glyph glyph-name="uni1EF6" unicode="&#x1ef6;" horiz-adv-x="780" 
d="M551 0h-324v365q0 48 -12 110l-211 889h346q3 -49 17 -246.5t20 -314.5h21q6 85 24 289.5t23 271.5h321l-215 -913q-10 -48 -10 -66v-385zM504 1421h-234q26 28 45 59t19 46q0 20 -25 20t-67 -14l-52 145q86 52 203 52q97 0 142 -41t45 -113q0 -82 -76 -154z" />
    <glyph glyph-name="uni1EF7" unicode="&#x1ef7;" horiz-adv-x="782" 
d="M-23 1104h355q55 -554 59 -694h17q16 294 51 694h342q-19 -77 -91.5 -447.5t-129.5 -623.5q-34 -152 -45 -186q-38 -112 -118 -155q-72 -38 -194 -38q-83 0 -155 10v264q46 -4 55 -4q91 0 96 37zM506 1165h-234q26 28 45 59t19 46q0 20 -25 20t-67 -14l-51 145
q86 52 202 52q97 0 142 -41t45 -113q0 -82 -76 -154z" />
    <glyph glyph-name="uni1EF8" unicode="&#x1ef8;" horiz-adv-x="780" 
d="M551 0h-324v365q0 48 -12 110l-211 889h346q3 -49 17 -246.5t20 -314.5h21q6 85 24 289.5t23 271.5h321l-215 -913q-10 -48 -10 -66v-385zM283 1434h-193v49q-1 116 41.5 159.5t116.5 43.5q61 0 141 -25t94 -25q21 0 21 29v12h186v-53q0 -60 -11 -100.5t-33 -60.5
t-46 -28t-57 -8q-52 0 -134.5 27t-105.5 27q-20 0 -20 -29v-18z" />
    <glyph glyph-name="uni1EF9" unicode="&#x1ef9;" horiz-adv-x="782" 
d="M-23 1104h355q55 -554 59 -694h17q16 294 51 694h342q-19 -77 -91.5 -447.5t-129.5 -623.5q-34 -152 -45 -186q-38 -112 -118 -155q-72 -38 -194 -38q-83 0 -155 10v264q46 -4 55 -4q91 0 96 37zM285 1167h-174v54q-1 116 40 162.5t113 46.5q43 0 89 -17.5t81 -35
t51 -17.5q6 0 10 1.5t7.5 10.5t3.5 25v24h166v-43q0 -123 -35 -170t-102 -47q-52 0 -129.5 37t-100.5 37q-12 0 -16 -11t-4 -38v-19z" />
    <glyph glyph-name="uni2007" unicode="&#x2007;" horiz-adv-x="815" 
 />
    <glyph glyph-name="uni2010" unicode="&#x2010;" horiz-adv-x="509" 
d="M53 672h404v-250h-404v250z" />
    <glyph glyph-name="figuredash" unicode="&#x2012;" horiz-adv-x="815" 
d="M100 815h613v-252h-613v252z" />
    <glyph glyph-name="endash" unicode="&#x2013;" horiz-adv-x="712" 
d="M53 672h606v-250h-606v250z" />
    <glyph glyph-name="emdash" unicode="&#x2014;" horiz-adv-x="1312" 
d="M53 672h1209v-250h-1209v250z" />
    <glyph glyph-name="uni2015" unicode="&#x2015;" horiz-adv-x="1312" 
d="M53 672h1209v-250h-1209v250z" />
    <glyph glyph-name="quoteleft" unicode="&#x2018;" horiz-adv-x="411" 
d="M170 1425h219q-68 -279 -65 -520h-279q5 124 38.5 268t86.5 252z" />
    <glyph glyph-name="quoteright" unicode="&#x2019;" horiz-adv-x="401" 
d="M242 905h-219q68 279 65 520h279q-5 -124 -38.5 -268t-86.5 -252z" />
    <glyph glyph-name="quotesinglbase" unicode="&#x201a;" horiz-adv-x="413" 
d="M254 -221h-219q68 279 65 520h279q-5 -124 -38.5 -268t-86.5 -252z" />
    <glyph glyph-name="quotedblleft" unicode="&#x201c;" horiz-adv-x="702" 
d="M465 1425h203q-27 -122 -47.5 -283.5t-18.5 -236.5h-256q6 116 39 265.5t80 254.5zM154 1425h202q-30 -117 -48.5 -270.5t-16.5 -249.5h-256q19 278 119 520z" />
    <glyph glyph-name="quotedblright" unicode="&#x201d;" horiz-adv-x="690" 
d="M225 905h-202q27 121 47 282.5t18 237.5h256q-6 -116 -39 -265.5t-80 -254.5zM537 905h-203q30 117 48.5 270.5t16.5 249.5h256q-19 -281 -118 -520z" />
    <glyph glyph-name="quotedblbase" unicode="&#x201e;" horiz-adv-x="702" 
d="M238 -221h-203q27 121 47 282.5t18 237.5h256q-6 -117 -38.5 -266.5t-79.5 -253.5zM549 -221h-203q30 118 49 271t17 249h256q-19 -278 -119 -520z" />
    <glyph glyph-name="dagger" unicode="&#x2020;" horiz-adv-x="770" 
d="M236 1313h282l-18 -338l221 6v-262l-221 6l18 -834h-282l14 834l-221 -6v262l221 -6z" />
    <glyph glyph-name="daggerdbl" unicode="&#x2021;" horiz-adv-x="772" 
d="M229 1323h291l-16 -297l219 10v-264l-219 8v-274l219 8v-258l-219 8l16 -373h-291l21 373l-221 -8v258l221 -8v274l-221 -8v264l221 -10z" />
    <glyph glyph-name="bullet" unicode="&#x2022;" horiz-adv-x="628" 
d="M90 766h449v-440h-449v440z" />
    <glyph glyph-name="ellipsis" unicode="&#x2026;" horiz-adv-x="1417" 
d="M383 0h-322v371h322v-371zM854 0h-322v371h322v-371zM1317 0h-322v371h322v-371z" />
    <glyph glyph-name="perthousand" unicode="&#x2030;" horiz-adv-x="1705" 
d="M1415 696q121 0 181.5 -70t60.5 -173v-207q0 -126 -60 -194t-182 -68q-235 0 -241 256v211q0 48 11.5 89t37.5 77.5t75 57.5t117 21zM1415 516q-33 0 -33 -51v-238q0 -55 33 -55q16 0 23.5 12.5t7.5 44.5v236q0 51 -31 51zM291 1346q121 0 181 -70.5t60 -173.5v-207
q0 -126 -59.5 -194t-181.5 -68q-236 0 -242 256v211q0 50 11.5 91.5t37.5 77.5t75.5 56.5t117.5 20.5zM291 1165q-33 0 -33 -51v-237q0 -56 33 -56q31 0 31 58v235q0 51 -31 51zM356 0h-145l602 1323h141zM885 696q121 0 181 -70t60 -173v-207q0 -126 -59.5 -194t-181.5 -68
q-236 0 -242 256v211q0 48 11.5 89t37.5 77.5t75.5 57.5t117.5 21zM885 516q-33 0 -33 -51v-238q0 -55 33 -55q16 0 23 12.5t7 44.5v236q0 51 -30 51z" />
    <glyph glyph-name="uni2032" unicode="&#x2032;" horiz-adv-x="536" 
d="M326 905h-224l76 520h256z" />
    <glyph glyph-name="uni2033" unicode="&#x2033;" horiz-adv-x="806" 
d="M309 905h-207l76 520h240zM596 905h-207l76 520h240z" />
    <glyph glyph-name="guilsinglleft" unicode="&#x2039;" horiz-adv-x="524" 
d="M467 913l-176 -366l176 -367h-229l-181 367l181 366h229z" />
    <glyph glyph-name="guilsinglright" unicode="&#x203a;" horiz-adv-x="524" 
d="M49 180l176 367l-176 366h230l180 -366l-180 -367h-230z" />
    <glyph glyph-name="fraction" unicode="&#x2044;" horiz-adv-x="174" 
d="M-121 0h-143l557 1323h143z" />
    <glyph glyph-name="zero.sups" unicode="&#x2070;" horiz-adv-x="583" 
d="M289 1602q127 0 192.5 -68.5t65.5 -183.5v-213q0 -250 -260 -250q-121 0 -185.5 66.5t-64.5 185.5v221q0 112 68 177t184 65zM293 1427q-31 0 -31 -49v-266q0 -51 31 -51q29 0 29 51v266q0 25 -6 37t-23 12z" />
    <glyph glyph-name="four.sups" unicode="&#x2074;" horiz-adv-x="595" 
d="M508 897h-209v137h-260v183l158 376h311v-387h61l-16 -172h-45v-137zM233 1206h66v51q0 21 1 81t1 73h-4q-24 -83 -64 -205z" />
    <glyph glyph-name="five.sups" unicode="&#x2075;" horiz-adv-x="589" 
d="M526 1591l-28 -182h-219l-7 -68q39 29 103 29q89 0 132.5 -58t43.5 -163q0 -137 -62 -199.5t-192 -62.5q-136 0 -196 63t-60 168h225q0 -37 6 -52t23 -15q20 0 25.5 21.5t5.5 70.5q0 32 -4.5 48t-10.5 18.5t-18 2.5q-28 0 -31 -45l-217 13q24 143 41 411h440z" />
    <glyph glyph-name="six.sups" unicode="&#x2076;" horiz-adv-x="573" 
d="M541 1397h-213q0 43 -31 43q-18 0 -26.5 -14.5t-8.5 -49.5v-53q43 41 115 41q91 0 130.5 -54.5t39.5 -158.5q0 -144 -62.5 -204t-193.5 -60q-138 0 -196 79.5t-58 221.5v127q0 147 63 217t193 70q125 0 185.5 -57.5t62.5 -147.5zM297 1053q35 0 35 80q0 41 -6 57t-27 16
t-29 -17t-8 -63q0 -41 8 -57t27 -16z" />
    <glyph glyph-name="seven.sups" unicode="&#x2077;" horiz-adv-x="520" 
d="M12 1591h488v-176q-121 -143 -172 -514h-250q4 119 57 258t125 232h-248v200z" />
    <glyph glyph-name="eight.sups" unicode="&#x2078;" horiz-adv-x="575" 
d="M281 887q-113 0 -179.5 55t-66.5 150q0 65 24 101.5t68 63.5q-80 47 -80 150q0 98 62.5 146.5t177.5 48.5q105 0 171 -48t66 -153q0 -52 -17 -86t-58 -58q92 -47 92 -161q0 -209 -260 -209zM287 1446q-31 0 -31 -43v-27q0 -43 31 -43q28 0 28 41v29q0 43 -28 43z
M287 1044q28 0 28 41v54q0 39 -28 39q-31 0 -31 -39v-54q0 -41 31 -41z" />
    <glyph glyph-name="nine.sups" unicode="&#x2079;" horiz-adv-x="579" 
d="M41 1096h221q0 -49 29 -49q17 0 21.5 12.5t4.5 40.5v78q-39 -45 -112 -45q-172 0 -172 215v22q0 114 66.5 173t185.5 59q132 0 195 -69t63 -194v-165q0 -151 -61 -219t-197 -68q-127 0 -185.5 58t-58.5 151zM289 1442q-16 0 -23.5 -9.5t-7.5 -37.5v-54q0 -27 7 -38
t24 -11t22.5 12t5.5 37v54q0 47 -28 47z" />
    <glyph glyph-name="parenleft.sups" unicode="&#x207d;" horiz-adv-x="382" 
d="M166 1741h209q-24 -56 -38 -93.5t-34.5 -105t-30.5 -143.5t-10 -158q0 -47 3.5 -93.5t7.5 -80.5t14 -76.5t15 -64t19 -61t18 -51t19.5 -50t16.5 -41.5h-209q-45 71 -84.5 207t-38.5 309q2 280 123 502z" />
    <glyph glyph-name="parenright.sups" unicode="&#x207e;" horiz-adv-x="382" 
d="M217 723h-209q24 56 38 93.5t34.5 105t30.5 143.5t10 158q0 47 -3.5 93.5t-7.5 80.5t-14 76.5t-15 64t-19 61t-18 51t-19.5 50t-16.5 41.5h209q45 -71 84.5 -207t38.5 -309q-2 -280 -123 -502z" />
    <glyph glyph-name="n.sups" unicode="&#x207f;" horiz-adv-x="583" 
d="M41 631v424q0 184 -2 219h209q5 -19 8 -51q47 63 135 63q75 0 113.5 -44t38.5 -120v-491h-221v426q0 47 -27 47q-11 0 -17 -2.5t-11 -15t-5 -37.5v-418h-221z" />
    <glyph glyph-name="zero.subs" unicode="&#x2080;" horiz-adv-x="583" 
d="M289 440q127 0 192.5 -68.5t65.5 -183.5v-213q0 -249 -260 -249q-121 0 -185.5 66t-64.5 185v222q0 112 68 176.5t184 64.5zM293 266q-31 0 -31 -49v-266q0 -51 31 -51q29 0 29 51v266q0 25 -6 37t-23 12z" />
    <glyph glyph-name="one.subs" unicode="&#x2081;" horiz-adv-x="376" 
d="M326 -264h-226v457q-51 7 -71 12v166q91 5 137 61h160v-696z" />
    <glyph glyph-name="two.subs" unicode="&#x2082;" horiz-adv-x="581" 
d="M526 -264h-481v14q-1 51 4.5 87t23.5 81.5t59 92.5t106 100q50 42 62.5 60.5t12.5 57.5q0 29 -6.5 40.5t-21.5 11.5q-31 0 -31 -56v-47h-219v8q0 41 4.5 73t20.5 67.5t43.5 59t77 39t116.5 15.5q129 0 187.5 -60.5t58.5 -156.5q0 -62 -23.5 -105.5t-103.5 -103.5
q-85 -64 -101 -96h234z" />
    <glyph glyph-name="three.subs" unicode="&#x2083;" horiz-adv-x="565" 
d="M31 -45h215v-18q0 -46 30 -46q29 0 29 60q0 42 -13 59t-48 17h-60v151h64q35 0 46 14.5t11 47.5q0 24 -6 35.5t-23 11.5q-18 0 -24 -12.5t-6 -43.5v-4h-207v4q0 28 5 53.5t20.5 55t41 51t70.5 35.5t105 14q239 0 239 -190q0 -103 -96 -139q111 -36 111 -162
q0 -119 -64 -171t-192 -52q-66 0 -114.5 18t-73 42t-39.5 58t-18 57t-3 48v6z" />
    <glyph glyph-name="four.subs" unicode="&#x2084;" horiz-adv-x="595" 
d="M508 -264h-209v137h-260v182l158 377h311v-387h61l-16 -172h-45v-137zM233 45h66v51q0 21 1 81t1 73h-4q-24 -83 -64 -205z" />
    <glyph glyph-name="five.subs" unicode="&#x2085;" horiz-adv-x="589" 
d="M526 430l-28 -182h-219l-7 -68q39 29 103 29q89 0 132.5 -58t43.5 -163q0 -137 -62 -199.5t-192 -62.5q-136 0 -196 63t-60 168h225q0 -37 6 -52.5t23 -15.5q20 0 25.5 22t5.5 71q0 32 -4.5 48t-10.5 18.5t-18 2.5q-28 0 -31 -45l-217 12q24 143 41 412h440z" />
    <glyph glyph-name="six.subs" unicode="&#x2086;" horiz-adv-x="573" 
d="M541 236h-213q0 43 -31 43q-18 0 -26.5 -14.5t-8.5 -49.5v-53q43 41 115 41q91 0 130.5 -54.5t39.5 -158.5q0 -144 -62.5 -204t-193.5 -60q-138 0 -196 79.5t-58 221.5v127q0 147 63 216.5t193 69.5q125 0 185.5 -57t62.5 -147zM297 -109q35 0 35 80q0 41 -6 57.5
t-27 16.5t-29 -17t-8 -63q0 -41 8 -57.5t27 -16.5z" />
    <glyph glyph-name="seven.subs" unicode="&#x2087;" horiz-adv-x="520" 
d="M12 430h488v-176q-121 -143 -172 -514h-250q4 119 57 257.5t125 231.5h-248v201z" />
    <glyph glyph-name="eight.subs" unicode="&#x2088;" horiz-adv-x="575" 
d="M281 -274q-113 0 -179.5 54.5t-66.5 149.5q0 65 24 102t68 64q-80 47 -80 150q0 98 62.5 146t177.5 48q105 0 171 -47.5t66 -152.5q0 -52 -17 -86t-58 -58q92 -47 92 -162q0 -208 -260 -208zM287 285q-31 0 -31 -43v-27q0 -43 31 -43q28 0 28 41v29q0 43 -28 43z
M287 -117q28 0 28 41v53q0 39 -28 39q-31 0 -31 -39v-53q0 -41 31 -41z" />
    <glyph glyph-name="nine.subs" unicode="&#x2089;" horiz-adv-x="579" 
d="M41 -66h221q0 -49 29 -49q17 0 21.5 13t4.5 41v77q-39 -45 -112 -45q-172 0 -172 215v23q0 114 66.5 172.5t185.5 58.5q132 0 195 -68.5t63 -193.5v-166q0 -151 -61 -218.5t-197 -67.5q-127 0 -185.5 57.5t-58.5 150.5zM289 281q-15 0 -23 -10t-8 -38v-53q0 -27 7 -38
t24 -11t22.5 12t5.5 37v53q0 48 -28 48z" />
    <glyph glyph-name="parenleft.subs" unicode="&#x208d;" horiz-adv-x="382" 
d="M166 580h209q-24 -56 -38 -93.5t-34.5 -105t-30.5 -143.5t-10 -158q0 -47 3.5 -93.5t7.5 -80.5t14 -76.5t15 -64t19 -61t18 -51t19.5 -50t16.5 -41.5h-209q-45 71 -84.5 207t-38.5 309q2 280 123 502z" />
    <glyph glyph-name="parenright.subs" unicode="&#x208e;" horiz-adv-x="382" 
d="M217 -438h-209q24 56 38 93.5t34.5 105t30.5 143t10 157.5q0 47 -3.5 93.5t-7.5 80.5t-14 77t-15 64t-19 61.5t-17.5 50.5t-19.5 50.5t-17 41.5h209q45 -71 84.5 -207.5t38.5 -309.5q-2 -279 -123 -501z" />
    <glyph glyph-name="colonmonetary" unicode="&#x20a1;" horiz-adv-x="827" 
d="M469 508h311v-107q0 -69 -6 -118.5t-23.5 -102t-54.5 -90.5t-94 -61v-154h-147v125h-37h-25v-125h-149v152q-63 22 -104 62.5t-61 99t-27 117t-7 138.5v453q0 51 3.5 92t15.5 90.5t33 87.5t58.5 72.5t88.5 54.5v123h149v-94h27h35v94h147v-123q69 -26 109 -79t53.5 -115
t13.5 -148v-106h-309v137q0 54 -10.5 70t-40.5 16q-25 0 -36 -20.5t-11 -69.5v-629q0 -56 11.5 -75t37.5 -19q29 0 39 21t10 77v154z" />
    <glyph glyph-name="franc" unicode="&#x20a3;" horiz-adv-x="761" 
d="M109 0v217h-91v168h91v938h612v-262h-291v-232h260v-249h-260v-195h131v-168h-131v-217h-321z" />
    <glyph glyph-name="lira" unicode="&#x20a4;" horiz-adv-x="808" 
d="M735 0h-684v250q41 20 64.5 73.5t23.5 129.5v22h-110v150h100q-4 32 -4 53h-96v149h86q-6 89 -6 162q0 100 25 171.5t72 111t105 57t133 17.5q63 0 113.5 -13t83.5 -33t57.5 -50.5t37 -58.5t20 -64.5t9 -61.5t1.5 -55v-74h-268v88q0 38 -8 55t-29 17q-35 0 -35 -66
q0 -60 10 -203h193v-149h-185q1 -7 2.5 -25.5t2.5 -27.5h180v-150h-183q-6 -141 -61 -203h387z" />
    <glyph glyph-name="uni20A6" unicode="&#x20a6;" horiz-adv-x="886" 
d="M328 0h-246v455h-62v192h62v72h-62v192h62v412h381q19 -213 39 -412h41q-2 94 -2 277v135h245v-412h60v-192h-60v-72h60v-192h-60v-455h-352q-9 93 -22.5 239t-20.5 216h-63v-316v-139zM551 647q-2 23 -2 72h-29q1 -12 3 -35.5t3 -36.5h25zM371 647q-1 11 -4.5 35
t-4.5 37h-34v-72h43z" />
    <glyph glyph-name="peseta" unicode="&#x20a7;" horiz-adv-x="888" 
d="M82 0v840h-64v168h64v315h377q177 0 266.5 -81t89.5 -234h59v-168h-59q-3 -176 -88.5 -259t-271.5 -83h-68v-498h-305zM387 1114v-106h119v6q0 52 -15.5 76t-62.5 24h-41zM387 727h33q86 0 86 102v11h-119v-113z" />
    <glyph glyph-name="dong" unicode="&#x20ab;" horiz-adv-x="860" 
d="M78 -82h719v-190h-719v190zM469 961v112h-256v187h256v83h330v-83h61v-187h-61v-749q0 -242 6 -324h-301q-7 43 -10 100q-36 -64 -87 -89t-126 -25q-59 0 -102 18.5t-68 46.5t-40 71t-19.5 83t-4.5 90v424q0 64 12 117t40 99t80 72.5t124 26.5q128 0 166 -73zM371 674
v-332q0 -86 49 -86q17 0 28 9t15 27.5t5 30.5t1 33v295q0 105 -49 105q-29 0 -39 -21t-10 -61z" />
    <glyph glyph-name="Euro" unicode="&#x20ac;" horiz-adv-x="892" 
d="M532 393h314v-20q0 -48 -2 -81.5t-10 -77.5t-23 -74.5t-42 -62.5t-65.5 -51t-96 -31.5t-130.5 -12.5q-92 0 -159 24t-105 61t-60.5 95.5t-29 114t-6.5 129.5v96h-86v149h86v54h-86v149h86v55q0 47 2 83t10.5 84t23 83.5t42 72.5t65 60.5t94 38.5t127.5 15q70 0 125.5 -12
t93 -31.5t64.5 -50t42.5 -61t24 -71t11 -73t2.5 -74.5v-31h-312v94q0 38 -9 55t-31 17q-41 0 -41 -78v-176h180v-149h-180v-54h180v-149h-180v-191q0 -47 8.5 -68.5t29.5 -21.5q43 0 43 88v84z" />
    <glyph glyph-name="uni20B1" unicode="&#x20b1;" horiz-adv-x="899" 
d="M86 0v717h-57v129h57v53h-57v129h57v295h397q163 0 244 -74t90 -221h55v-129h-53v-53h53v-129h-53q-6 -163 -85.5 -245.5t-256.5 -82.5h-86v-389h-305zM391 1102v-74h121q-3 36 -19.5 55t-54.5 19h-47zM391 631h47q41 0 57.5 20.5t16.5 65.5h-121v-86zM512 846v53h-121
v-53h121z" />
    <glyph glyph-name="uni20B2" unicode="&#x20b2;" horiz-adv-x="823" 
d="M764 672v-615q-102 -43 -258 -53v-141h-180v141q-85 10 -141 40t-86.5 82.5t-42 115.5t-11.5 153v576q0 158 67 245t214 105v109h180v-113q140 -22 198 -108.5t58 -233.5v-107h-316v129q0 41 -10 57.5t-33 16.5q-43 0 -43 -67v-676q0 -76 52 -76q22 0 30 4v416h322z" />
    <glyph glyph-name="uni20B4" unicode="&#x20b4;" horiz-adv-x="825" 
d="M348 956h-282v50q0 340 344 340q180 0 259 -83.5t79 -244.5q0 -93 -27 -162h55v-145h-135q-5 -6 -18 -25t-21 -29h158v-145h-275q-98 -132 -98 -221q0 -62 41 -62q9 0 15.5 2t14 9t11.5 23t4 40v84h287v-65q0 -184 -84 -263t-275 -79q-67 0 -123 15.5t-106 51t-78 102.5
t-28 160q0 117 45 203h-64v145h162q7 9 22 27.5t21 26.5h-186v145h313q55 80 55 176q0 66 -39 66q-47 0 -47 -74v-68z" />
    <glyph glyph-name="uni20B5" unicode="&#x20b5;" horiz-adv-x="782" 
d="M469 508h311v-107q0 -63 -4.5 -110t-21 -99t-45 -87t-79.5 -62t-122 -37v-141h-180v141q-73 10 -125 39t-82 67t-47.5 95.5t-22.5 110.5t-6 126v453q0 41 2 74.5t9.5 74.5t19.5 74t33.5 67t50.5 58.5t72 43.5t96 28v110h180v-110q81 -11 136 -42t83 -82t39.5 -108
t11.5 -133v-106h-309v137q0 54 -10.5 70t-40.5 16q-25 0 -36 -20.5t-11 -69.5v-629q0 -56 11.5 -75t37.5 -19q28 0 37.5 20.5t11.5 77.5v154z" />
    <glyph glyph-name="uni20B9" unicode="&#x20b9;" horiz-adv-x="854" 
d="M817 850h-98q-25 -217 -207 -299l258 -551h-369l-213 494h-125v254h160q110 0 144 102h-304v178h291q-38 66 -135 66h-156v229h754v-178h-155q37 -56 51 -117h104v-178z" />
    <glyph glyph-name="uni20BA" unicode="&#x20ba;" horiz-adv-x="923" 
d="M442 0h-303v580l-123 -43v165l123 43v86l-123 -43v168l123 43v324h318v-211l176 64v-168l-176 -64v-86l176 64v-166l-176 -64v-434q161 0 170 246h274q0 -37 -4 -76t-17 -90t-33 -96.5t-56 -90.5t-82.5 -78t-115 -53t-151.5 -20z" />
    <glyph glyph-name="uni20BD" unicode="&#x20bd;" horiz-adv-x="923" 
d="M119 0v346h-99v156h99v73h-99v201h99v547h385q179 0 273.5 -93t94.5 -272v-28q0 -172 -94 -264.5t-278 -92.5h-66v-71h215v-156h-215v-346h-315zM434 1102v-326h35q84 0 84 158v12q0 85 -17 120.5t-67 35.5h-35z" />
    <glyph glyph-name="uni2113" unicode="&#x2113;" horiz-adv-x="851" 
d="M416 1085v-233q50 58 71 105t21 128q0 78 -47 78q-45 0 -45 -78zM510 424h299q0 -61 -2.5 -104t-11 -93t-24 -83.5t-43 -67t-66.5 -53t-95.5 -31.5t-128.5 -12q-82 0 -142 15.5t-107 52.5t-71 104.5t-24 164.5v11q-44 -22 -71 -31v283q48 24 69 38v426q0 194 92.5 286.5
t266.5 90.5q344 -3 344 -350q0 -77 -19 -146t-51 -124t-82 -108t-103.5 -95.5t-123.5 -87.5v-164q0 -64 10.5 -84t34.5 -20q30 0 39.5 35.5t9.5 146.5z" />
    <glyph glyph-name="uni2116" unicode="&#x2116;" horiz-adv-x="1548" 
d="M362 0h-276v1364h393l96 -823h19q-29 460 -29 698v125h273v-1364h-379l-105 872h-14q22 -312 22 -741v-131zM1202 1292q138 0 221.5 -79t83.5 -248v-136q0 -177 -79 -257t-232 -80q-309 0 -309 344v131q0 166 84 245.5t231 79.5zM1200 1077q-49 0 -49 -82v-198
q0 -51 12 -71.5t39 -20.5q25 0 37 19.5t12 72.5v200q0 49 -13 64.5t-38 15.5zM936 432h530v-209h-530v209z" />
    <glyph glyph-name="uni2117" unicode="&#x2117;" horiz-adv-x="1169" 
d="M360 332v684h258q121 0 182.5 -53.5t61.5 -153.5v-80q0 -87 -57.5 -139.5t-151.5 -52.5h-67v-205h-226zM584 856v-166h20q22 0 29.5 13t7.5 40v60q0 33 -9 43t-28 10h-20zM584 1366q57 0 109.5 -9.5t106.5 -32t99.5 -57.5t85.5 -89.5t68.5 -124t44.5 -164t16 -207.5
q0 -131 -22 -238t-61 -180t-89 -126.5t-111.5 -83.5t-121.5 -44t-125 -14q-83 0 -156.5 19t-144.5 68t-121.5 125t-81.5 197t-31 277q0 148 31.5 267t83.5 195.5t122.5 127.5t144 72.5t153.5 21.5zM582 1210q-84 0 -148 -24t-116.5 -81t-80.5 -162.5t-28 -256.5
q0 -126 22.5 -222.5t58 -154.5t86 -94.5t100 -49.5t106.5 -13q372 0 372 528q0 108 -13.5 192.5t-39.5 141.5t-59 96.5t-76.5 60.5t-87 30t-96.5 9z" />
    <glyph glyph-name="uni2120" unicode="&#x2120;" horiz-adv-x="690" 
d="M12 1075h111q0 -30 4.5 -41.5t17.5 -11.5q6 0 10.5 5.5t4.5 12.5q0 16 -8 27.5t-37 32.5q-64 45 -83.5 72.5t-19.5 72.5q0 58 32.5 91.5t90.5 33.5q82 0 107.5 -37t25.5 -106h-108q0 47 -19 47q-16 0 -16 -17q0 -20 31 -38q72 -43 95 -72t23 -84q0 -139 -133 -139
q-77 0 -103 38.5t-26 112.5zM692 934h-125v72q1 71 11 249h-9q-8 -61 -13 -109.5t-10.5 -106.5t-10.5 -105h-93q-9 184 -22 321h-8q0 -9 1 -32t2 -76t1 -135v-78h-119v430h184q8 -79 11 -176h10q6 138 12 176h178v-430z" />
    <glyph glyph-name="trademark" unicode="&#x2122;" horiz-adv-x="665" 
d="M6 1364h250v-111h-66v-319h-120v319h-64v111zM670 934h-125v72q0 64 10 249h-8q-4 -28 -35 -321h-92q-8 159 -23 321h-8q0 -9 1 -32t2 -76t1 -135v-78h-119v430h185q6 -65 10 -176h10q6 128 13 176h178v-430z" />
    <glyph glyph-name="uni2126" unicode="&#x2126;" horiz-adv-x="827" 
d="M690 272h109v-272h-361v274q15 25 20.5 53.5t8 111.5t2.5 284v303v11q0 25 -1 37t-5 27t-14.5 21t-28.5 6q-30 0 -39.5 -23.5t-9.5 -80.5v-303q0 -348 4 -388q4 -36 20 -59v-274h-366v272h110q-47 47 -70.5 148.5t-23.5 310.5v262q0 203 91.5 297t277.5 94
q67 0 120.5 -10t104 -36t84.5 -68.5t54.5 -111.5t21.5 -161v-264q-3 -159 -17.5 -251.5t-33.5 -130t-58 -79.5z" />
    <glyph glyph-name="estimated" unicode="&#x212e;" horiz-adv-x="1011" 
d="M971 604h-617l-3 -1q-1 -1 -1 -3v-270q0 -24 10 -49q45 -103 144 -103q132 0 166 129h248q-47 -159 -155 -242t-259 -83q-103 0 -183 34.5t-132 94.5t-86 147t-48 185t-14 216q0 199 53.5 350.5t160 238.5t251.5 87q147 0 253.5 -85t159 -231.5t52.5 -336.5v-78zM668 815
v189q0 17 -13 47q-35 86 -145 86q-58 0 -92.5 -25.5t-59.5 -67.5q-8 -16 -8 -47v-182l4 -10h305q9 0 9 10z" />
    <glyph glyph-name="onethird" unicode="&#x2153;" horiz-adv-x="1136" 
d="M283 0h-144l557 1323h144zM330 631h-226v456q-42 6 -71 13v166q91 5 137 61h160v-696zM590 215h215v-18q0 -45 31 -45q28 0 28 59q0 42 -13 59t-48 17h-60v151h64q35 0 46 14.5t11 47.5q0 25 -5.5 36t-22.5 11q-18 0 -24.5 -12.5t-6.5 -42.5v-5h-207v5q0 28 5 53.5
t20.5 55t41 50.5t70.5 35t105 14q239 0 239 -190q0 -103 -96 -139q111 -36 111 -162q0 -119 -64 -171t-192 -52q-66 0 -114.5 18t-73 42t-39.5 58t-18 57t-3 48v6z" />
    <glyph glyph-name="twothirds" unicode="&#x2154;" horiz-adv-x="1331" 
d="M471 0h-143l557 1323h143zM530 631h-481v14q-1 51 4.5 87t23.5 81.5t59 92.5t106 100q50 42 62.5 60.5t12.5 57.5q0 29 -6.5 40.5t-21.5 11.5q-31 0 -31 -56v-47h-219v8q0 41 4.5 73t20.5 67.5t43.5 59t77 39t116.5 15.5q129 0 187.5 -60.5t58.5 -156.5
q0 -62 -23.5 -105.5t-103.5 -103.5q-85 -64 -101 -96h234zM774 215h215v-18q0 -45 31 -45q29 0 29 59q0 42 -13.5 59t-48.5 17h-59v151h63q35 0 46.5 14.5t11.5 47.5q0 24 -6 35.5t-23 11.5q-18 0 -24.5 -12.5t-6.5 -42.5v-5h-207v5q0 28 5 53.5t20.5 55t41 50.5t70.5 35
t105 14q132 0 186 -53.5t54 -136.5q0 -58 -26 -90t-71 -49q111 -36 111 -162q0 -119 -64 -171t-192 -52q-66 0 -114.5 18t-73 42t-39.5 58t-18 57t-3 48v6z" />
    <glyph glyph-name="oneeighth" unicode="&#x215b;" horiz-adv-x="1181" 
d="M322 0h-144l557 1323h144zM356 631h-225v456q-45 6 -72 13v166q93 5 138 61h159v-696zM874 -14q-113 0 -179 54.5t-66 149.5q0 65 24 102t68 64q-80 47 -80 150q0 98 62.5 146t177.5 48q105 0 171 -47.5t66 -152.5q0 -52 -17.5 -86t-58.5 -58q93 -48 93 -161
q0 -209 -261 -209zM881 545q-31 0 -31 -43v-27q0 -43 31 -43q28 0 28 41v29q0 43 -28 43zM881 143q28 0 28 41v54q0 38 -28 38q-31 0 -31 -38v-54q0 -41 31 -41z" />
    <glyph glyph-name="threeeighths" unicode="&#x215c;" horiz-adv-x="1296" 
d="M438 0h-143l557 1323h143zM979 -14q-113 0 -179.5 54.5t-66.5 149.5q0 65 24 102t68 64q-80 47 -80 150q0 98 62.5 146t177.5 48q106 0 172 -47.5t66 -152.5q0 -52 -17.5 -86t-58.5 -58q92 -47 92 -161q0 -209 -260 -209zM985 545q-31 0 -31 -43v-27q0 -43 31 -43
q29 0 29 41v29q0 43 -29 43zM985 143q29 0 29 41v54q0 38 -29 38q-31 0 -31 -38v-54q0 -41 31 -41zM47 850h215v-19q0 -45 31 -45q29 0 29 60q0 42 -13.5 59t-48.5 17h-59v151h63q35 0 46.5 14.5t11.5 47.5q0 24 -6 35.5t-23 11.5q-18 0 -24.5 -12.5t-6.5 -43.5v-4h-207v4
q0 28 5 53.5t20.5 55t41 51t70.5 35.5t105 14q132 0 186 -53.5t54 -136.5q0 -58 -26 -90t-71 -49q111 -36 111 -162q0 -119 -64 -171t-192 -52q-66 0 -114.5 18t-73 42t-39.5 58t-18 57t-3 48v6z" />
    <glyph glyph-name="fiveeighths" unicode="&#x215d;" horiz-adv-x="1314" 
d="M449 0h-144l557 1323h144zM537 1325l-29 -182h-219l-6 -68q39 29 102 29q89 0 132.5 -58t43.5 -163q0 -137 -62 -199.5t-192 -62.5q-136 0 -196 63t-60 168h225q0 -37 6 -52.5t23 -15.5q20 0 25.5 22t5.5 71q0 32 -4.5 48t-10.5 18.5t-18 2.5q-28 0 -31 -45l-217 12
q24 143 41 412h441zM989 -14q-113 0 -179.5 54.5t-66.5 149.5q0 65 24 102t69 64q-80 47 -80 150q0 98 62 146t177 48q106 0 172 -47.5t66 -152.5q0 -52 -17.5 -86t-58.5 -58q92 -47 92 -161q0 -209 -260 -209zM995 545q-30 0 -30 -43v-27q0 -43 30 -43q29 0 29 41v29
q0 43 -29 43zM995 143q29 0 29 41v54q0 38 -29 38q-30 0 -30 -38v-54q0 -41 30 -41z" />
    <glyph glyph-name="seveneighths" unicode="&#x215e;" horiz-adv-x="1228" 
d="M348 0h-143l557 1323h143zM913 -14q-113 0 -179 54.5t-66 149.5q0 65 24 102t68 64q-80 47 -80 150q0 98 62.5 146t177.5 48q105 0 171 -47.5t66 -152.5q0 -52 -17.5 -86t-58.5 -58q93 -48 93 -161q0 -209 -261 -209zM920 545q-31 0 -31 -43v-27q0 -43 31 -43q28 0 28 41
v29q0 43 -28 43zM920 143q28 0 28 41v54q0 38 -28 38q-31 0 -31 -38v-54q0 -41 31 -41zM61 1325h488v-176q-121 -143 -172 -514h-250q4 119 57 257.5t125 231.5h-248v201z" />
    <glyph glyph-name="uni2190" unicode="&#x2190;" horiz-adv-x="1529" 
d="M1479 549h-963l485 -481l-153 -172l-797 774v2l797 772l153 -176l-485 -469h963v-250z" />
    <glyph glyph-name="arrowup" unicode="&#x2191;" horiz-adv-x="1527" 
d="M637 -47v1026l-414 -428l-172 178l713 713h2l711 -713l-177 -178l-401 428v-1026h-262z" />
    <glyph glyph-name="uni2192" unicode="&#x2192;" horiz-adv-x="1529" 
d="M51 791h963l-486 481l154 172l797 -774v-2l-797 -772l-154 176l486 469h-963v250z" />
    <glyph glyph-name="arrowdown" unicode="&#x2193;" horiz-adv-x="1527" 
d="M891 1399v-1026l414 428l172 -178l-713 -713h-2l-711 713l176 178l402 -428v1026h262z" />
    <glyph glyph-name="partialdiff" unicode="&#x2202;" horiz-adv-x="843" 
d="M113 1141v256q35 4 84 4q316 0 459 -164t143 -483v-379q0 -391 -387 -391q-367 0 -367 393v198q0 181 93 269t259 88q18 0 34 -0.5t24.5 -1t9.5 -0.5v8q0 32 -11.5 63t-39.5 64.5t-86.5 54.5t-139.5 21q-2 0 -17 0.5t-31 0.5t-27 -1zM420 240q49 0 49 79v297
q0 46 -13.5 61t-37.5 15q-47 0 -47 -76v-297q0 -79 49 -79z" />
    <glyph glyph-name="uni2206" unicode="&#x2206;" horiz-adv-x="831" 
d="M18 0v231l152 1133h479l164 -1126v-238h-795zM317 268h166q-7 92 -34 389t-41 478h-13q-13 -175 -41.5 -471t-36.5 -396z" />
    <glyph glyph-name="product" unicode="&#x220f;" horiz-adv-x="860" 
d="M53 1364h754v-1462h-330v1194h-98v-1194h-326v1462z" />
    <glyph glyph-name="summation" unicode="&#x2211;" horiz-adv-x="718" 
d="M670 -111h-643v232l217 497l-217 490v256h641v-268h-299l202 -451l-215 -491h346z" />
    <glyph glyph-name="minus" unicode="&#x2212;" horiz-adv-x="1011" 
d="M70 608h872v-252h-872v252z" />
    <glyph glyph-name="uni2215" unicode="&#x2215;" horiz-adv-x="174" 
d="M-121 0h-143l557 1323h143z" />
    <glyph glyph-name="uni2219" unicode="&#x2219;" horiz-adv-x="428" 
d="M375 410h-322v370h322v-370z" />
    <glyph glyph-name="radical" unicode="&#x221a;" horiz-adv-x="989" 
d="M985 1612l-338 -1874h-178l-246 747l-139 -51l-61 219l389 144q120 -463 131 -537q33 275 215 1352h227z" />
    <glyph glyph-name="infinity" unicode="&#x221e;" horiz-adv-x="1400" 
d="M365 170q-153 0 -232.5 92.5t-79.5 239.5q0 141 86.5 236.5t243.5 95.5q97 0 170.5 -44t151.5 -122q88 80 123 104q91 62 198 62q152 0 237 -93.5t85 -238.5q0 -66 -21.5 -125.5t-62 -106t-104.5 -73.5t-144 -27q-92 0 -166.5 43.5t-157.5 120.5q-87 -80 -126 -105
q-90 -59 -201 -59zM999 416q35 0 60.5 22t25.5 64q0 41 -25 65.5t-54 24.5q-25 0 -52 -14t-44.5 -28.5t-45.5 -41.5l23 -23t28 -26.5t25.5 -20t30.5 -17.5t28 -5zM397 416q12 0 22 1.5t21.5 7t18 8.5t19.5 13t17.5 13.5t21 17t20.5 17.5q-38 48 -70.5 73t-69.5 25
q-34 0 -60 -24t-26 -66q0 -39 26 -62.5t60 -23.5z" />
    <glyph glyph-name="integral" unicode="&#x222b;" horiz-adv-x="526" 
d="M553 1667l-21 -281q-36 7 -61 7q-39 0 -55.5 -26.5t-16.5 -102.5q0 -109 11.5 -593t11.5 -601q0 -48 -1.5 -83t-5.5 -78.5t-13.5 -74.5t-23.5 -65t-36.5 -56.5t-52.5 -41.5t-71.5 -28.5t-92.5 -9.5q-89 0 -152 27l31 281q55 -11 72 -11q34 0 42 42q5 23 5 151
q0 108 -7 525t-7 544q0 59 1 98t7.5 96t17.5 95t33 80.5t52.5 67.5t78 42t107.5 17q92 0 147 -21z" />
    <glyph glyph-name="approxequal" unicode="&#x2248;" horiz-adv-x="980" 
d="M334 551h-244v76q0 225 197 225q62 0 131.5 -21t124.5 -42t84 -21q11 0 16.5 7t5.5 30v37h242v-90q0 -65 -15.5 -109.5t-45 -66t-60.5 -29.5t-72 -8q-66 0 -133.5 23.5t-118.5 47t-79 23.5q-18 0 -24.5 -9t-8.5 -36v-37zM334 186h-244v78q0 117 54 170t147 53
q58 0 126 -21t124.5 -42t85.5 -21q11 0 16.5 7t5.5 30v39h242v-90q0 -52 -12 -92t-30 -62.5t-44 -37t-49.5 -19t-50.5 -4.5q-58 0 -114.5 14.5t-91.5 32.5t-71 32.5t-59 14.5q-20 0 -26.5 -9t-8.5 -36v-37z" />
    <glyph glyph-name="notequal" unicode="&#x2260;" horiz-adv-x="1011" 
d="M782 932l-53 -131h213v-252h-315l-54 -129h369v-252h-471l-53 -129h-185l52 129h-215v252h317l53 129h-370v252h471l53 131h188z" />
    <glyph glyph-name="lessequal" unicode="&#x2264;" horiz-adv-x="847" 
d="M70 569v279l688 280v-280l-428 -133l428 -144v-282zM70 252h688v-252h-688v252z" />
    <glyph glyph-name="greaterequal" unicode="&#x2265;" horiz-adv-x="847" 
d="M758 848v-279l-688 -280v280l428 133l-428 144v282zM70 252h688v-252h-688v252z" />
    <glyph glyph-name="uni25A0" unicode="&#x25a0;" horiz-adv-x="757" 
d="M70 250v631h618v-631h-618z" />
    <glyph glyph-name="triagup" unicode="&#x25b2;" horiz-adv-x="1159" 
d="M1130 8h-1101l542 1143h7z" />
    <glyph glyph-name="uni25B3" unicode="&#x25b3;" horiz-adv-x="1159" 
d="M428 256h274l-141 319zM1130 0h-1101l542 1151h7z" />
    <glyph glyph-name="uni25B6" unicode="&#x25b6;" horiz-adv-x="1249" 
d="M20 -10v1102l1143 -543v-6z" />
    <glyph glyph-name="uni25B7" unicode="&#x25b7;" horiz-adv-x="1249" 
d="M276 692v-274l320 141zM20 -10v1102l1151 -543v-6z" />
    <glyph glyph-name="triagdn" unicode="&#x25bc;" horiz-adv-x="1159" 
d="M20 1130h1102l-542 -1142h-7z" />
    <glyph glyph-name="uni25BD" unicode="&#x25bd;" horiz-adv-x="1159" 
d="M723 854h-274l141 -319zM20 1110h1102l-542 -1151h-7z" />
    <glyph glyph-name="uni25C0" unicode="&#x25c0;" horiz-adv-x="1249" 
d="M1171 1092v-1102l-1142 542v7z" />
    <glyph glyph-name="uni25C1" unicode="&#x25c1;" horiz-adv-x="1249" 
d="M924 389v275l-320 -142zM1180 1092v-1102l-1151 542v7z" />
    <glyph glyph-name="uni25C6" unicode="&#x25c6;" horiz-adv-x="933" 
d="M49 553l416 408l420 -429l-420 -407z" />
    <glyph glyph-name="uni25C9" unicode="&#x25c9;" horiz-adv-x="948" 
d="M477 965q178 0 300 -129.5t122 -311.5q0 -181 -122.5 -310.5t-301.5 -129.5q-182 0 -304 128t-122 312q0 185 122 313t306 128zM473 788q-109 0 -179.5 -74t-70.5 -190q0 -115 71 -190.5t181 -75.5q106 0 176 71.5t70 194.5q0 118 -68.5 191t-179.5 73zM473 702
q73 0 121.5 -53t48.5 -125t-48 -126t-120 -54q-78 0 -127 52.5t-49 127.5t48.5 126.5t125.5 51.5z" />
    <glyph glyph-name="lozenge" unicode="&#x25ca;" horiz-adv-x="964" 
d="M915 662l-319 -697h-229l-318 697l318 694h229zM645 651l-90 228q-71 179 -78 198h-4q-25 -89 -76 -211l-80 -196l66 -168q69 -180 96 -258h8q41 115 93 245z" />
    <glyph glyph-name="uni2610" unicode="&#x2610;" horiz-adv-x="1579" 
d="M182 1403h1327v-1348l-120 -116h-1319v1359zM160 1255v-1220h1190v1220h-1190z" />
    <glyph glyph-name="uni2611" unicode="&#x2611;" horiz-adv-x="1579" 
d="M182 1403h1327v-1348l-120 -116h-1319v1359zM160 1255v-1220h1190v1220h-1190zM1004 1167l233 -2q-316 -448 -592 -1038h-82q-146 167 -280 457l215 149q41 -181 112 -291q207 459 394 725z" />
    <glyph glyph-name="uni2713" unicode="&#x2713;" horiz-adv-x="1157" 
d="M905 1364l240 -2q-167 -292 -326.5 -643t-353.5 -821h-103q-179 263 -311 639l244 135q48 -225 129 -389q112 313 239 607.5t242 473.5z" />
    <glyph glyph-name="uni2752" unicode="&#x2752;" horiz-adv-x="972" 
d="M90 782l176 176h617v-641l-170 -178h-623v643zM274 680v-350h336v350h-336z" />
    <glyph glyph-name="fi" unicode="&#xfb01;" horiz-adv-x="948" 
d="M428 0h-328v813h-88v291h88v29q0 71 11.5 122t41 96t88 68t146.5 23q89 0 135 -12v-238q-12 2 -37 2q-31 0 -44 -12.5t-13 -46.5v-31h102v-291h-102v-813zM578 0v1104h325v-1104h-325zM578 1171v254h325v-254h-325z" />
    <glyph glyph-name="fl" unicode="&#xfb02;" horiz-adv-x="948" 
d="M428 0h-328v813h-88v291h88v29q0 71 11.5 122t41 96t88 68t146.5 23q89 0 135 -12v-238q-12 2 -37 2q-31 0 -44 -12.5t-13 -46.5v-31h102v-291h-102v-813zM903 0h-325v1425h325v-1425z" />
    <glyph glyph-name="uni00470303" horiz-adv-x="868" 
d="M811 801v-801h-233q-8 30 -13 106q-58 -126 -231 -126q-66 0 -116 20.5t-80 54t-48.5 84t-25.5 102.5t-7 117v666q0 58 11 108.5t38.5 97.5t69 80.5t106.5 53.5t148 20q97 0 169.5 -26.5t112 -65.5t63 -93t30 -97.5t6.5 -91.5v-88h-330v104q0 57 -9 79.5t-40 22.5
q-28 0 -38.5 -23.5t-10.5 -82.5v-705q0 -27 4.5 -44.5t13 -25t15 -9.5t16.5 -2q25 0 38 21.5t13 76.5v198h-53v269h381zM328 1434h-193v49q-1 116 41.5 159.5t116.5 43.5q61 0 141 -25t94 -25q21 0 21 29v12h186v-53q0 -60 -11 -100.5t-33 -60.5t-46 -28t-57 -8
q-52 0 -134.5 27t-105.5 27q-20 0 -20 -29v-18z" />
    <glyph glyph-name="uni00670303" horiz-adv-x="856" 
d="M799 739v-616q0 -70 -2.5 -118t-11.5 -102.5t-25.5 -89.5t-45.5 -69.5t-70.5 -54t-101 -31.5t-136.5 -12q-174 0 -263.5 79.5t-89.5 223.5v8h326v-4q0 -64 47 -64q35 0 45 27t10 102v140q-52 -123 -194 -123q-238 0 -238 325v445q0 315 242 315q147 0 188 -108
q4 67 10 92h314q-4 -140 -4 -365zM375 772v-383q0 -44 10.5 -62t34.5 -18q53 0 53 82v385q0 72 -47 72q-51 0 -51 -76zM340 1171h-174v54q-1 116 40 162.5t113 46.5q43 0 89.5 -17.5t81.5 -35t51 -17.5q6 0 10 1.5t7 10.5t3 25v24h166v-43q0 -123 -35 -170t-102 -47
q-52 0 -129.5 37t-100.5 37q-12 0 -16 -11t-4 -38v-19z" />
    <glyph glyph-name="zero.slash" horiz-adv-x="823" 
d="M408 1346q370 0 370 -375v-606q0 -385 -372 -385q-196 0 -278.5 98.5t-82.5 286.5v604q0 104 28 179t79 117t114 61.5t142 19.5zM410 1104q-54 0 -54 -80v-375l107 328v47q0 39 -11.5 59.5t-41.5 20.5zM410 221q53 0 53 86v432l-107 -329v-103q0 -86 54 -86z" />
    <glyph glyph-name="zero.slashtab" horiz-adv-x="815" 
d="M403 1346q82 0 147.5 -19.5t117 -62t79 -117t27.5 -176.5v-606q0 -385 -373 -385q-196 0 -278 98t-82 287v604q0 83 18.5 148t50.5 108t78.5 70.5t99 39t115.5 11.5zM406 1104q-54 0 -54 -80v-375l107 328v47q0 39 -11.5 59.5t-41.5 20.5zM406 221q53 0 53 86v432
l-107 -329v-103q0 -86 54 -86z" />
    <glyph glyph-name="zero.tab" horiz-adv-x="815" 
d="M403 1346q167 0 269 -91.5t102 -273.5v-635q0 -177 -91.5 -271.5t-281.5 -94.5q-360 0 -360 366v633q0 97 28 169t78 114.5t114 63t142 20.5zM406 1096q-50 0 -50 -78v-705q0 -84 50 -84q49 0 49 84v705q0 78 -49 78z" />
    <glyph glyph-name="one.tab" horiz-adv-x="815" 
d="M731 0h-647v260h162v735q-105 10 -150 19v219q80 5 137 33.5t86 64.5h252v-1071h160v-260z" />
    <glyph glyph-name="two.tab" horiz-adv-x="815" 
d="M731 0h-672v41q-1 90 13 168t46.5 153t63 128.5t84.5 138.5q104 163 132 227t28 164q0 38 -8.5 57t-34.5 19q-27 0 -37 -25.5t-10 -77.5v-92h-285v62q0 383 348 383q96 0 165 -29t106.5 -81t54 -113t16.5 -136q0 -29 -3 -56.5t-5 -48.5t-12 -49t-13.5 -42.5t-20.5 -46.5
t-22 -43t-30 -49.5t-31.5 -49t-38.5 -58.5t-41 -61q-99 -140 -110 -211h350z" />
    <glyph glyph-name="three.tab" horiz-adv-x="815" 
d="M338 934h-285v80q0 332 338 332q168 0 256 -76.5t88 -231.5v-67q0 -192 -145 -250v-4q166 -66 166 -266v-109q0 -181 -89.5 -268.5t-279.5 -87.5q-346 0 -346 356v61h295v-81q0 -48 12 -70.5t39 -22.5q47 0 47 84v148q0 74 -23.5 100.5t-91.5 26.5h-98v246h113
q53 0 75.5 19t22.5 85v96q0 41 -9.5 61.5t-35.5 20.5q-29 0 -39 -21.5t-10 -64.5v-96z" />
    <glyph glyph-name="four.tab" horiz-adv-x="815" 
d="M700 0h-305v276h-348v256l180 791h473v-788h68l-18 -259h-50v-276zM315 535h80v36q0 98 9.5 282.5t9.5 195.5h-15q-7 -49 -41 -250.5t-43 -263.5z" />
    <glyph glyph-name="five.tab" horiz-adv-x="815" 
d="M739 1323l-32 -272h-314q-3 -83 -12 -205q19 31 66 48t94 17q225 0 225 -297v-219q0 -65 -8 -118.5t-31 -109t-61.5 -93.5t-104 -62t-153.5 -24q-79 0 -140.5 15.5t-100 45t-64 63t-37.5 79t-16.5 83.5t-4.5 84v50h303v-99q0 -80 45 -80t45 80v266q0 42 -10 57t-31 15
q-24 0 -36 -24.5t-11 -94.5l-295 17q28 264 54 778h630z" />
    <glyph glyph-name="six.tab" horiz-adv-x="815" 
d="M756 981h-299v27q0 49 -11.5 68.5t-39.5 19.5q-27 0 -37.5 -21t-10.5 -63v-195q63 84 185 84q66 0 113 -24.5t72 -68t36.5 -94t11.5 -112.5v-262q0 -165 -91.5 -260.5t-276.5 -95.5q-182 0 -273.5 92.5t-91.5 261.5v620q0 87 19.5 156t61 122t113 81.5t169.5 28.5
q350 0 350 -347v-18zM408 227q22 0 35.5 19t13.5 57v260q0 42 -12 59t-37 17q-50 0 -50 -80v-256q0 -76 50 -76z" />
    <glyph glyph-name="seven.tab" horiz-adv-x="815" 
d="M80 1323h653v-254q-213 -403 -264 -1069h-334q10 270 91 555.5t200 495.5h-346v272z" />
    <glyph glyph-name="eight.tab" horiz-adv-x="815" 
d="M397 -20q-177 0 -266.5 94t-89.5 256v98q0 110 36.5 174t104.5 103q-40 24 -65.5 52.5t-43.5 84t-18 135.5v59q0 139 86 224.5t258 85.5q173 0 261 -87.5t88 -224.5v-65q0 -82 -16 -135t-39 -78t-64 -51q145 -73 145 -271v-92q0 -180 -89 -271t-288 -91zM406 1096
q-48 0 -48 -72v-119q0 -71 48 -71q47 0 47 73v121q0 68 -47 68zM406 229q49 0 49 72v197q0 75 -49 75q-50 0 -50 -75v-197q0 -72 50 -72z" />
    <glyph glyph-name="nine.tab" horiz-adv-x="815" 
d="M43 344h307v-25q0 -46 12 -67t39 -21q50 0 50 88v244q-55 -71 -179 -71q-116 0 -175.5 76.5t-59.5 209.5v232q0 150 94.5 243t259.5 93q176 0 277.5 -84.5t101.5 -255.5v-639q0 -189 -89.5 -288t-283.5 -99q-64 0 -116.5 11t-89 30t-63.5 46.5t-43 57t-25.5 66.5t-13 69
t-3.5 70v14zM401 1098q-51 0 -51 -76v-201q0 -80 49 -80q52 0 52 82v201q0 74 -50 74z" />
    <glyph glyph-name="zero.slashcap" horiz-adv-x="843" 
d="M414 1386q85 0 152 -20t120.5 -63.5t82 -120t28.5 -181.5v-624q0 -397 -385 -397q-104 0 -176 27t-113 80.5t-58.5 123.5t-17.5 166v622q0 387 367 387zM416 1139q-72 0 -72 -97v-440l143 442q-3 95 -71 95zM416 227q35 0 53 29.5t18 75.5v477l-143 -447v-30
q0 -44 18.5 -74.5t53.5 -30.5z" />
    <glyph glyph-name="zero.cap" horiz-adv-x="843" 
d="M414 1386q383 0 383 -374v-641q0 -391 -385 -391q-103 0 -176 28.5t-113.5 82.5t-58 122t-17.5 158v639q0 102 27.5 176.5t78.5 117.5t115.5 62.5t145.5 19.5zM416 1139q-51 0 -51 -82v-742q0 -88 51 -88q28 0 39.5 21.5t11.5 66.5v742q0 82 -51 82z" />
    <glyph glyph-name="one.cap" horiz-adv-x="509" 
d="M430 0h-319v1044q-55 5 -91 15v219q51 6 96.5 29t69.5 57h244v-1364z" />
    <glyph glyph-name="two.cap" horiz-adv-x="804" 
d="M729 0h-692v33q0 172 45.5 310t148.5 292q128 192 156.5 259t28.5 171q0 38 -9 58t-36 20q-49 0 -49 -105v-120h-293v88q0 52 6.5 98t29 100t59.5 91.5t103 63t154 25.5q358 0 358 -362q0 -134 -39.5 -223t-189.5 -303q-100 -145 -107 -228h361z" />
    <glyph glyph-name="three.cap" horiz-adv-x="837" 
d="M358 971h-299v78q0 68 17.5 125t56 106.5t110.5 77.5t171 28q177 0 268.5 -84.5t91.5 -236.5v-57q0 -116 -39 -177t-114 -88v-4q172 -58 172 -274v-125q0 -83 -17.5 -145t-58.5 -112.5t-115.5 -76.5t-181.5 -26q-365 0 -365 368v68h303v-105q0 -82 56 -82q47 0 47 82v162
q0 80 -23 106.5t-96 26.5h-106v252h102q66 0 94.5 21t28.5 88v102q0 43 -11 62.5t-38 19.5q-31 0 -42.5 -23t-11.5 -71v-86z" />
    <glyph glyph-name="four.cap" horiz-adv-x="815" 
d="M711 0h-305v289h-367v260l192 815h480v-813h69l-18 -262h-51v-289zM315 551h91v80q0 252 18 450h-10q-2 -9 -45.5 -234t-53.5 -296z" />
    <glyph glyph-name="five.cap" horiz-adv-x="825" 
d="M760 1364l-33 -268h-313q-1 -25 -8.5 -117t-8.5 -109q55 66 162 66q66 0 112 -24.5t71 -71t35.5 -103.5t10.5 -133v-235q0 -86 -16 -151t-55.5 -121.5t-114.5 -86.5t-184 -30q-92 0 -160 22.5t-107.5 57.5t-63.5 86.5t-32 100.5t-8 109v58h311v-101q0 -86 50 -86
q51 0 51 84v285q0 42 -10.5 57t-30.5 15q-26 0 -39 -20t-14 -83l-304 17q9 108 30.5 416t25.5 366h643z" />
    <glyph glyph-name="six.cap" horiz-adv-x="839" 
d="M770 1018h-303v33q0 49 -12 68.5t-41 19.5q-49 0 -49 -86v-211q68 94 194 94q238 0 238 -307v-269q0 -189 -96 -284.5t-281 -95.5q-373 0 -373 391v610q0 202 86.5 302.5t280.5 100.5q68 0 123 -12t91.5 -31t63.5 -48.5t41.5 -59t23 -67.5t11 -68t2.5 -68v-12zM416 225
q23 0 37 19t14 57v287q0 82 -49 82q-27 0 -40 -19t-13 -67v-281q0 -78 51 -78z" />
    <glyph glyph-name="seven.cap" horiz-adv-x="712" 
d="M10 1364h674v-248q-228 -469 -272 -1116h-344q15 284 95 574t202 522h-355v268z" />
    <glyph glyph-name="eight.cap" horiz-adv-x="847" 
d="M408 -20q-183 0 -272 98.5t-89 267.5v100q0 104 40.5 177t105.5 108q-63 37 -96.5 102.5t-33.5 180.5v18q0 173 90 262.5t261 89.5q182 0 272 -84.5t90 -263.5v-18q0 -124 -32 -187.5t-95 -99.5q148 -76 148 -285v-88q0 -93 -19.5 -160.5t-64 -117.5t-120.5 -75t-185 -25
zM416 1141q-51 0 -51 -72v-135q0 -76 51 -76t51 78v133q0 72 -51 72zM416 227q51 0 51 74v221q0 80 -49 80q-53 0 -53 -78v-219q0 -78 51 -78z" />
    <glyph glyph-name="nine.cap" horiz-adv-x="843" 
d="M51 362h314v-55q0 -44 12.5 -62t42.5 -18q28 0 37.5 24.5t9.5 82.5v254q-64 -78 -176 -78q-123 0 -184.5 84t-61.5 233v199q0 171 101.5 265.5t265.5 94.5q385 0 385 -385v-573q0 -246 -89.5 -347t-297.5 -101q-90 0 -156.5 23t-104.5 58t-61 86t-30 97.5t-7 101.5v16z
M416 1139q-51 0 -51 -82v-205q0 -82 49 -82q29 0 41 20.5t12 81.5v189q0 37 -10 57.5t-41 20.5z" />
    <glyph glyph-name="period.sups" horiz-adv-x="299" 
d="M262 893h-225v240h225v-240z" />
    <glyph glyph-name="comma.sups" horiz-adv-x="339" 
d="M215 709h-197q33 100 47.5 216.5t12.5 207.5h225q-2 -123 -25.5 -238t-62.5 -186z" />
    <glyph glyph-name="dollar.sups" horiz-adv-x="585" 
d="M371 827h-154v76q-93 17 -139.5 76.5t-46.5 148.5h211q0 -73 47 -73q41 0 41 32q0 36 -54 52q-135 43 -184 94.5t-49 138.5q0 80 45 132t129 65v61h154v-65q164 -34 164 -217h-201q0 24 -2 37t-12 23.5t-29 10.5q-18 0 -27.5 -11.5t-9.5 -25.5q0 -19 15.5 -30t58.5 -25
q124 -36 173.5 -85.5t49.5 -133.5q0 -172 -180 -205v-76z" />
    <glyph glyph-name="cent.sups" horiz-adv-x="573" 
d="M334 1169h201q0 -17 -1.5 -33.5t-10.5 -47t-24.5 -54t-47.5 -46t-76 -32.5v-84h-154v86q-176 31 -176 254v54q0 208 176 243v72h154v-72q51 -10 84.5 -34t48 -57.5t19.5 -62.5t5 -65h-200q0 33 -6.5 45.5t-22.5 12.5q-27 0 -27 -54v-125q0 -55 29 -55q24 0 29 55z" />
    <glyph glyph-name="hyphen.sups" horiz-adv-x="358" 
d="M39 1333h280v-186h-280v186z" />
    <glyph glyph-name="period.subs" horiz-adv-x="299" 
d="M262 -268h-225v239h225v-239z" />
    <glyph glyph-name="comma.subs" horiz-adv-x="339" 
d="M215 -453h-197q33 100 47.5 216.5t12.5 207.5h225q-2 -123 -25.5 -238t-62.5 -186z" />
    <glyph glyph-name="dollar.subs" horiz-adv-x="585" 
d="M371 -334h-154v76q-93 17 -139.5 76.5t-46.5 148.5h211q0 -73 47 -73q41 0 41 32q0 35 -54 51q-135 43 -184 95t-49 139q0 80 45 132t129 65v61h154v-66q164 -34 164 -217h-201q0 24 -2 37t-12 24t-29 11q-18 0 -27.5 -11.5t-9.5 -25.5q0 -19 15.5 -30t58.5 -25
q124 -36 173.5 -85.5t49.5 -133.5q0 -172 -180 -205v-76z" />
    <glyph glyph-name="cent.subs" horiz-adv-x="573" 
d="M334 8h201q0 -17 -1.5 -33.5t-10.5 -47t-24.5 -54t-47.5 -46t-76 -32.5v-84h-154v86q-176 31 -176 254v53q0 209 176 244v72h154v-72q51 -10 84.5 -34t48 -57.5t19.5 -62.5t5 -65h-200q0 33 -6.5 45t-22.5 12q-27 0 -27 -53v-125q0 -55 29 -55q24 0 29 55z" />
    <glyph glyph-name="hyphen.subs" horiz-adv-x="358" 
d="M39 172h280v-186h-280v186z" />
    <glyph glyph-name="zero.numr" horiz-adv-x="583" 
d="M289 1335q127 0 192.5 -68.5t65.5 -183.5v-213q0 -249 -260 -249q-121 0 -185.5 66t-64.5 185v222q0 112 68 176.5t184 64.5zM293 1161q-31 0 -31 -49v-266q0 -51 31 -51q29 0 29 51v266q0 25 -6 37t-23 12z" />
    <glyph glyph-name="one.numr" horiz-adv-x="376" 
d="M326 631h-226v456q-42 6 -71 13v166q91 5 137 61h160v-696z" />
    <glyph glyph-name="two.numr" horiz-adv-x="581" 
d="M526 631h-481v14q-1 51 4.5 87t23.5 81.5t59 92.5t106 100q50 42 62.5 60.5t12.5 57.5q0 29 -6.5 40.5t-21.5 11.5q-31 0 -31 -56v-47h-219v8q0 41 4.5 73t20.5 67.5t43.5 59t77 39t116.5 15.5q129 0 187.5 -60.5t58.5 -156.5q0 -62 -23.5 -105.5t-103.5 -103.5
q-85 -64 -101 -96h234z" />
    <glyph glyph-name="three.numr" horiz-adv-x="565" 
d="M31 850h215v-19q0 -45 30 -45q29 0 29 60q0 42 -13 59t-48 17h-60v151h64q35 0 46 14.5t11 47.5q0 24 -6 35.5t-23 11.5q-18 0 -24 -12.5t-6 -43.5v-4h-207v4q0 28 5 53.5t20.5 55t41 51t70.5 35.5t105 14q239 0 239 -190q0 -103 -96 -139q111 -36 111 -162
q0 -119 -64 -171t-192 -52q-66 0 -114.5 18t-73 42t-39.5 58t-18 57t-3 48v6z" />
    <glyph glyph-name="four.numr" horiz-adv-x="595" 
d="M508 631h-209v137h-260v182l158 377h311v-387h61l-16 -172h-45v-137zM233 940h66v51q0 21 1 81t1 73h-4q-24 -83 -64 -205z" />
    <glyph glyph-name="five.numr" horiz-adv-x="589" 
d="M526 1325l-28 -182h-219l-7 -68q39 29 103 29q89 0 132.5 -58t43.5 -163q0 -137 -62 -199.5t-192 -62.5q-136 0 -196 63t-60 168h225q0 -37 6 -52.5t23 -15.5q20 0 25.5 22t5.5 71q0 32 -4.5 48t-10.5 18.5t-18 2.5q-28 0 -31 -45l-217 12q24 143 41 412h440z" />
    <glyph glyph-name="six.numr" horiz-adv-x="573" 
d="M541 1130h-213q0 44 -31 44q-18 0 -26.5 -14.5t-8.5 -49.5v-53q43 41 115 41q91 0 130.5 -54.5t39.5 -158.5q0 -144 -62.5 -204t-193.5 -60q-138 0 -196 79.5t-58 221.5v127q0 147 63 216.5t193 69.5q125 0 185.5 -57.5t62.5 -147.5zM297 786q35 0 35 80q0 41 -6 57.5
t-27 16.5t-29 -17t-8 -63q0 -41 8 -57.5t27 -16.5z" />
    <glyph glyph-name="seven.numr" horiz-adv-x="520" 
d="M12 1325h488v-176q-121 -143 -172 -514h-250q4 119 57 257.5t125 231.5h-248v201z" />
    <glyph glyph-name="eight.numr" horiz-adv-x="575" 
d="M281 621q-113 0 -179.5 54.5t-66.5 149.5q0 65 24 102t68 64q-80 47 -80 150q0 98 62.5 146t177.5 48q105 0 171 -47.5t66 -152.5q0 -52 -17 -86t-58 -58q92 -47 92 -162q0 -208 -260 -208zM287 1180q-31 0 -31 -43v-27q0 -43 31 -43q28 0 28 41v29q0 43 -28 43zM287 778
q28 0 28 41v53q0 39 -28 39q-31 0 -31 -39v-53q0 -41 31 -41z" />
    <glyph glyph-name="nine.numr" horiz-adv-x="579" 
d="M41 829h221q0 -49 29 -49q17 0 21.5 13t4.5 41v77q-39 -45 -112 -45q-172 0 -172 215v23q0 114 66.5 172.5t185.5 58.5q132 0 195 -68.5t63 -193.5v-166q0 -151 -61 -218.5t-197 -67.5q-127 0 -185.5 57.5t-58.5 150.5zM289 1176q-15 0 -23 -10t-8 -38v-53q0 -27 7 -38
t24 -11t22.5 12t5.5 37v53q0 48 -28 48z" />
    <glyph glyph-name="parenleft.numr" horiz-adv-x="382" 
d="M166 1475h209q-24 -56 -38 -93.5t-34.5 -105t-30.5 -143.5t-10 -158q0 -47 3.5 -93.5t7.5 -80.5t14 -76.5t15 -64t19 -61t18 -51t19.5 -50t16.5 -41.5h-209q-45 71 -84.5 207t-38.5 309q2 280 123 502z" />
    <glyph glyph-name="parenright.numr" horiz-adv-x="382" 
d="M217 457h-209q24 56 38 93.5t34.5 105t30.5 143t10 157.5q0 47 -3.5 93.5t-7.5 80.5t-14 77t-15 64t-19 61.5t-17.5 50.5t-19.5 50.5t-17 41.5h209q45 -71 84.5 -207.5t38.5 -309.5q-2 -279 -123 -501z" />
    <glyph glyph-name="period.numr" horiz-adv-x="299" 
d="M262 627h-225v239h225v-239z" />
    <glyph glyph-name="comma.numr" horiz-adv-x="339" 
d="M215 442h-197q33 100 47.5 216.5t12.5 207.5h225q-2 -123 -25.5 -238t-62.5 -186z" />
    <glyph glyph-name="dollar.numr" horiz-adv-x="585" 
d="M371 561h-154v76q-93 17 -139.5 76.5t-46.5 148.5h211q0 -74 47 -74q41 0 41 33q0 35 -54 51q-135 43 -184 95t-49 139q0 80 45 132t129 65v61h154v-66q164 -34 164 -217h-201q0 24 -2 37t-12 24t-29 11q-18 0 -27.5 -11.5t-9.5 -25.5q0 -19 15.5 -30t58.5 -25
q124 -36 173.5 -85.5t49.5 -133.5q0 -172 -180 -205v-76z" />
    <glyph glyph-name="cent.numr" horiz-adv-x="573" 
d="M334 903h201q0 -17 -1.5 -33.5t-10.5 -47t-24.5 -54t-47.5 -46t-76 -32.5v-84h-154v86q-176 31 -176 254v53q0 209 176 244v72h154v-72q51 -10 84.5 -34t48 -57.5t19.5 -62.5t5 -65h-200q0 33 -6.5 45t-22.5 12q-27 0 -27 -53v-125q0 -55 29 -55q24 0 29 55z" />
    <glyph glyph-name="hyphen.numr" horiz-adv-x="358" 
d="M39 1067h280v-186h-280v186z" />
    <glyph glyph-name="zero.dnom" horiz-adv-x="583" 
d="M289 705q127 0 192.5 -68.5t65.5 -183.5v-213q0 -250 -260 -250q-121 0 -185.5 66.5t-64.5 185.5v221q0 112 68 177t184 65zM293 530q-31 0 -31 -49v-266q0 -51 31 -51q29 0 29 51v266q0 25 -6 37t-23 12z" />
    <glyph glyph-name="one.dnom" horiz-adv-x="376" 
d="M326 0h-226v457q-51 7 -71 12v166q91 5 137 61h160v-696z" />
    </font>
</defs>
</svg>
